<svg xmlns="http://www.w3.org/2000/svg" viewBox="0 0 24 24"><path d="M9.5 5.002a.5.5 0 0 0-.4.2L7.75 7H4.5C3.679 7 3 7.679 3 8.5v10c0 .655.435 1.213 1.027 1.414L5.187 19H4.5c-.333 0-.5-.167-.5-.5v-10c0-.333.167-.5.5-.5H8a.5.5 0 0 0 .4-.2l1.35-1.798h4.5l1.35 1.799A.5.5 0 0 0 16 8h3.121l1.053-.832A1.468 1.468 0 0 0 19.5 7h-3.25L14.9 5.201a.5.5 0 0 0-.4-.199zm11.367 2.893L20 8.578V18.5c0 .333-.167.5-.5.5H6.8l-1.267 1H19.5c.821 0 1.5-.679 1.5-1.5v-10c0-.215-.05-.42-.133-.605z" style="line-height:normal;font-variant-ligatures:normal;font-variant-position:normal;font-variant-caps:normal;font-variant-numeric:normal;font-variant-alternates:normal;font-feature-settings:normal;text-indent:0;text-align:start;text-decoration-line:none;text-decoration-style:solid;text-decoration-color:#000;text-transform:none;text-orientation:mixed;white-space:normal;shape-padding:0;isolation:auto;mix-blend-mode:normal;solid-color:#000;solid-opacity:1"/><path d="M12 9.002c-2.203 0-4 1.797-4 4 0 1.109.457 2.112 1.19 2.838l.794-.627A2.993 2.993 0 0 1 12 10.003c1.136-.001 2.108.628 2.617 1.554l.787-.623C14.701 9.78 13.444 9.002 12 9.002zm3.82 2.877l-.865.682c.021.144.045.29.045.441a2.993 2.993 0 0 1-4.121 2.78l-.856.673a3.95 3.95 0 0 0 1.977.547c2.203 0 4-1.797 4-4a3.94 3.94 0 0 0-.18-1.123z" style="line-height:normal;font-variant-ligatures:normal;font-variant-position:normal;font-variant-caps:normal;font-variant-numeric:normal;font-variant-alternates:normal;font-feature-settings:normal;text-indent:0;text-align:start;text-decoration-line:none;text-decoration-style:solid;text-decoration-color:#000;text-transform:none;text-orientation:mixed;white-space:normal;shape-padding:0;isolation:auto;mix-blend-mode:normal;solid-color:#000;solid-opacity:1"/><path fill="none" stroke="#000" d="M2 21L21 6"/></svg>