<svg xmlns="http://www.w3.org/2000/svg" viewBox="0 0 24 24"><g fill="none" stroke="#000" stroke-linecap="square"><path d="M10.974 5.5l-.16 1.514a5.132 5.132 0 0 0-1.499.624l-1.185-.96L6.679 8.13l.96 1.185a5.132 5.132 0 0 0-.626 1.5l-1.513.159v2.052l1.514.16a5.132 5.132 0 0 0 .62 1.504l-.955 1.18 1.451 1.451 1.183-.957a5.132 5.132 0 0 0 1.502.622l.159 1.514h2.052l.16-1.514a5.132 5.132 0 0 0 1.499-.624l1.185.96 1.451-1.452-.96-1.185a5.132 5.132 0 0 0 .626-1.5l1.513-.159v-2.052l-1.514-.16a5.132 5.132 0 0 0-.62-1.504l.955-1.18-1.45-1.452-1.184.958a5.132 5.132 0 0 0-1.502-.622L13.026 5.5zM12 10.29A1.71 1.71 0 0 1 13.71 12 1.71 1.71 0 0 1 12 13.71 1.71 1.71 0 0 1 10.29 12 1.71 1.71 0 0 1 12 10.29z"/><path d="M5.5 3.5h13c1.108 0 2 .892 2 2v13c0 1.108-.892 2-2 2h-13c-1.108 0-2-.892-2-2v-13c0-1.108.892-2 2-2z"/></g></svg>