<svg xmlns="http://www.w3.org/2000/svg" viewBox="0 0 24 24"><path fill="none" stroke="#000" stroke-linejoin="round" d="M19.5 11.5v8c0 .554-.446 1-1 1h-13c-.554 0-1-.446-1-1v-8"/><path fill="none" stroke="#010000" stroke-linecap="square" d="M12.5 20.5V16c0-1.385 1.115-2.5 2.5-2.5s2.5 1.115 2.5 2.5v4.5"/><rect width="4" height="4" x="6.5" y="13.5" fill="none" stroke="#010000" stroke-linecap="square" rx="1"/><path fill="none" stroke="#000" stroke-linecap="square" d="M12 9.063c0 1.311-1.063 2.437-2.375 2.437S7.25 10.25 7.25 8.937M16.75 9.063c0 1.311-1.063 2.437-2.375 2.437S12 10.374 12 9.062" opacity=".93"/><path fill="none" stroke="#000" d="M12 3v6.5M8 3.5l-.75 5.531c0 1.343-1.063 2.469-2.375 2.469S2.5 10.25 2.5 8.937L5 3.5h14.5l2 5.469c0 1.28-1.063 2.531-2.375 2.531s-2.375-1.126-2.375-2.469L16 3.5"/></svg>