<svg xmlns="http://www.w3.org/2000/svg" viewBox="0 0 24 24"><g fill="none" stroke="#000" stroke-linecap="round"><path stroke-linejoin="round" d="M6.72 4.782c-2.668.714-4.826 1.31-4.066 4.148l1.224 4.566c.76 2.837 3.538 4.557 6.206 3.842 2.667-.714 4.213-3.594 3.453-6.43L12.314 6.34c-.76-2.837-2.927-2.274-5.595-1.56z"/><path d="M6.582 9.1l-.901 1.466M8.997 8.453l1.514.818"/><path stroke-linejoin="round" d="M6.87 14.113c.174-.884.866-1.651 1.837-1.911s1.953.057 2.546.735"/></g><g fill="none" stroke="#000" stroke-linecap="round"><path stroke-linejoin="round" d="M10.779 17.098c.52 1.554 1.733 2.803 3.367 3.24 2.667.715 5.446-1.005 6.206-3.842l1.223-4.567c.76-2.837-1.397-3.433-4.065-4.148-2.001-.536-3.721-.987-4.776.02"/><path d="M15.232 11.453l-1.207-.323M17.647 12.1l1.208.324"/><path stroke-linejoin="round" d="M13.328 14.622c.173.885.866 1.651 1.837 1.912.97.26 1.953-.057 2.546-.736"/></g></svg>