<svg xmlns="http://www.w3.org/2000/svg" viewBox="0 0 24 24"><path fill="none" stroke="#000" stroke-linecap="round" stroke-linejoin="round" d="M14.886 6.922a1.5 1.5 0 0 1-2.121 0 2.5 2.5 0 1 0-3.536 3.535l8.485 8.486a1.5 1.5 0 0 1-2.12 2.12c-.587-.585-6.338-6.337-8.486-8.484A5.5 5.5 0 1 1 14.886 4.8a1.5 1.5 0 0 1 0 2.122z"/><path style="line-height:normal;font-variant-ligatures:normal;font-variant-position:normal;font-variant-caps:normal;font-variant-numeric:normal;font-variant-alternates:normal;font-feature-settings:normal;text-indent:0;text-align:start;text-decoration-line:none;text-decoration-style:solid;text-decoration-color:#000;text-transform:none;text-orientation:mixed;white-space:normal;shape-padding:0;isolation:auto;mix-blend-mode:normal;solid-color:#000;solid-opacity:1" d="M14.957 16.326l-.519 3.634s.293 1.385 1.791 1.599l.547-3.83zM12.129 13.498l-.536 3.753 1.808 1.48.543-3.803zM9.3 10.67l-.522 3.656 1.794 1.576.53-3.714zM6.929 4.642L6.5 8l-.544 3.453 1.788 1.62 1.414-9.899zM10.577 3.143l-.44 3.088 2.01.067.413-2.893zM14.131 3.724l-.536 3.752 1.29-.554.355-1.061-.163-1.392z"/></svg>