<svg xmlns="http://www.w3.org/2000/svg" viewBox="0 0 24 24"><g fill="none" stroke="#000" paint-order="markers stroke fill" transform="translate(0 -1028.362)"><path stroke-linejoin="round" d="M20.334 1037.545c-.033.57-.16 1.616-1.415 2.872l-7.039 7.039a1.028 1.028 0 0 1-1.457 0L4.8 1041.83a1.028 1.028 0 0 1 0-1.457l7.039-7.04c1.255-1.255 2.302-1.366 2.87-1.413 1.74-.147 2.515-.179 2.515-.179a2.994 2.994 0 0 1 2.414.864c.632.632.923 1.475.873 2.301 0 0-.075.854-.176 2.638z"/><circle cx="719.293" cy="-744.049" r="1" transform="rotate(135)"/></g></svg>