<svg xmlns="http://www.w3.org/2000/svg" viewBox="0 0 24 24"><path fill="none" stroke="#000" d="M8.59 4.41h10.82c1.208 0 2.18.972 2.18 2.18v5.82c0 1.208-.967 2.18-2.175 2.18v3.189l-4.991-3.189H8.59a2.176 2.176 0 0 1-2.18-2.18V6.59c0-1.208.972-2.18 2.18-2.18z"/><path fill="none" stroke="#000" d="M6.5 8.41H4.68c-1.207 0-2.18.972-2.18 2.18v4.82c0 1.208.968 2.18 2.176 2.18V21l4.276-3.41h4.225c1.208 0 2.18-.972 2.18-2.18V15M13.5 12v1"/><path fill="none" stroke="#000" stroke-linecap="round" d="M12.5 7.5c0-.554.446-1 1-1h1c.554 0 1 .446 1 1v1c0 .554-.446 1-1 .997a.993.993 0 0 0-1 .996"/></svg>