<svg xmlns="http://www.w3.org/2000/svg" viewBox="0 0 24 24"><g fill="none" stroke="#000" transform="translate(0 -1028.362)"><path d="M7 1041.862h10M7 1044.862h10"/><circle cx="8.5" cy="1035.362" r="1.5" stroke-linejoin="round"/><path stroke-linejoin="round" d="M11 1039.112c0 .375-1.12.75-2.5.75s-2.5-.375-2.5-.75c0-1.243 1.12-2.25 2.5-2.25s2.5 1.007 2.5 2.25z"/><rect width="17" height="17" x="3.5" y="1031.862" stroke-linejoin="round" rx="1.03"/><circle cx="15.5" cy="1035.362" r="1.5" stroke-linejoin="round"/><path stroke-linejoin="round" d="M18 1039.112c0 .375-1.12.75-2.5.75s-2.5-.375-2.5-.75c0-1.243 1.12-2.25 2.5-2.25s2.5 1.007 2.5 2.25z"/></g></svg>