<svg xmlns="http://www.w3.org/2000/svg" viewBox="0 0 24 24"><g fill="none" stroke="#000" stroke-linejoin="round" transform="translate(0 -1028.362)"><circle cx="12" cy="1035.362" r="4.5"/><path d="M14.33 1049.727a19.87 19.87 0 0 1-2.33.135c-4.142 0-7.5-1.25-7.5-2.5a7.5 7.5 0 0 1 11.26-6.49"/><path stroke-linecap="round" d="M21.544 1048.879a.981.981 0 0 1-.983.983h-6.033a.981.981 0 0 1-.983-.983v-4.025c0-.545.438-.983.983-.983h6.033c.544 0 .983.438.983.983v4.025"/><path d="M19.5 1042.362v-.5a2 2 0 1 0-4 0v1.5"/></g></svg>