<svg xmlns="http://www.w3.org/2000/svg" viewBox="0 0 24 24"><g fill="none"><path stroke="#1a1a1a" stroke-linecap="square" d="M8.5 17A1.5 1.5 0 0 1 7 18.5 1.5 1.5 0 0 1 5.5 17 1.5 1.5 0 0 1 7 15.5 1.5 1.5 0 0 1 8.5 17zM18.5 17a1.5 1.5 0 0 1-1.5 1.5 1.5 1.5 0 0 1-1.5-1.5 1.5 1.5 0 0 1 1.5-1.5 1.5 1.5 0 0 1 1.5 1.5zM13.5 9a1.5 1.5 0 0 1-1.5 1.5A1.5 1.5 0 0 1 10.5 9 1.5 1.5 0 0 1 12 7.5 1.5 1.5 0 0 1 13.5 9z"/><path stroke="#000" d="M7.805 15.712l1.804-2.9A4.5 4.5 0 1 1 16.5 9m-3.712 1.261l1.832 2.932A4.37 4.37 0 0 1 17 12.5a4.5 4.5 0 1 1-3.15 7.713M15.5 17h-4.008A4.488 4.488 0 0 1 7 21.5a4.5 4.5 0 0 1-3.174-7.69"/></g></svg>