<svg xmlns="http://www.w3.org/2000/svg" viewBox="0 0 24 24"><g transform="translate(0 -1028.362)"><path fill="#fb7d3f" d="M18.983 1047.144c-.892.846-2.855-.146-4.013.313-1.158.46-1.847 2.503-3.094 2.505-1.247.002-1.883-2.039-3.03-2.494-1.145-.455-3.134.543-4.005-.3-.87-.843.193-2.738-.27-3.84-.463-1.104-2.586-1.735-2.57-2.93.015-1.194 2.155-1.833 2.646-2.937.491-1.105-.523-2.996.37-3.842.892-.846 2.855.146 4.013-.314 1.158-.459 1.847-2.502 3.094-2.504 1.247-.003 1.883 2.039 3.03 2.494 1.145.455 3.134-.543 4.005.3.87.843-.193 2.738.27 3.84.463 1.104 2.586 1.735 2.57 2.93-.015 1.194-2.155 1.832-2.646 2.937-.491 1.104.523 2.996-.37 3.842z"/><circle cx="10" cy="1038.362" r="1.5" fill="none" stroke="#fff" stroke-linecap="square" opacity=".93"/><circle cx="14" cy="1042.362" r="1.5" fill="none" stroke="#fff" stroke-linecap="square" opacity=".93"/><path fill="none" stroke="#fff" d="M15 1037.362l-6 6"/></g></svg>