<svg xmlns="http://www.w3.org/2000/svg" xlink="http://www.w3.org/1999/xlink" width="0" height="0" style="display:none;"><symbol viewBox="0 0 24 24" id="bookmark"><path fill="none" stroke="currentColor" stroke-linecap="round" stroke-linejoin="round" stroke-width="2" d="M8 4h8c.554 0 1 .446 1 1v14c0 .554-.446 1-1 1l-4-4-4 4c-.392.392-1-.446-1-1V5c0-.554.446-1 1-1z"/></symbol><symbol viewBox="0 0 24 24" id="check"><path fill="none" stroke="currentColor" stroke-width="2" d="M19.5 6.5l-10 10-5-5"/></symbol><symbol viewBox="0 0 24 24" id="cast"><path fill="none" stroke="currentColor" stroke-linejoin="round" stroke-width="2" d="M4 10V7c0-.554.446-1 1-1h14c.554 0 1 .446 1 1v11c0 .554-.446 1-1 1h-6M3 15a5 5 0 0 1 5 5M3 12a8 8 0 0 1 8 8"/><path style="line-height:normal;font-variant-ligatures:normal;font-variant-position:normal;font-variant-caps:normal;font-variant-numeric:normal;font-variant-alternates:normal;font-feature-settings:normal;text-indent:0;text-align:start;text-decoration-line:none;text-decoration-style:solid;text-decoration-color:#000;text-transform:none;text-orientation:mixed;white-space:normal;shape-padding:0;isolation:auto;mix-blend-mode:normal;solid-color:#000;solid-opacity:1" d="M3 17v3h3c0-1.645-1.355-3-3-3z"/></symbol><symbol viewBox="0 0 24 24" id="check-circle"><circle cx="12.5" cy="12.5" r="8.5" fill="none" stroke="currentColor" stroke-linejoin="round" stroke-width="2"/><path fill="none" stroke="currentColor" stroke-width="2" d="M16.7 9.434l-5.456 5.768-2.964-2.804"/></symbol><symbol viewBox="0 0 24 24" id="close-circle"><path fill="none" stroke="currentColor" stroke-width="2" d="M9.318 9.318l6.364 6.364M15.682 9.318l-6.364 6.364"/><circle cx="12.5" cy="12.5" r="8.5" fill="none" stroke="currentColor" stroke-linejoin="round" stroke-width="2"/></symbol><symbol viewBox="0 0 24 24" id="comment"><path fill="none" stroke="currentColor" stroke-linejoin="round" stroke-width="2" d="M6 5c-1.108 0-2 .892-2 2v7c0 1.108.892 2 2 2h2v4l4.666-4H18c1.108 0 2-.892 2-2V7c0-1.108-.892-2-2-2z"/></symbol><symbol viewBox="0 0 24 24" id="close"><path fill="none" stroke="currentColor" stroke-width="2" d="M7.104 7.05l9.9 9.9M17.004 7.05l-9.9 9.9"/></symbol><symbol viewBox="0 0 24 24" id="pencil-square"><path fill="none" stroke="currentColor" stroke-linejoin="round" stroke-width="2" d="M20 11v7c0 1.108-.892 2-2 2H6c-1.108 0-2-.892-2-2V6c0-1.108.892-2 2-2h7"/><path fill="none" stroke="currentColor" stroke-linecap="round" stroke-linejoin="round" stroke-width="2" d="M19.567 2.311a.998.998 0 0 0-1.414 0l-9.192 9.193L7.9 16.1l4.596-1.06 9.193-9.193a.998.998 0 0 0 0-1.414z"/><path fill="none" stroke="currentColor" d="M16.385 4.08l3.536 3.535M9.314 11.15l3.536 3.536"/></symbol><symbol viewBox="0 0 24 24" id="minus"><path fill="none" stroke="currentColor" stroke-width="2" d="M6 12h12"/></symbol><symbol viewBox="0 0 24 24" id="filter"><path fill="none" stroke="currentColor" stroke-linecap="square" stroke-linejoin="round" stroke-width="2" d="M6 5l4 7.5V19l4-2v-4.5L18 5z"/></symbol><symbol viewBox="0 0 24 24" id="pencil"><path fill="none" stroke="currentColor" stroke-linecap="round" stroke-width="1.875" d="M5.33 15.068L4.25 19.75l4.682-1.08L19.734 7.865a1.015 1.015 0 0 0 0-1.44l-2.16-2.16c-.4-.4-1.042-.4-1.441 0z"/><path fill="none" stroke="currentColor" d="M14.092 6.067l3.841 3.841M5 15l3.841 3.841"/></symbol><symbol viewBox="0 0 24 24" id="power-off"><path fill="none" stroke="currentColor" stroke-width="2" d="M12 2v10"/><path fill="none" stroke="currentColor" stroke-linecap="square" stroke-linejoin="round" stroke-width="2" d="M15.916 5.022a8 8 0 1 1-7.831 0"/></symbol><symbol viewBox="0 0 24 24" id="plus"><g fill="none" stroke="currentColor" stroke-width="2"><path d="M6 12h12M11.96 6v12"/></g></symbol><symbol viewBox="0 0 24 24" id="search"><path fill="none" stroke="currentColor" stroke-linecap="square" stroke-width="2" d="M16 16l4.5 4.5"/><circle cx="10.5" cy="10.5" r="6.5" fill="none" stroke="currentColor" stroke-linecap="round" stroke-linejoin="round" stroke-width="2"/></symbol><symbol viewBox="0 0 24 24" id="share"><path fill="none" stroke="currentColor" stroke-width="2" d="M9.055 10.523l5.791-2.912M8.962 13.557l5.913 2.897"/><circle cx="17.5" cy="6.5" r="2.5" fill="none" stroke="currentColor" stroke-linecap="round" stroke-linejoin="round" stroke-width="2"/><circle cx="17.5" cy="17.5" r="2.5" fill="none" stroke="currentColor" stroke-linecap="round" stroke-linejoin="round" stroke-width="2"/><circle cx="6.5" cy="12" r="2.5" fill="none" stroke="currentColor" stroke-linecap="round" stroke-linejoin="round" stroke-width="2"/></symbol><symbol viewBox="0 0 24 24" id="tag"><g transform="translate(0 -1028.362)"><path fill="none" stroke="currentColor" stroke-linejoin="round" stroke-width="2" d="M12.293 1047.211a1.996 1.996 0 0 1-2.829 0l-4.242-4.242a1.991 1.991 0 0 1 0-2.829l6.837-6.751c.838-.781 1.36-1.027 1.941-1.027h4c1.108 0 2 .892 2 2v4c0 .566-.233 1.076-.976 1.962z"/><circle cx="17" cy="1035.362" r="1"/></g></symbol><symbol viewBox="0 0 24 24" id="bell"><g fill="none" stroke="currentColor"><path stroke-linecap="square" d="M14.5 18a2.5 2.5 0 1 1-5 0M10.5 4a1.5 1.5 0 1 1 3 0"/><path stroke-linecap="round" stroke-linejoin="round" stroke-width="2" d="M14 18a2 2 0 1 1-4 0M11 4a1 1 0 1 1 2 0"/><path stroke-width="2" d="M17 13l2 2v2H5h0v-2l2-2v-3a5 5 0 0 1 10 0z"/></g></symbol><symbol viewBox="0 0 24 24" id="calculator"><g fill="none" stroke="currentColor" transform="translate(0 -1028.362)"><rect width="18" height="18" x="3" y="1031.362" stroke-linejoin="round" stroke-width="2" rx="2.012"/><path d="M6 1036.862h5M8.5 1034.362v5M13 1036.862h5M13 1042.862h5M13 1044.862h5M10.5 1041.862l-4 4M6.5 1041.862l4 4"/></g></symbol><symbol viewBox="0 0 24 24" id="calendar-check"><g fill="none" stroke="currentColor" transform="translate(0 -1028.362)"><path d="M4 1036.862h16"/><path stroke-width="2" d="M8 1034.362v-4M16 1034.362v-4"/><rect width="16" height="16" x="4" y="1032.362" stroke-linecap="round" stroke-linejoin="round" stroke-width="2" ry="2"/><path stroke-width="2" d="M16 1039.362l-5.5 5.5-2.5-2.5"/></g></symbol><symbol viewBox="0 0 24 24" id="trash"><g fill="none" stroke="currentColor"><path stroke-linecap="square" stroke-linejoin="round" stroke-width="2" d="M6 6h3V5h6v1h3v3H6zM7 9h10v11H7z"/><path d="M9.5 11v7M14.5 11v7M12 11v7"/></g></symbol><symbol viewBox="0 0 24 24" id="calendar-minus"><g fill="none" stroke="currentColor" transform="translate(0 -1028.362)"><path d="M4 1036.862h16"/><rect width="5" height="4" x="7.5" y="1039.862" stroke-linejoin="round" rx="0"/><path stroke-width="2" d="M8 1034.362v-4M16 1034.362v-4"/><path stroke-linejoin="round" stroke-width="2" d="M14 1048.362H6c-1.108 0-2-.892-2-2v-12c0-1.108.892-2 2-2h12c1.108 0 2 .892 2 2v8"/><path d="M14 1044.862h5"/><circle cx="16.5" cy="1044.862" r="4.5" stroke-linecap="round" stroke-linejoin="round" stroke-width="2"/></g></symbol><symbol viewBox="0 0 24 24" id="calendar-plus"><g fill="none" stroke="currentColor" transform="translate(0 -1028.362)"><path d="M4 1036.862h16"/><rect width="5" height="4" x="7.5" y="1039.862" stroke-linejoin="round" rx="0"/><path stroke-width="2" d="M8 1034.362v-4M16 1034.362v-4"/><path stroke-linejoin="round" stroke-width="2" d="M14 1048.362H6c-1.108 0-2-.892-2-2v-12c0-1.108.892-2 2-2h12c1.108 0 2 .892 2 2v8"/><path d="M16.5 1042.362v5M14 1044.862h5"/><circle cx="16.5" cy="1044.862" r="4.5" stroke-linecap="round" stroke-linejoin="round" stroke-width="2"/></g></symbol><symbol viewBox="0 0 24 24" id="contacts"><g fill="none" stroke="currentColor" transform="translate(0 -1028.362)"><path d="M13 1035.862h6M13 1038.862h6"/><circle cx="8" cy="1036.362" r="1.5" stroke-linejoin="round"/><path stroke-linejoin="round" d="M10.5 1040.112c0 .375-1.12.75-2.5.75s-2.5-.375-2.5-.75c0-1.243 1.12-2.25 2.5-2.25s2.5 1.007 2.5 2.25z"/><rect width="18" height="16" x="3" y="1032.362" stroke-linecap="round" stroke-linejoin="round" stroke-width="2" rx="2"/><path d="M3 1045.862h18M3 1043.862h18"/></g></symbol><symbol viewBox="0 0 24 24" id="calendar"><g fill="none" stroke="currentColor" transform="translate(0 -1028.362)"><path d="M4 1036.862h16"/><rect width="5" height="4" x="11.5" y="1040.862" stroke-linejoin="round" rx="0"/><path stroke-width="2" d="M8 1034.362v-4M16 1034.362v-4"/><rect width="16" height="16" x="4" y="1032.362" stroke-linecap="round" stroke-linejoin="round" stroke-width="2" ry="2"/></g></symbol><symbol viewBox="0 0 24 24" id="document-text"><g fill="none" stroke="currentColor"><path stroke-linejoin="round" stroke-width=".994" d="M19.5 7.5h-4c-.504 0-1-.496-1-1v-4z"/><path d="M8 10.5h8M8 13.5h8M8 16.5h8"/><path stroke-linejoin="round" stroke-width="2" d="M7 3h8l4 4v12c0 1.108-.892 2-2 2H7c-1.108 0-2-.892-2-2V5c0-1.108.892-2 2-2z"/></g></symbol><symbol viewBox="0 0 24 24" id="hierarchy-2"><g fill="none" stroke="currentColor" stroke-width="2" transform="translate(0 -1028.362)"><path stroke-linejoin="round" d="M12.5 1047.362H9.03c-.57 0-1.03-.43-1.03-1v-9.5"/><path d="M8 1040.362h4.5"/><circle cx="8" cy="1034.362" r="2" stroke-linejoin="round"/><circle cx="15" cy="1040.362" r="2" stroke-linejoin="round"/><circle cx="15" cy="1047.362" r="2" stroke-linejoin="round"/></g></symbol><symbol viewBox="0 0 24 24" id="dashboard"><g fill="none" stroke="currentColor" stroke-linecap="round" stroke-linejoin="round" stroke-width="2" transform="translate(0 -1028.362)"><rect width="6" height="9" x="5" y="1032.362" rx="1"/><rect width="6" height="4" x="5" y="1044.362" rx="1"/><rect width="6" height="9" x="14" y="1039.362" rx="1"/><rect width="6" height="4" x="14" y="1032.362" rx="1"/></g></symbol><symbol viewBox="0 0 24 24" id="home-2"><path fill="none" stroke="currentColor" stroke-linejoin="round" stroke-width="2" d="M7 20c-.442 0-.994-.558-1-1v-7H4l8-8 8 8h-2v7c0 .442-.558 1-1 1z"/></symbol><symbol viewBox="0 0 24 24" id="location"><ellipse cx="12" cy="8.745" fill="none" stroke="currentColor" stroke-linecap="square" stroke-width="2" rx="1.861" ry="1.793"/><path fill="none" stroke="currentColor" stroke-linecap="square" stroke-width="2" d="M18.551 8.78c0 3.48-4.788 9.72-6.538 12.36-1.854-2.64-6.539-8.88-6.539-12.36 0-3.48 2.927-6.302 6.539-6.302 3.61 0 6.538 2.821 6.538 6.301z"/></symbol><symbol viewBox="0 0 24 24" id="parameters"><g fill="none" stroke="currentColor" stroke-width="2" transform="translate(0 -1028.362)"><path d="M3 1040.362h7"/><circle cx="8" cy="1033.362" r="2" stroke-linejoin="round"/><circle cx="12" cy="1040.362" r="2" stroke-linejoin="round"/><circle cx="16" cy="1047.362" r="2" stroke-linejoin="round"/><path d="M3 1047.362h11M14 1040.362h7M3 1033.362h3M10 1033.362h11M18 1047.362h3"/></g></symbol><symbol viewBox="0 0 24 24" id="number"><path fill="none" stroke="currentColor" stroke-width="2" d="M4 10h16M4 15h16M16 5l-2 15M10 5L8 20"/></symbol><symbol viewBox="0 0 24 24" id="report"><g fill="currentColor" stroke="currentColor" stroke-linecap="round" stroke-linejoin="round" stroke-opacity=".96" stroke-width="2" transform="translate(0 -1028.362)"><rect width="3" height="8" x="5" y="1040.362" rx="1"/><rect width="3" height="14" x="11" y="1034.362" rx="1"/><rect width="3" height="10" x="17" y="1038.362" rx="1"/></g></symbol><symbol viewBox="0 0 24 24" id="user"><path fill="none" stroke="currentColor" stroke-linejoin="round" stroke-width="2" d="M16 7a4 4 0 1 1-8 0 4 4 0 0 1 8 0zM19 18.75c0 1.125-3.134 2.25-7 2.25s-7-1.125-7-2.25C5 15.022 8.134 12 12 12s7 3.022 7 6.75z"/></symbol><symbol viewBox="0 0 24 24" id="text"><path style="line-height:1.25;-inkscape-font-specification:&apos;.SF NS Text Condensed, &apos;" d="M11.972 19h1.843L9.323 5H7.43L2.939 19h1.843l1.165-4h4.84zM8.275 7.222h.155l1.912 6.278h-3.95zM16.935 17.766C15.87 17.766 15 17.2 15 16.135c0-1.056.774-1.555 2.185-1.718l2.291-.211v1.19c0 1.391-1.14 2.37-2.541 2.37zm-.413 1.458c1.21 0 2.44-.566 2.978-1.564h.024L19.401 19H21v-7.107c0-2.1-1.263-2.93-3.547-2.93-2.092 0-3.3 1.271-3.453 3.037h1.5c.182-.93.773-1.55 1.905-1.55 1.267 0 2.071.254 2.071 1.482v.93l-2.541.24c-2.312.27-3.435 1.267-3.435 3.09 0 1.9 1.238 3.032 3.022 3.032z" letter-spacing="-1.927" word-spacing="0"/></symbol><symbol viewBox="0 0 24 24" id="user-profile"><g fill="none" stroke="currentColor" stroke-linejoin="round" stroke-width="2" transform="translate(0 -1028.362)"><circle cx="12" cy="1040.362" r="9"/><circle cx="12" cy="1038.362" r="3"/><path d="M6.14 1047.069a6.002 6.002 0 0 1 11.733.061"/></g></symbol><symbol viewBox="0 0 24 24" id="usergroup"><g fill="none" stroke="currentColor" stroke-linejoin="round" stroke-width="2" transform="translate(0 -1028.362)"><circle cx="10" cy="1035.362" r="4"/><path d="M17 1047.362c0 1-3.134 2-7 2s-7-1-7-2a7 7 0 1 1 14 0zM13.826 1033.6a3 3 0 1 1-1.127 4.687"/><path d="M12.393 1040.956a6 6 0 0 1 8.607 5.406c0 .882-2.091 1.765-4.86 1.96"/></g></symbol><symbol viewBox="0 0 32 32" id="cocktail"><path fill="none" stroke="currentColor" stroke-linejoin="round" stroke-width="2" d="M16 18L6 6h20z"/><path fill="none" stroke="currentColor" stroke-width="2" d="M21 27H11M16 18v10"/><path fill="none" stroke="currentColor" d="M22.664 9.5h-5.152M13.096 9.5h-3.68"/><path fill="none" stroke="currentColor" stroke-linejoin="round" d="M17.06 9.52a2 2 0 1 1-4.002-.001 2 2 0 0 1 4.002 0z"/><path fill="none" stroke="currentColor" d="M11.088 3.541s3.977-.708 4.416 4.416"/></symbol><symbol viewBox="0 0 32 32" id="device-projector"><g fill="none" stroke="currentColor" stroke-linecap="round" stroke-width="2" transform="translate(0 -1020.362)"><path d="M16 1042.362v6M13 1047.362l3-3 3 3"/><rect width="22" height="4" x="5" y="1026.362" stroke-linejoin="round" ry="1"/><rect width="18" height="12" x="7" y="1030.362" stroke-linejoin="round" ry="1"/></g></symbol><symbol viewBox="0 0 32 32" id="food"><g fill="none" stroke="currentColor" stroke-linecap="round" stroke-width="2" transform="translate(0 -1020.362)"><path stroke-linejoin="round" d="M14 1024.362v6c0 1.902-1.223 3.608-3 4l1 12a2 2 0 1 1-4 0l1-12c-1.777-.41-3-2.11-3-4v-6"/><path d="M10 1024.362v6"/><path stroke-linejoin="round" d="M23 1034.362l1 12a2 2 0 1 1-4 0l1-12"/><ellipse cx="22" cy="1029.362" stroke-linejoin="round" rx="4" ry="5"/></g></symbol><symbol viewBox="0 0 32 32" id="music"><path fill="none" stroke="currentColor" stroke-linejoin="round" stroke-width="2" d="M9 21V8l10-4v13"/><path fill="none" stroke="currentColor" stroke-linecap="round" stroke-linejoin="round" stroke-width="2" d="M26.805 19.488s.654-3.334-1.268-5.073C23.615 12.675 23 10 23 10v15"/><path d="M23.801 24.41c.64 1.406-.317 3.255-2.14 4.134-1.824.878-3.821.45-4.462-.954-.64-1.406.317-3.256 2.14-4.134 1.824-.878 3.821-.45 4.462.955zM19.801 16.41c.64 1.406-.317 3.255-2.14 4.134-1.824.878-3.821.45-4.462-.954-.64-1.406.317-3.256 2.14-4.134 1.824-.878 3.821-.45 4.462.955zM9.801 20.41c.64 1.406-.317 3.255-2.14 4.134-1.824.878-3.821.45-4.462-.954-.64-1.406.317-3.256 2.14-4.134 1.824-.878 3.821-.45 4.462.955z"/><path fill="none" stroke="currentColor" stroke-linejoin="round" d="M9 12l10-4"/></symbol><symbol viewBox="0 0 32 32" id="theater"><path fill="none" stroke="currentColor" stroke-linecap="round" stroke-linejoin="round" stroke-width="2" d="M9.286 6.404c-3.32.89-6.005 1.632-5.059 5.162l1.523 5.682c.946 3.531 4.403 5.672 7.723 4.783 3.32-.89 5.243-4.473 4.297-8.003l-1.522-5.683c-.946-3.53-3.643-2.83-6.962-1.94z"/><path fill="none" stroke="currentColor" stroke-linecap="round" d="M9.115 11.779l-1.122 1.823M12.12 10.974l1.884 1.018"/><path fill="none" stroke="currentColor" stroke-linecap="round" stroke-linejoin="round" d="M9.473 18.017c.216-1.1 1.078-2.055 2.287-2.379 1.208-.324 2.43.071 3.168.915"/><path fill="none" stroke="currentColor" stroke-linecap="round" stroke-linejoin="round" stroke-width="2" d="M14.338 21.73c.647 1.935 2.157 3.49 4.19 4.034 3.319.89 6.776-1.252 7.722-4.782l1.523-5.683c.946-3.53-1.74-4.272-5.059-5.161-2.49-.668-4.63-1.229-5.944.025"/><path fill="none" stroke="currentColor" stroke-linecap="round" d="M19.88 14.707l-1.503-.403M22.885 15.512l1.502.403"/><path fill="none" stroke="currentColor" stroke-linecap="round" stroke-linejoin="round" d="M17.51 18.65c.216 1.1 1.077 2.055 2.286 2.38 1.208.323 2.43-.072 3.168-.916"/></symbol><symbol viewBox="0 0 32 32" id="trees"><g fill="none" stroke="currentColor" stroke-width="2" transform="translate(0 -1020.362)"><path d="M11 1039.362v10M21 1049.362v-5.474"/><circle cx="11" cy="1037.362" r="7" stroke-linecap="round" stroke-linejoin="round"/><path stroke-linecap="round" stroke-linejoin="round" d="M15.139 1031.715c1.25-3.676 3.408-7.353 5.861-7.353 3.866 0 7 9.134 7 13a7 7 0 0 1-12.045 4.853"/></g></symbol><symbol viewBox="0 0 32 32" id="shopping-bag"><g transform="translate(0 -1020.362)"><path fill="none" stroke="currentColor" stroke-linecap="square" stroke-linejoin="round" stroke-width="2" d="M12 1031.362v-3c0-2.18 1.82-4 4-4 2.18 0 4 1.82 4 4v3"/><circle cx="12" cy="1035.362" r="1"/><circle cx="20" cy="1035.362" r="1"/><path fill="none" stroke="currentColor" stroke-linecap="round" stroke-linejoin="round" stroke-width="2" d="M10 1031.362h12c1.108 0 2.092.896 2 2l-1 12c-.092 1.104-.892 2-2 2H11c-1.108 0-1.908-.896-2-2l-1-12c-.092-1.104.892-2 2-2z"/></g></symbol><symbol viewBox="0 0 24 24" id="balance"><path fill="none" stroke="currentColor" d="M10.5 7.5H17M7 10.5h10M7 13.5h10M7 16.5h6.587"/><path fill="none" stroke="currentColor" stroke-linecap="round" stroke-width="2" d="M8.169 4H18c1.108 0 2 .892 2 2v9.635M15.709 20H6c-1.108 0-2-.892-2-2V8.684"/><path d="M17.5 13a4.5 4.5 0 0 0-4.5 4.5 4.5 4.5 0 0 0 4.5 4.5 4.5 4.5 0 0 0 4.5-4.5 4.5 4.5 0 0 0-4.5-4.5zm-.5 2.014h1V17h1.986v1H18v1.988h-1V18h-1.986v-1H17zM6.5 2A4.5 4.5 0 0 0 2 6.5 4.5 4.5 0 0 0 6.5 11 4.5 4.5 0 0 0 11 6.5 4.5 4.5 0 0 0 6.5 2zM4.023 5.977h5v1h-5z"/></symbol><symbol viewBox="0 0 24 24" id="cash"><g fill="none" stroke="currentColor" transform="translate(0 -1028.362)"><rect width="16" height="11" x="4" y="1035.362" stroke-linejoin="round" stroke-width="2" rx="1.882"/><path d="M14 1038.862h-2.5c-.804-.01-1 .441-1 1 0 .56.44 1 1 1h2c.56 0 1 .441 1 1 0 .56-.19 1.007-1 1H10M12.5 1044.385v-1.628M12.5 1037.366v1.496"/></g></symbol><symbol viewBox="0 0 24 24" id="credit-card"><g fill="none" stroke="currentColor" transform="translate(0 -1028.362)"><rect width="16" height="11" x="4" y="1035.362" stroke-linejoin="round" stroke-width="2" rx="1.882"/><path stroke-width="3" d="M4 1042.862h16"/><path d="M6 1039.862h5"/></g></symbol><symbol viewBox="0 0 24 24" id="check"><g fill="none" stroke="currentColor" transform="translate(0 -1028.362)"><rect width="16" height="11" x="4" y="1035.362" stroke-linejoin="round" stroke-width="2" rx="1.882"/><path d="M11.5 1037.862h6v2h-6zM6 1039.862h4M6 1041.862h12M6 1043.862h4"/></g></symbol><symbol viewBox="0 0 24 24" id="credit-note"><g fill="none" stroke="currentColor" transform="translate(0 -1028.362)"><path d="M8.032 1042.83h9M8.032 1045.83h9M14.035 1035.83l-2.245-.01c-.805-.01-1.258.448-1.258 1.007 0 .559.453 1.012 1.012 1.012.56 0 2-.025 2-.025.56 0 1.013.453 1.013 1.013 0 .559-.453 1.012-1.262 1.006h-3.25M12.532 1041.33v-1.628M12.532 1034.33v1.496"/><rect width="15" height="17" x="5" y="1032.362" stroke-width="2" rx="1.579"/></g></symbol><symbol viewBox="0 0 24 24" id="deposit-check"><g fill="none" stroke="currentColor"><path d="M2 18.5h20"/><path stroke-linejoin="round" stroke-width="2" d="M10.294 18.553l-6.75-6.75a1.878 1.878 0 0 1 0-2.661l5.117-5.117a1.878 1.878 0 0 1 2.662 0l8.652 8.652a1.878 1.878 0 0 1 0 2.662l-3.096 3.096"/><path d="M13.528 9.765l4.242 4.243-1.414 1.414-4.243-4.242zM8.224 7.29l2.828 2.83M6.81 8.705l8.485 8.485M5.396 10.12l2.828 2.828"/></g></symbol><symbol viewBox="0 0 24 24" id="deposit"><g fill="none" stroke="currentColor"><path stroke-linejoin="round" stroke-width="2" d="M10.312 18.571l-6.767-6.767a1.878 1.878 0 0 1 0-2.662L8.66 4.025a1.878 1.878 0 0 1 2.662 0l8.652 8.652a1.878 1.878 0 0 1 0 2.662l-3.181 3.181"/><path d="M14.588 12.24l-1.768-1.767c-.562-.576-1.019-.396-1.414 0a.991.991 0 0 0 0 1.414L12.82 13.3a.991.991 0 0 1 0 1.414c-.395.396-.846.577-1.414 0L8.931 12.24M9.622 15.085l1.152-1.151M14.585 10.122l-1.058 1.058M2 18.5h20"/></g></symbol><symbol viewBox="0 0 24 24" id="money-minus"><path fill="none" stroke="currentColor" stroke-width="2" d="M15.5 8h-5C8.906 7.98 8 8.892 8 10s.892 2 2 2h4c1.108 0 2 .892 2 2s-.896 2.012-2.5 2l-6-.023M12 19v-2.5M12 5v3"/><path fill="none" stroke="currentColor" stroke-linecap="square" stroke-linejoin="round" stroke-width="2" d="M15.246 20.397a9 9 0 1 1 5.125-5.083"/><path d="M17.5 13a4.5 4.5 0 0 0-4.5 4.5 4.5 4.5 0 0 0 4.5 4.5 4.5 4.5 0 0 0 4.5-4.5 4.5 4.5 0 0 0-4.5-4.5zM15 17h5v1h-5z"/></symbol><symbol viewBox="0 0 24 24" id="money-plus"><path fill="none" stroke="currentColor" stroke-width="2" d="M15.5 8h-5C8.906 7.98 8 8.892 8 10s.892 2 2 2h4c1.108 0 2 .892 2 2s-.896 2.012-2.5 2l-6-.023M12 19v-2.5M12 5v3"/><path fill="none" stroke="currentColor" stroke-linecap="square" stroke-linejoin="round" stroke-width="2" d="M15.246 20.397a9 9 0 1 1 5.125-5.083"/><path d="M17.5 13a4.5 4.5 0 0 0-4.5 4.5 4.5 4.5 0 0 0 4.5 4.5 4.5 4.5 0 0 0 4.5-4.5 4.5 4.5 0 0 0-4.5-4.5zm-.5 2h1v2h2v1h-2v2h-1v-2h-2v-1h2z"/></symbol><symbol viewBox="0 0 24 24" id="money"><g fill="none" stroke="currentColor" stroke-width="2" transform="translate(0 -1028.362)"><path d="M16 1036.362h-5.5c-1.594-.02-2.5.892-2.5 2s.892 2 2 2h4c1.108 0 2 .892 2 2 0 1.109-.896 2.012-2.5 2l-6.5-.023M12 1047.362v-2.5M12 1033.362v3"/><circle cx="12" cy="1040.362" r="9" stroke-linecap="square" stroke-linejoin="round"/></g></symbol><symbol viewBox="0 0 24 24" id="transfer"><g fill="none" stroke="currentColor" transform="translate(0 -1028.362)"><rect width="16" height="11" x="5" y="1035.362" stroke-linejoin="round" stroke-width="2" rx="1.882"/><path d="M15 1038.862h-2.5c-.804-.01-1 .441-1 1 0 .56.44 1 1 1h2c.56 0 1 .441 1 1 0 .56-.19 1.007-1 1H11M13.5 1044.385v-1.628M13.5 1037.366v1.496M9 1037.862H3M2 1039.862h6M1 1041.862h6"/></g></symbol><symbol viewBox="0 0 24 24" id="withdraw"><g fill="none" stroke="currentColor"><path stroke-linejoin="round" stroke-width="2" d="M18 6v10.118C18 17.16 17.16 18 16.118 18H8.882A1.878 1.878 0 0 1 7 16.118V6"/><path d="M14.5 12V9.5c.01-.804-.441-1-1-1-.56 0-1 .44-1 1v2c0 .56-.441 1-1 1-.56 0-1.006-.19-1-1V8M8.977 10.5h1.628M15.996 10.5H14.5M4 6.5h17"/></g></symbol><symbol viewBox="0 0 24 24" id="angle-down"><path fill="none" stroke="currentColor" stroke-width="2" d="M4.5 8.5l7 7 7-7"/></symbol><symbol viewBox="0 0 24 24" id="angle-expand"><g fill="none" stroke="currentColor" stroke-width="2"><path d="M4.5 9.5l7-7 7 7M4.5 14.5l7 7 7-7"/></g></symbol><symbol viewBox="0 0 24 24" id="angle-left"><path fill="none" stroke="currentColor" stroke-width="2" d="M15.5 5.5l-7 7 7 7"/></symbol><symbol viewBox="0 0 24 24" id="angle-right"><path fill="none" stroke="currentColor" stroke-width="2" d="M8.5 5.5l7 7-7 7"/></symbol><symbol viewBox="0 0 24 24" id="arrow-down"><g fill="none" stroke="currentColor" stroke-width="2"><path d="M12 19V4M5 12.5l7 7 7-7"/></g></symbol><symbol viewBox="0 0 24 24" id="angle-up"><path fill="none" stroke="currentColor" stroke-width="2" d="M4.5 15.5l7-7 7 7"/></symbol><symbol viewBox="0 0 24 24" id="arrow-left"><g fill="none" stroke="currentColor" stroke-width="2"><path d="M4.5 12H20M11.5 5l-7 7 7 7"/></g></symbol><symbol viewBox="0 0 24 24" id="arrow-right"><g fill="none" stroke="currentColor" stroke-width="2"><path d="M19.5 12H4M12.5 5l7 7-7 7"/></g></symbol><symbol viewBox="0 0 24 24" id="arrow-up"><g fill="none" stroke="currentColor" stroke-width="2"><path d="M12 5v15M5 11.5l7-7 7 7"/></g></symbol><symbol viewBox="0 0 24 24" id="directions"><g stroke="currentColor" stroke-linejoin="round" transform="translate(0 -1028.362)"><rect width="13.85" height="13.85" x="737.207" y="720.237" fill="none" stroke-linecap="round" stroke-width="2" ry="2" transform="rotate(45)"/><path fill="none" stroke-linecap="square" d="M14 1038.862h-3.54c-1.086 0-1.96.914-1.96 2v2"/><path fill-rule="evenodd" stroke-linecap="round" d="M11.5 1040.862l5-2-5-2z"/></g></symbol><symbol viewBox="0 0 24 24" id="delete"><g fill="none" stroke="currentColor" stroke-width="2"><path stroke-linecap="round" d="M8 6h11v12H8l-4-6z"/><path d="M10 9l6 6M16 9l-6 6"/></g></symbol><symbol viewBox="0 0 6.35 6.35" id="ellipsis-horizontal"><g stroke="currentColor" stroke-width=".265" transform="translate(0 -290.65)"><ellipse cx="3.175" cy="293.825" rx=".397" ry=".397"/><ellipse cx="1.587" cy="293.825" rx=".397" ry=".397"/><ellipse cx="4.762" cy="293.825" rx=".397" ry=".397"/></g></symbol><symbol viewBox="0 0 6.35 6.35" id="ellipsis-vertical"><g stroke="currentColor" stroke-width=".265" transform="translate(0 -290.65)"><ellipse cx="3.175" cy="293.825" rx=".397" ry=".397"/><ellipse cx="3.175" cy="295.412" rx=".397" ry=".397"/><ellipse cx="3.175" cy="292.237" rx=".397" ry=".397"/></g></symbol><symbol viewBox="0 0 24 24" id="history"><path fill-rule="evenodd" d="M10 10H4V4z"/><path fill="none" stroke="currentColor" stroke-linejoin="round" stroke-width="2" d="M6.18 8.11A7 7 0 1 1 5 12"/><path fill="none" stroke="currentColor" stroke-width="2" d="M12 7v5h3"/></symbol><symbol viewBox="0 0 24 24" id="maximize"><g fill="none" stroke="currentColor" stroke-width="2"><path stroke-linejoin="round" d="M13 4h5c1.108 0 2 .892 2 2v5m0 2v5c0 1.108-.892 2-2 2H6c-1.108 0-2-.892-2-2V6c0-1.108.892-2 2-2h5"/><path d="M19 5l-7 7"/></g></symbol><symbol viewBox="0 0 24 24" id="playback-play"><path fill="none" stroke="currentColor" stroke-linejoin="round" stroke-width="2" d="M6 5.577l12 6.462L6 18.5z"/></symbol><symbol viewBox="0 0 24 24" id="menu"><path fill="none" stroke="currentColor" stroke-width="2" d="M4 7h16M4 12h16M4 17h16"/></symbol><symbol viewBox="0 0 24 24" id="playback-pause"><g fill="none" stroke="currentColor" stroke-linecap="round" stroke-linejoin="round" stroke-width="2" transform="translate(0 -1028.362)"><rect width="3" height="13" x="14" y="1034.362" rx=".308"/><rect width="3" height="13" x="7" y="1034.362" rx=".308"/></g></symbol><symbol viewBox="0 0 24 24" id="refresh"><path fill-rule="evenodd" d="M10 10H4V4z"/><path fill="none" stroke="currentColor" stroke-linejoin="round" stroke-width="2" d="M6.18 8.11A7 7 0 1 1 5 12"/></symbol><symbol viewBox="0 0 24 24" id="facebook"><path d="M22.675 0H1.325C.593 0 0 .593 0 1.325v21.351C0 23.407.593 24 1.325 24H12.82v-9.294H9.692v-3.622h3.128V8.413c0-3.1 1.893-4.788 4.659-4.788 1.325 0 2.463.099 2.795.143v3.24l-1.918.001c-1.504 0-1.795.715-1.795 1.763v2.313h3.587l-.467 3.622h-3.12V24h6.116c.73 0 1.323-.593 1.323-1.325V1.325C24 .593 23.407 0 22.675 0z"/></symbol><symbol viewBox="0 0 24 24" id="instagram"><path d="M12 2.163c3.204 0 3.584.012 4.85.07 3.252.148 4.771 1.691 4.919 4.919.058 1.265.069 1.645.069 4.849 0 3.205-.012 3.584-.069 4.849-.149 3.225-1.664 4.771-4.919 4.919-1.266.058-1.644.07-4.85.07-3.204 0-3.584-.012-4.849-.07-3.26-.149-4.771-1.699-4.919-4.92-.058-1.265-.07-1.644-.07-4.849 0-3.204.013-3.583.07-4.849.149-3.227 1.664-4.771 4.919-4.919 1.266-.057 1.645-.069 4.849-.069zM12 0C8.741 0 8.333.014 7.053.072 2.695.272.273 2.69.073 7.052.014 8.333 0 8.741 0 12c0 3.259.014 3.668.072 4.948.2 4.358 2.618 6.78 6.98 6.98C8.333 23.986 8.741 24 12 24c3.259 0 3.668-.014 4.948-.072 4.354-.2 6.782-2.618 6.979-6.98.059-1.28.073-1.689.073-4.948 0-3.259-.014-3.667-.072-4.947-.196-4.354-2.617-6.78-6.979-6.98C15.668.014 15.259 0 12 0zm0 5.838a6.162 6.162 0 1 0 0 12.324 6.162 6.162 0 0 0 0-12.324zM12 16a4 4 0 1 1 0-8 4 4 0 0 1 0 8zm6.406-11.845a1.44 1.44 0 1 0 0 2.881 1.44 1.44 0 0 0 0-2.881z"/></symbol><symbol viewBox="0 0 24 24" id="pinterest"><path fill-rule="evenodd" d="M12 0C5.373 0 0 5.372 0 12c0 5.084 3.163 9.426 7.627 11.174-.105-.949-.2-2.405.042-3.441.218-.937 1.407-5.965 1.407-5.965s-.359-.719-.359-1.782c0-1.668.967-2.914 2.171-2.914 1.023 0 1.518.769 1.518 1.69 0 1.029-.655 2.568-.994 3.995-.283 1.194.599 2.169 1.777 2.169 2.133 0 3.772-2.249 3.772-5.495 0-2.873-2.064-4.882-5.012-4.882-3.414 0-5.418 2.561-5.418 5.207 0 1.031.397 2.138.893 2.738a.36.36 0 0 1 .083.345l-.333 1.36c-.053.22-.174.267-.402.161-1.499-.698-2.436-2.889-2.436-4.649 0-3.785 2.75-7.262 7.929-7.262 4.163 0 7.398 2.967 7.398 6.931 0 4.136-2.607 7.464-6.227 7.464-1.216 0-2.359-.631-2.75-1.378l-.748 2.853c-.271 1.043-1.002 2.35-1.492 3.146C9.57 23.812 10.763 24 12 24c6.627 0 12-5.373 12-12 0-6.628-5.373-12-12-12z" clip-rule="evenodd"/></symbol><symbol viewBox="0 0 24 24" id="snapchat"><path fill="currentColor" d="M5.829 4.533c-.6 1.344-.363 3.752-.267 5.436-.648.359-1.48-.271-1.951-.271-.49 0-1.075.322-1.167.802-.066.346.089.85 1.201 1.289.43.17 1.453.37 1.69.928.333.784-1.71 4.403-4.918 4.931a.498.498 0 0 0-.416.519c.056.975 2.242 1.357 3.211 1.507.099.134.179.7.306 1.131.057.193.204.424.582.424.493 0 1.312-.38 2.738-.144 1.398.233 2.712 2.215 5.235 2.215 2.345 0 3.744-1.991 5.09-2.215.779-.129 1.448-.088 2.196.058.515.101.977.157 1.124-.349.129-.437.208-.992.305-1.123.96-.149 3.156-.53 3.211-1.505a.498.498 0 0 0-.416-.519c-3.154-.52-5.259-4.128-4.918-4.931.236-.557 1.252-.755 1.69-.928.814-.321 1.222-.716 1.213-1.173-.011-.585-.715-.934-1.233-.934-.527 0-1.284.624-1.897.286.096-1.698.332-4.095-.267-5.438C17.036 1.986 14.511.7 11.987.7 9.479.7 6.973 1.968 5.829 4.533z"/></symbol><symbol viewBox="0 0 24 24" id="tumblr"><path fill-rule="evenodd" d="M19.512 17.489l-.096-.068h-3.274c-.153 0-.16-.467-.163-.622v-5.714a.1.1 0 0 1 .101-.101h3.82a.1.1 0 0 0 .101-.101V5.117a.1.1 0 0 0-.101-.1h-3.803a.1.1 0 0 1-.1-.101V.1a.1.1 0 0 0-.101-.1h-7.15a1.16 1.16 0 0 0-1.135 1.034C7.27 3.812 5.729 5.159 3.335 5.959l-.267.089L3 6.144v4.74a.1.1 0 0 0 .1.101H6v6.156C6 21.801 9.04 24 15.008 24c2.401 0 5.048-.855 5.835-1.891l.157-.208-1.488-4.412zm.339 4.258c-.75.721-2.554 1.256-4.028 1.281l-.165.001c-4.849 0-5.682-3.701-5.682-5.889v-7.039a.1.1 0 0 0-.1-.101H7.094a.1.1 0 0 1-.101-.101l-.024-3.06.064-.092c2.506-.976 3.905-2.595 4.273-5.593.021-.167.158-.171.159-.171h3.447c.055 0 .101.045.101.101V5.9a.1.1 0 0 0 .1.101h3.803a.1.1 0 0 1 .101.1v3.801a.1.1 0 0 1-.101.101h-3.819c-.056 0-.097.045-.097.101v6.705c.023 1.438.715 2.167 2.065 2.167.544 0 1.116-.126 1.685-.344a.099.099 0 0 1 .13.061l.995 2.95-.024.104z" clip-rule="evenodd"/></symbol><symbol viewBox="0 0 24 24" id="twitter"><path d="M24 4.557a9.83 9.83 0 0 1-2.828.775 4.932 4.932 0 0 0 2.165-2.724 9.864 9.864 0 0 1-3.127 1.195 4.916 4.916 0 0 0-3.594-1.555c-3.179 0-5.515 2.966-4.797 6.045A13.978 13.978 0 0 1 1.671 3.149a4.93 4.93 0 0 0 1.523 6.574 4.903 4.903 0 0 1-2.229-.616c-.054 2.281 1.581 4.415 3.949 4.89a4.935 4.935 0 0 1-2.224.084 4.928 4.928 0 0 0 4.6 3.419A9.9 9.9 0 0 1 0 19.54a13.94 13.94 0 0 0 7.548 2.212c9.142 0 14.307-7.721 13.995-14.646A10.025 10.025 0 0 0 24 4.557z"/></symbol><symbol viewBox="0 0 24 24" id="whatsapp"><path d="M.057 24l1.687-6.163a11.867 11.867 0 0 1-1.587-5.946C.16 5.335 5.495 0 12.05 0a11.817 11.817 0 0 1 8.413 3.488 11.824 11.824 0 0 1 3.48 8.414c-.003 6.557-5.338 11.892-11.893 11.892a11.9 11.9 0 0 1-5.688-1.448L.057 24zm6.597-3.807c1.676.995 3.276 1.591 5.392 1.592 5.448 0 9.886-4.434 9.889-9.885.002-5.462-4.415-9.89-9.881-9.892-5.452 0-9.887 4.434-9.889 9.884-.001 2.225.651 3.891 1.746 5.634l-.999 3.648 3.742-.981zm11.387-5.464c-.074-.124-.272-.198-.57-.347-.297-.149-1.758-.868-2.031-.967-.272-.099-.47-.149-.669.149-.198.297-.768.967-.941 1.165-.173.198-.347.223-.644.074-.297-.149-1.255-.462-2.39-1.475-.883-.788-1.48-1.761-1.653-2.059-.173-.297-.018-.458.13-.606.134-.133.297-.347.446-.521.151-.172.2-.296.3-.495.099-.198.05-.372-.025-.521-.075-.148-.669-1.611-.916-2.206-.242-.579-.487-.501-.669-.51l-.57-.01c-.198 0-.52.074-.792.372s-1.04 1.016-1.04 2.479 1.065 2.876 1.213 3.074c.149.198 2.095 3.2 5.076 4.487.709.306 1.263.489 1.694.626.712.226 1.36.194 1.872.118.571-.085 1.758-.719 2.006-1.413.248-.695.248-1.29.173-1.414z"/></symbol><symbol viewBox="0 0 24 24" id="youtube"><path d="M19.615 3.184c-3.604-.246-11.631-.245-15.23 0C.488 3.45.029 5.804 0 12c.029 6.185.484 8.549 4.385 8.816 3.6.245 11.626.246 15.23 0C23.512 20.55 23.971 18.196 24 12c-.029-6.185-.484-8.549-4.385-8.816zM9 16V8l8 3.993L9 16z"/></symbol><symbol viewBox="0 0 24 24" id="help"><circle cx="12" cy="16" r="1"/><circle cx="12" cy="12" r="9" fill="none" stroke="currentColor" stroke-linejoin="round" stroke-width="2"/><path fill="none" stroke="currentColor" stroke-width="2" d="M12 14v-.5s0-1.5 2-2.5 1.5-4-1.5-4-3 2.5-3 2.5v.5"/></symbol><symbol viewBox="0 0 24 24" id="checked"><path fill="none" stroke="currentColor" stroke-width="2" d="M16.516 8.934l-5.456 5.768-2.964-2.804"/><circle cx="12" cy="12" r="9" fill="none" stroke="currentColor" stroke-width="2"/></symbol><symbol viewBox="0 0 24 24" id="error"><path fill="none" stroke="currentColor" stroke-width="2" d="M7.952 16.048l8.125-8.125M16.091 16.034L7.91 7.85"/><circle cx="12" cy="12" r="9" fill="none" stroke="currentColor" stroke-width="2"/></symbol><symbol viewBox="0 0 24 24" id="information"><circle cx="12" cy="12" r="9" fill="none" stroke="currentColor" stroke-linecap="square" stroke-linejoin="round" stroke-width="2"/><circle cx="12" cy="-8" r="1" transform="scale(1 -1)"/><path fill="none" stroke="currentColor" stroke-width="2" d="M12 17v-6"/></symbol><symbol viewBox="0 0 24 24" id="warning"><path d="M11.963 4.007a.706.706 0 0 1 .653.359h.001l8.3 14.547c.286.501-.045 1.08-.617 1.08H3.7c-.572 0-.903-.579-.617-1.08l8.3-14.547h.001a.706.706 0 0 1 .579-.36z" style="line-height:normal;font-variant-ligatures:normal;font-variant-position:normal;font-variant-caps:normal;font-variant-numeric:normal;font-variant-alternates:normal;font-feature-settings:normal;text-indent:0;text-align:start;text-decoration-line:none;text-decoration-style:solid;text-decoration-color:#000;text-transform:none;text-orientation:mixed;white-space:normal;shape-padding:0;isolation:auto;mix-blend-mode:normal;solid-color:#000;solid-opacity:1" fill="none" stroke="currentColor" stroke-linecap="square" stroke-linejoin="round" stroke-width="2"/><circle cx="12" cy="17" r="1"/><path fill="none" stroke="currentColor" stroke-width="2" d="M12 15V8"/></symbol><symbol viewBox="0 0 24 24" id="clock"><g fill="none" stroke="currentColor" transform="translate(0 -1028.362)"><circle cx="12" cy="1040.362" r="9" stroke-linejoin="round" stroke-width="2"/><path d="M11.5 1034.362v6.5l4.5 4"/></g></symbol><symbol viewBox="0 0 24 24" id="clock-cronometer"><g transform="translate(0 -1028.362)"><path fill="none" stroke="currentColor" d="M12 1035.362v6M9 1030.862h6M12 1031.362v1"/><circle cx="12" cy="1041.362" r="2"/><circle cx="12" cy="1041.362" r="8" fill="none" stroke="currentColor" stroke-linecap="round" stroke-width="2"/></g></symbol><symbol viewBox="0 0 24 24" id="cocktail"><path fill="none" stroke="currentColor" stroke-linejoin="round" stroke-width="2" d="M13 14.5L6 6h14z"/><path fill="none" stroke="currentColor" stroke-width="2" d="M17 21H9M13 14.5l.052 6.58"/><path fill="none" stroke="currentColor" d="M17 8.5h-3.5M10.5 8.5H8"/><path fill="none" stroke="currentColor" stroke-linejoin="round" d="M13.5 8a1.5 1.5 0 1 1-3-.001 1.5 1.5 0 0 1 3 .001z"/><path fill="none" stroke="currentColor" d="M9 3.5s2.702-.481 3 3"/></symbol><symbol viewBox="0 0 24 24" id="food"><g fill="none" stroke="currentColor" stroke-width="2"><path stroke-linejoin="round" d="M5.958 10.38L5 19c-.122 1.098.895 2 2 2s2.122-.902 2-2l-.958-8.62"/><path stroke-linecap="round" stroke-linejoin="round" d="M4 3v4.57a3 3 0 0 0 1.935 2.806m2.079.019A3.001 3.001 0 0 0 10 7.57V3"/><path stroke-linecap="round" d="M7 3v4.5"/><path stroke-linejoin="round" d="M15.921 10.711L15 19c-.122 1.098.895 2 2 2s2.122-.902 2-2l-.921-8.292"/><path stroke-linecap="round" stroke-linejoin="round" d="M15.91 10.728C14.792 10.147 14 8.697 14 7c0-2.209 1.343-4 3-4 1.656 0 3 1.791 3 4 0 1.702-.798 3.156-1.922 3.734"/></g></symbol><symbol viewBox="0 0 24 24" id="device-projector"><g fill="none" stroke="currentColor"><path stroke-linejoin="round" stroke-width="2" d="M20 7v9c0 .554-.446 1-1 1H5c-.554 0-1-.446-1-1V7"/><path d="M12 17v5"/><path stroke-linecap="square" stroke-width="2" d="M4 4h16c.554 0 1 .446 1 1v1c0 .554-.446 1-1 1H4c-.554 0-1-.446-1-1V5c0-.554.446-1 1-1z" opacity=".93"/><path d="M9 21.293l3-3 3 3"/></g></symbol><symbol viewBox="0 0 24 24" id="gear"><g fill="none" stroke="currentColor" stroke-linecap="square" stroke-width="2"><path stroke-linejoin="round" d="M10.579 3l-.222 2.096a7.105 7.105 0 0 0-2.074.865L6.64 4.632l-2.009 2.01 1.329 1.64a7.105 7.105 0 0 0-.866 2.077L3 10.579v2.842l2.096.22a7.105 7.105 0 0 0 .859 2.084l-1.323 1.634 2.01 2.01 1.637-1.326a7.105 7.105 0 0 0 2.08.86l.22 2.097h2.842l.222-2.096a7.105 7.105 0 0 0 2.074-.864l1.642 1.328 2.01-2.01-1.33-1.64a7.105 7.105 0 0 0 .867-2.077l2.094-.22V10.58l-2.096-.22a7.105 7.105 0 0 0-.859-2.084l1.323-1.634-2.01-2.009-1.637 1.325a7.105 7.105 0 0 0-2.08-.86L13.421 3z"/><path d="M12 10a2 2 0 0 1 2 2 2 2 0 0 1-2 2 2 2 0 0 1-2-2 2 2 0 0 1 2-2z"/></g></symbol><symbol viewBox="0 0 24 24" id="music"><g stroke="currentColor"><path stroke-linejoin="round" d="M7.36 15.44c.458.937-.227 2.17-1.53 2.755-1.304.585-2.732.3-3.19-.636-.458-.936.227-2.169 1.53-2.754 1.304-.585 2.732-.3 3.19.636z"/><path fill="none" stroke-linejoin="round" stroke-width="2" d="M7 16V5.5l8-3V13"/><path fill="none" d="M7.5 8.5l8-3"/><path fill="none" stroke-linecap="round" stroke-linejoin="round" stroke-width="2" d="M21 14.5s.515-2.629-1-4c-1.515-1.371-2-3-2-3V19"/><path stroke-linejoin="round" d="M15.36 12.44c.458.937-.227 2.17-1.53 2.755-1.304.585-2.732.3-3.19-.636-.458-.936.227-2.169 1.53-2.754 1.304-.585 2.732-.3 3.19.636zM18.36 18.44c.458.937-.227 2.17-1.53 2.755-1.304.585-2.732.3-3.19-.636-.458-.936.227-2.169 1.53-2.754 1.304-.585 2.732-.3 3.19.636z"/></g></symbol><symbol viewBox="0 0 24 24" id="phone"><path fill="none" stroke="currentColor" stroke-width="2" d="M17.6 20C10.09 20 4 13.91 4 6.4a3.402 3.402 0 0 1 4.067-3.334c.28.055.51.255.607.523l1.495 4.173a.544.544 0 0 1-.206.632L8.319 9.513a.548.548 0 0 0-.198.659c1.065 2.67 3.265 4.801 5.965 5.805a.274.274 0 0 0 .322-.107l1.199-1.822a.544.544 0 0 1 .638-.214l4.169 1.494a.81.81 0 0 1 .52.604A3.392 3.392 0 0 1 21 16.6c0 1.876-1.523 3.4-3.4 3.4z"/></symbol><symbol viewBox="0 0 24 24" id="shopping-cart"><g transform="translate(0 -1028.362)"><path fill="none" stroke="currentColor" stroke-linejoin="round" stroke-width="2" d="M6 1035.362h12.015s.973.129.751 1.078l-.828 3.825c-.222.828-.916 1.097-.916 1.097H7.7l-2.7-8H2M18.06 1044.362H8.5c-.831 0-1.5-.669-1.5-1.5v-.033c0-.83.669-1.467 1.5-1.467h3.56"/><circle cx="8.5" cy="1047.862" r="1.5"/><circle cx="16.5" cy="1047.862" r="1.5"/></g></symbol><symbol viewBox="0 0 24 24" id="shopping-bag"><g transform="translate(0 -1028.362)"><path fill="none" stroke="currentColor" stroke-linejoin="round" stroke-width="2" d="M7 1036.362h10c.554 0 1.055.449 1 1l-1 10c-.055.551-.446 1-1 1H8c-.554 0-.945-.449-1-1l-1-10c-.055-.551.446-1 1-1z"/><path fill="none" stroke="currentColor" stroke-linecap="square" stroke-linejoin="round" stroke-width="2" d="M9 1036.362v-2a3 3 0 1 1 6 0v1.856"/><circle cx="9" cy="1039.362" r="1"/><circle cx="15" cy="1039.362" r="1"/></g></symbol><symbol viewBox="0 0 24 24" id="star"><path fill="none" stroke="currentColor" stroke-linecap="round" stroke-linejoin="round" stroke-width="2" d="M17.62 20.898c-.506.39-4.946-3.032-5.574-3.028-.628 0-5.028 3.483-5.538 3.1-.51-.384 1.221-5.871 1.023-6.496-.198-.624-4.711-3.939-4.521-4.566.19-.628 5.7-.596 6.206-.987.505-.39 2.116-5.917 2.743-5.921.628 0 2.302 5.502 2.813 5.886.51.384 6.02.282 6.217.907.198.626-4.277 3.997-4.468 4.624-.19.627 1.605 6.092 1.099 6.482z"/></symbol><symbol viewBox="0 0 24 24" id="ticket-2"><g fill="none" stroke="currentColor"><path d="M10.586 7.55L12 8.965M12.707 9.672l1.414 1.414M14.828 11.793l1.415 1.414"/><path stroke-linecap="round" stroke-linejoin="round" stroke-width="2" d="M3.161 14.975l1.45 1.45a2.5 2.5 0 0 1 3.146.318 2.5 2.5 0 0 1 .315 3.143l1.453 1.453L20.84 10.025l-1.45-1.45a2.5 2.5 0 0 1-3.146-.318 2.5 2.5 0 0 1-.315-3.143l-1.453-1.453z"/></g></symbol><symbol viewBox="0 0 24 24" id="ticket"><g fill="none" stroke="currentColor"><path d="M14.5 8v2M14.5 11v2M14.5 14v2"/><path stroke-linecap="round" stroke-linejoin="round" stroke-width="2" d="M4 8v2.05a2.5 2.5 0 0 1 2 2.45 2.5 2.5 0 0 1-2 2.445V17h16v-2.05a2.5 2.5 0 0 1-2-2.45 2.5 2.5 0 0 1 2-2.445V8z"/></g></symbol><symbol viewBox="0 0 24 24" id="theater"><path fill="none" stroke="currentColor" stroke-linecap="round" stroke-linejoin="round" stroke-width="2" d="M6.72 4.782c-2.668.714-4.826 1.31-4.066 4.148l1.224 4.566c.76 2.837 3.538 4.557 6.206 3.842 2.667-.714 4.213-3.594 3.453-6.43L12.314 6.34c-.76-2.837-2.927-2.274-5.595-1.56z"/><path fill="none" stroke="currentColor" stroke-linecap="round" d="M6.582 9.1l-.901 1.466M8.997 8.453l1.514.818"/><path fill="none" stroke="currentColor" stroke-linecap="round" stroke-linejoin="round" d="M6.87 14.113c.174-.884.866-1.651 1.837-1.911s1.953.057 2.546.735"/><path fill="none" stroke="currentColor" stroke-linecap="round" stroke-linejoin="round" stroke-width="2" d="M10.779 17.098c.52 1.554 1.733 2.803 3.367 3.24 2.667.715 5.446-1.005 6.206-3.842l1.223-4.567c.76-2.837-1.397-3.433-4.065-4.148-2.001-.536-3.721-.987-4.776.02"/><path fill="none" stroke="currentColor" stroke-linecap="round" d="M15.232 11.453l-1.207-.323M17.647 12.1l1.208.324"/><path fill="none" stroke="currentColor" stroke-linecap="round" stroke-linejoin="round" d="M13.328 14.622c.173.885.866 1.651 1.837 1.912.97.26 1.953-.057 2.546-.736"/></symbol><symbol viewBox="0 0 24 24" id="trees"><g fill="none" stroke="currentColor" stroke-width="2" transform="translate(0 -1028.362)"><circle cx="9" cy="1040.362" r="5" stroke-linecap="round" stroke-linejoin="round"/><path d="M9 1042.362v7"/><path stroke-linecap="round" stroke-linejoin="round" d="M11.051 1035.778c.915-2.308 2.344-4.416 3.949-4.416 2.761 0 5 6.239 5 9a5 5 0 0 1-8.038 3.972"/><path d="M15 1049.362v-4"/></g></symbol></svg>