<svg xmlns="http://www.w3.org/2000/svg" viewBox="0 0 24 24"><g fill="none" stroke="#000" transform="translate(0 -1028.362)"><rect width="19.004" height="13.004" x="1.5" y="1032.858" stroke-linejoin="round" rx="1.152"/><rect width="6" height="3" x="11.5" y="1035.862" stroke-linejoin="round" rx="0"/><path d="M4 1042.862h6M4 1040.862h14"/><path stroke-linejoin="round" d="M21.353 1034.858a1.15 1.15 0 0 1 1.151 1.152v10.7a1.15 1.15 0 0 1-1.151 1.152H4.652a1.15 1.15 0 0 1-1.152-1.152"/><path stroke-width=".969" d="M12.343 1043.192c.532-.563 1.578-.94 1.875-.814.297.127-.018.669-.006.979.011.31.167.64.455.48.467-.323.82-.763 1.217-1.111.197-.173.654-.426.777-.106.1.26-.08.553-.088.832-.005.187.487.735.947-.082.46-.817 1.415-.67 1.415-.67"/></g></svg>