<svg xmlns="http://www.w3.org/2000/svg" viewBox="0 0 24 24"><g fill="none" stroke="#000" transform="translate(0 -1028.362)"><path d="M13 1036.862h-2.265c-.804-.01-1.235.441-1.235 1 0 .56.43 1.032.99 1.032.559 0 2-.032 2-.032a1 1 0 0 1 1.01 1c0 .559-.451 1.006-1.26 1H9M11.5 1042.362v-1.5M11.5 1035.362v1.5"/><circle cx="11.5" cy="1038.862" r="5" stroke-linecap="square"/><path stroke-linecap="round" d="M14.536 1043.008c3.477.346 5.964 1.27 5.964 2.354 0 1.38-4.03 2.5-9 2.5s-9-1.12-9-2.5c0-1.084 2.486-2.007 5.961-2.354"/><path d="M2.5 1045.362v5M20.5 1045.362v5M6 1045.362h11M9.5 1035.362v-3M11.5 1034.362v-3"/></g></svg>