<svg xmlns="http://www.w3.org/2000/svg" viewBox="0 0 24 24"><g fill="none" transform="translate(0 -1028.362)"><path stroke="#000" stroke-linejoin="round" stroke-width=".963" d="M4.481 1033.844h16.038c.554 0 1 .446 1 1v10.037c0 .554-.446 1-1 1H4.48c-.554 0-1-.446-1-1v-10.037c0-.554.446-1 1-1z"/><circle cx="12.5" cy="1039.862" r="4" stroke="#171010" stroke-linecap="square" opacity=".93"/><path stroke="#171010" d="M7.5 1033.362a4.5 4.5 0 0 1-4.5 4.5M22 1037.862a4.5 4.5 0 0 1-4.5-4.5M3 1041.862a4.5 4.5 0 0 1 4.5 4.5M17.5 1046.362a4.5 4.5 0 0 1 4.5-4.5" opacity=".93"/></g></svg>