<svg xmlns="http://www.w3.org/2000/svg" viewBox="0 0 24 24"><g fill="none" stroke="#000" transform="translate(0 -1028.362)"><rect width="19.037" height="12.037" x="2.481" y="1033.844" stroke-linejoin="round" stroke-width=".963" rx="1.154"/><rect width="6.009" height="2.009" x="12.496" y="1036.858" stroke-linejoin="round" rx="0"/><path d="M5 1042.862h6M5 1040.862h14M5 1038.862h6"/><path stroke-width=".969" d="M12.343 1043.192c.532-.563 1.578-.94 1.875-.814.297.127-.018.669-.006.979.011.31.167.64.455.48.467-.323.82-.763 1.217-1.111.197-.173.654-.426.777-.106.1.26-.08.553-.088.832-.005.187.487.735.947-.082.46-.817 1.415-.67 1.415-.67"/></g></svg>