<svg xmlns="http://www.w3.org/2000/svg" viewBox="0 0 24 24"><g fill="none" stroke="#000" transform="translate(0 -1028.362)"><path stroke-width="1.046" d="M16 1035.862h-5c-1.594-.02-2.5.892-2.5 2 0 1.109.892 2 2 2h4c1.108 0 2 .892 2 2M14 1043.862l-6-.023"/><path d="M12.5 1046.362v-2.5M12.5 1033.362v3"/><path stroke-linejoin="round" d="M15.364 1049.249a9.478 9.478 0 0 1-3.365.613 9.499 9.499 0 1 1 9.499-9.499 9.48 9.48 0 0 1-.576 3.265"/><ellipse cx="17.5" cy="1045.862" stroke-linejoin="round" rx="4" ry="4"/><path stroke-width=".999" d="M15 1045.862h5"/></g></svg>