<svg xmlns="http://www.w3.org/2000/svg" viewBox="0 0 24 24"><g fill="none" stroke="#000" transform="translate(0 -1028.362)"><circle cx="10" cy="1035.362" r="4.5" stroke-linejoin="round"/><path stroke-linejoin="round" d="M14.326 1049.398c-1.216.31-2.71.503-4.326.503-4.078 0-7.385-1.231-7.385-2.462a7.385 7.385 0 0 1 10.853-6.521M14.14 1034.042a3.31 3.31 0 1 1 2.934 5.872m-1.815.094a3.317 3.317 0 0 1-2.218-1.74"/><path d="M18.005 1042.86l-2.245-.01c-.805-.01-1.258.447-1.258 1.006 0 .56.453 1.013 1.012 1.013.56 0 2-.025 2-.025.56 0 1.013.453 1.013 1.012 0 .56-.453 1.013-1.262 1.007h-3.25M16.5 1048.362v-1.628M16.502 1041.36v1.496"/><circle cx="16.5" cy="1044.862" r="5" stroke-linecap="square" stroke-linejoin="round"/></g></svg>