<svg xmlns="http://www.w3.org/2000/svg" viewBox="0 0 24 24"><g fill="none" stroke="#000" transform="translate(0 -1028.362)"><rect width="17.004" height="10.004" x="4.523" y="1030.859" stroke-linejoin="round" rx="1.031"/><path d="M15.003 1033.885l-2.245-.01c-.805-.01-1.258.447-1.258 1.006 0 .56.453 1.013 1.013 1.013.559 0 1-.025 1-.025.559 0 1.012.453 1.012 1.012 0 .56-.453 1.013-1.262 1.007h-2.25M12.5 1039.385v-1.628M13.5 1032.385v1.496M8.29 1043.909l3 3-3 3M10.937 1046.909h-6.95"/><circle cx="16.5" cy="1046.862" r="3.025" stroke-linejoin="round" stroke-width=".951"/><path d="M14 1045.862h5M14 1047.862h5M7 1032.862H3M2 1034.862h4M1 1036.862h3"/></g></svg>