<svg xmlns="http://www.w3.org/2000/svg" viewBox="0 0 24 24"><g fill="none" stroke="#000" transform="translate(0 -1028.362)"><rect width="17" height="10" x="4.5" y="1031.862" stroke-linejoin="round" rx="1.03"/><path d="M14.98 1034.885l-2.245-.01c-.804-.01-1.258.447-1.258 1.006 0 .56.454 1.013 1.013 1.013.559 0 1-.025 1-.025.559 0 1.012.453 1.012 1.012 0 .56-.453 1.013-1.262 1.007h-2.25M12.477 1040.385v-1.628M13.477 1033.385v1.496M13.146 1043.909l3 3-3 3M16.146 1046.909h-9M7 1033.862H3M2 1035.862h4M1 1037.862h3"/></g></svg>