<svg xmlns="http://www.w3.org/2000/svg" viewBox="0 0 24 24"><g fill="none" stroke="#000" transform="translate(0 -1028.362)"><rect width="17" height="10" x="4.5" y="1030.862" stroke-linejoin="round" rx="1.03"/><path d="M14.98 1033.885l-2.245-.01c-.804-.01-1.258.447-1.258 1.006 0 .56.454 1.013 1.013 1.013.559 0 1-.025 1-.025.559 0 1.012.453 1.012 1.012 0 .56-.453 1.013-1.262 1.007h-2.25M12.477 1039.385v-1.628M13.477 1032.385v1.496M8.29 1043.909l3 3-3 3M10.937 1046.909h-6.95"/><circle cx="16.5" cy="1044.862" r="2" stroke-linejoin="round"/><path stroke-linejoin="round" d="M13.498 1049.691c0-1.563 1.344-2.83 3.002-2.83 1.658 0 3.002 1.267 3.002 2.83 0 1.564-6.004 1.564-6.004 0z"/><path d="M7 1032.862H3M2 1034.862h4M1 1036.862h3"/></g></svg>