<svg xmlns="http://www.w3.org/2000/svg" viewBox="0 0 24 24"><g transform="translate(0 -1028.362)"><rect width="17.004" height="10.004" x="3.523" y="1030.859" fill="none" stroke="#000" stroke-linejoin="round" rx="1.031"/><g fill="none" stroke="#000"><path d="M14.003 1033.885l-2.245-.01c-.805-.01-1.258.447-1.258 1.006 0 .56.453 1.013 1.013 1.013.559 0 1-.025 1-.025.559 0 1.012.453 1.012 1.012 0 .56-.453 1.013-1.262 1.007h-2.25M11.5 1039.385v-1.628M12.5 1032.385v1.496"/></g><g fill="none" stroke="#000"><path d="M8.29 1043.909l3 3-3 3M10.937 1046.909h-6.95"/></g><path d="M17.596 1042.362l-3.677 5.25h2.206l-1.029 3.75 3.823-5.25h-2.205z" style="marker:none"/></g></svg>