<svg xmlns="http://www.w3.org/2000/svg" viewBox="0 0 24 24"><g fill="none" stroke="#000" transform="translate(0 -1028.362)"><path stroke-linejoin="round" d="M13.834 1047.848H3.543c-.57 0-1.029-.459-1.029-1.029v-14.914c0-.57.459-1.028 1.029-1.028h14.914c.57 0 1.028.458 1.028 1.028v10.209"/><path d="M6 1040.862h10.5M6 1043.862h6.5"/><circle cx="7.867" cy="1034.28" r="1.424" stroke-linejoin="round" stroke-width=".988"/><path stroke-linejoin="round" stroke-width=".988" d="M10.24 1038.077c0 .396-1.063.791-2.373.791-1.31 0-2.373-.395-2.373-.79a2.373 2.373 0 1 1 4.746 0z"/><ellipse cx="16.5" cy="1044.862" stroke-linejoin="round" rx="4" ry="4"/><circle cx="14.121" cy="1034.28" r="1.424" stroke-linejoin="round" stroke-width=".988"/><path stroke-linejoin="round" stroke-width=".988" d="M16.494 1038.077c0 .396-1.063.791-2.373.791-1.31 0-2.373-.395-2.373-.79a2.373 2.373 0 1 1 4.746 0z"/><path d="M19 1047.362l3 3"/></g></svg>