<svg xmlns="http://www.w3.org/2000/svg" viewBox="0 0 32 32"><path fill="none" stroke="#000" stroke-linecap="round" stroke-linejoin="round" stroke-width="2" d="M9.286 6.404c-3.32.89-6.005 1.632-5.059 5.162l1.523 5.682c.946 3.531 4.403 5.672 7.723 4.783 3.32-.89 5.243-4.473 4.297-8.003l-1.522-5.683c-.946-3.53-3.643-2.83-6.962-1.94z"/><path fill="none" stroke="#000" stroke-linecap="round" d="M9.115 11.779l-1.122 1.823M12.12 10.974l1.884 1.018"/><path fill="none" stroke="#000" stroke-linecap="round" stroke-linejoin="round" d="M9.473 18.017c.216-1.1 1.078-2.055 2.287-2.379 1.208-.324 2.43.071 3.168.915"/><path fill="none" stroke="#000" stroke-linecap="round" stroke-linejoin="round" stroke-width="2" d="M14.338 21.73c.647 1.935 2.157 3.49 4.19 4.034 3.319.89 6.776-1.252 7.722-4.782l1.523-5.683c.946-3.53-1.74-4.272-5.059-5.161-2.49-.668-4.63-1.229-5.944.025"/><path fill="none" stroke="#000" stroke-linecap="round" d="M19.88 14.707l-1.503-.403M22.885 15.512l1.502.403"/><path fill="none" stroke="#000" stroke-linecap="round" stroke-linejoin="round" d="M17.51 18.65c.216 1.1 1.077 2.055 2.286 2.38 1.208.323 2.43-.072 3.168-.916"/></svg>