<svg xmlns="http://www.w3.org/2000/svg" viewBox="0 0 24 24"><path fill="none" stroke="#000" stroke-linecap="round" stroke-linejoin="round" d="M8.354 2.835c.947-.386 1.343-.043 1.883.275m3.146-.318c.386-.26.779-.438 1.546-.187.332.109.56.24.726.391m2.352 2.73c.818.191 1.447-.104 2.106.96.895 1.442-.417 1.737-.066 3.4.35 1.664 1.668 1.396 1.433 3.08-.236 1.685-1.429 1.061-2.222 2.563-.793 1.501.387 2.15-.868 3.287h0c-1.256 1.138-1.772-.112-3.338.525s-1.076 1.897-2.764 1.956c-1.688.059-1.285-1.233-2.891-1.759-1.606-.526-2.035.757-3.366-.29-1.33-1.047-.198-1.776-1.092-3.219-.895-1.442-2.042-.737-2.393-2.4-.351-1.665.982-1.49 1.217-3.174C4 8.971 2.67 8.77 3.463 7.267c.685-1.297 1.457-.73 2.463-1.284"/><path fill="none" stroke="#000" stroke-linecap="round" stroke-linejoin="round" d="M15.027 6.894c.091.16.222.323.429.486.91.717 1.485-.008 2.097.98.612.987-.286 1.189-.046 2.328.24 1.138 1.143.955.981 2.108-.16 1.153-.978.726-1.52 1.754-.544 1.027.264 1.47-.595 2.25h0c-.86.778-1.213-.077-2.285.359-1.072.435-.736 1.298-1.891 1.338-1.156.04-.88-.843-1.98-1.203-1.1-.36-1.393.518-2.303-.199-.911-.717-.136-1.216-.748-2.203-.613-.987-1.398-.505-1.638-1.643-.24-1.139.672-1.02.833-2.172.161-1.153-.748-1.291-.205-2.319S7.32 8.413 8.18 7.634c.172-.155.285-.307.364-.454"/><circle cx="12" cy="5" r="2.5" fill="none" stroke="#000" stroke-linecap="round" stroke-linejoin="round"/><path fill="none" stroke="#000" d="M9.979 3.444C8.237 3.05 6 2.78 6 4v3c0 1.224 2.249-.05 3.993-.448M13.88 3.477C15.64 3.065 18 2.745 18 4v3c0 1.26-2.382-.068-4.144-.483"/></svg>