<svg xmlns="http://www.w3.org/2000/svg" viewBox="0 0 24 24"><g transform="translate(0 -1028.362)"><path fill="none" stroke="#000" stroke-linecap="round" stroke-linejoin="round" d="M5.688 1046.055a8.5 8.5 0 1 1 12.584.046"/><rect width="15" height="2" x="4.5" y="1047.862" fill="none" stroke="#000" stroke-linecap="round" stroke-linejoin="round" rx="1.071"/><rect width="13" height="2" x="5.5" y="1045.862" fill="none" stroke="#000" stroke-linecap="round" stroke-linejoin="round" rx=".929"/><path fill="none" stroke="#000" stroke-linecap="round" stroke-linejoin="round" d="M10.116 1034.14a6.5 6.5 0 0 1 1.884-.278m-6.5 6.5a6.486 6.486 0 0 1 3.083-5.53"/><path fill="none" stroke="#000" stroke-linejoin="round" d="M12 1039.362l4 3.5h-1.5v3h-5v-3H8z"/><path fill="none" stroke="#000" d="M13 1035.362l3 3M16 1035.362l-3 3"/><circle cx="17.5" cy="1038.862" r=".5"/><circle cx="15.5" cy="1040.862" r=".5"/><circle cx="11.5" cy="1036.862" r=".5"/><circle cx="17.5" cy="1036.862" r=".5"/></g></svg>