<svg xmlns="http://www.w3.org/2000/svg" viewBox="0 0 24 24"><g fill="none" stroke="#000" transform="translate(0 -1028.362)"><path stroke-linejoin="round" d="M19.5 1038.862v9c0 .554-.446 1-1 1h-12c-.554 0-1-.446-1-1v-9"/><path d="M12.5 1034.862v13.5"/><rect width="16" height="4" x="4.5" y="1034.862" stroke-linejoin="round" rx="1"/><path stroke-linejoin="round" d="M16.5 1033.362c0 .829-.895 1.5-2 1.5s-2 .329-2-.5c0-.828.895-2.5 2-2.5s2 .672 2 1.5zM8.5 1033.362c0 .829.895 1.5 2 1.5s2 .329 2-.5c0-.828-.895-2.5-2-2.5s-2 .672-2 1.5z"/></g></svg>