<svg xmlns="http://www.w3.org/2000/svg" viewBox="0 0 24 24"><path style="line-height:normal;font-variant-ligatures:normal;font-variant-position:normal;font-variant-caps:normal;font-variant-numeric:normal;font-variant-alternates:normal;font-feature-settings:normal;text-indent:0;text-align:start;text-decoration-line:none;text-decoration-style:solid;text-decoration-color:#000;text-transform:none;text-orientation:mixed;white-space:normal;shape-padding:0;isolation:auto;mix-blend-mode:normal;solid-color:#000;solid-opacity:1" d="M12 2C9.244 2 7 4.245 7 7c0 1.886 1.064 3.512 2.611 4.363C6.363 12.381 4 15.42 4 19c0 .536.338.97.783 1.314.445.344 1.037.631 1.75.877C7.96 21.684 9.88 22 12 22c2.121 0 4.04-.316 5.467-.809.713-.246 1.305-.533 1.75-.877.445-.343.783-.778.783-1.314 0-3.58-2.363-6.619-5.611-7.637C15.936 10.512 17 8.886 17 7c0-2.755-2.244-5-5-5z"/></svg>