<svg xmlns="http://www.w3.org/2000/svg" viewBox="0 0 24 24"><path fill="none" stroke="#000" d="M16.516 8.934l-5.456 5.768-2.964-2.804"/><path fill="none" stroke="#000" stroke-linecap="round" stroke-linejoin="round" stroke-width=".884" d="M15.702 1048.26c-.872.624-2.402-.537-3.447-.295-1.045.242-1.909 1.957-2.967 1.78-1.058-.176-1.319-2.078-2.229-2.646-.91-.568-2.733.034-3.357-.839-.623-.873.538-2.402.296-3.447-.242-1.045-1.957-1.909-1.78-2.967.176-1.058 2.078-1.319 2.646-2.229.568-.91-.034-2.733.838-3.357.873-.623 2.403.538 3.448.296 1.045-.242 1.909-1.957 2.967-1.781 1.058.176 1.318 2.079 2.228 2.647.91.568 2.734-.034 3.357.838.624.873-.537 2.403-.295 3.448.242 1.045 1.957 1.908 1.78 2.967-.176 1.058-2.078 1.318-2.646 2.228-.568.91.034 2.734-.839 3.357z" transform="matrix(1.14206 -.18394 .17582 1.09162 -183.436 -1122.684)"/></svg>