<svg xmlns="http://www.w3.org/2000/svg" viewBox="0 0 24 24"><path fill-rule="evenodd" d="M19.512 17.489l-.096-.068h-3.274c-.153 0-.16-.467-.163-.622v-5.714a.1.1 0 0 1 .101-.101h3.82a.1.1 0 0 0 .101-.101V5.117a.1.1 0 0 0-.101-.1h-3.803a.1.1 0 0 1-.1-.101V.1a.1.1 0 0 0-.101-.1h-7.15a1.16 1.16 0 0 0-1.135 1.034C7.27 3.812 5.729 5.159 3.335 5.959l-.267.089L3 6.144v4.74a.1.1 0 0 0 .1.101H6v6.156C6 21.801 9.04 24 15.008 24c2.401 0 5.048-.855 5.835-1.891l.157-.208-1.488-4.412zm.339 4.258c-.75.721-2.554 1.256-4.028 1.281l-.165.001c-4.849 0-5.682-3.701-5.682-5.889v-7.039a.1.1 0 0 0-.1-.101H7.094a.1.1 0 0 1-.101-.101l-.024-3.06.064-.092c2.506-.976 3.905-2.595 4.273-5.593.021-.167.158-.171.159-.171h3.447c.055 0 .101.045.101.101V5.9a.1.1 0 0 0 .1.101h3.803a.1.1 0 0 1 .101.1v3.801a.1.1 0 0 1-.101.101h-3.819c-.056 0-.097.045-.097.101v6.705c.023 1.438.715 2.167 2.065 2.167.544 0 1.116-.126 1.685-.344a.099.099 0 0 1 .13.061l.995 2.95-.024.104z" clip-rule="evenodd"/></svg>