<svg xmlns="http://www.w3.org/2000/svg" viewBox="0 0 24 24"><path style="line-height:normal;font-variant-ligatures:normal;font-variant-position:normal;font-variant-caps:normal;font-variant-numeric:normal;font-variant-alternates:normal;font-feature-settings:normal;text-indent:0;text-align:start;text-decoration-line:none;text-decoration-style:solid;text-decoration-color:#000;text-transform:none;text-orientation:mixed;white-space:normal;shape-padding:0;isolation:auto;mix-blend-mode:normal;solid-color:#000;solid-opacity:1" d="M8.5 4C6.022 4 3.968 6.143 4 8.629c0 3.184 2.097 6.102 4.137 8.248 1.312 1.403 2.798 2.622 4.363 3.728 1.75-1.347 3.134-2.45 4.361-3.724 2.026-2.13 4.102-5.024 4.133-8.186v-.007a.5.5 0 0 0-.004-.164C20.935 6.091 18.945 4 16.5 4c-1.155 0-2.239.293-3.09.814a2.828 2.828 0 0 0-.912.891 2.844 2.844 0 0 0-.908-.89C10.739 4.293 9.655 4 8.5 4z"/></svg>