<svg xmlns="http://www.w3.org/2000/svg" viewBox="0 0 24 24"><path style="line-height:normal;font-variant-ligatures:normal;font-variant-position:normal;font-variant-caps:normal;font-variant-numeric:normal;font-variant-alternates:normal;font-feature-settings:normal;text-indent:0;text-align:start;text-decoration-line:none;text-decoration-style:solid;text-decoration-color:#000;text-transform:none;text-orientation:mixed;white-space:normal;shape-padding:0;isolation:auto;mix-blend-mode:normal;solid-color:#000;solid-opacity:1" d="M17.174 2.88v.003c-.018 0-.783.032-2.508.178-.582.049-1.838.215-3.182 1.558l-7.039 7.04a1.538 1.538 0 0 0 0 2.163l5.625 5.625c.594.594 1.571.594 2.164 0l7.04-7.039c1.341-1.341 1.523-2.586 1.558-3.195a95.896 95.896 0 0 1 .178-2.639 3.5 3.5 0 0 0-3.836-3.693zM18 5a1 1 0 0 1 1 1 1 1 0 0 1-1 1 1 1 0 0 1-1-1 1 1 0 0 1 1-1z" paint-order="markers stroke fill"/></svg>