<svg xmlns="http://www.w3.org/2000/svg" viewBox="0 0 24 24"><path fill="none" stroke="#000" d="M10.5 7.5H17M7 10.5h10M7 13.5h10M7 16.5h6.587"/><path fill="none" stroke="#000" stroke-linecap="round" stroke-width="2" d="M8.169 4H18c1.108 0 2 .892 2 2v9.635M15.709 20H6c-1.108 0-2-.892-2-2V8.684"/><path d="M17.5 13a4.5 4.5 0 0 0-4.5 4.5 4.5 4.5 0 0 0 4.5 4.5 4.5 4.5 0 0 0 4.5-4.5 4.5 4.5 0 0 0-4.5-4.5zm-.5 2.014h1V17h1.986v1H18v1.988h-1V18h-1.986v-1H17zM6.5 2A4.5 4.5 0 0 0 2 6.5 4.5 4.5 0 0 0 6.5 11 4.5 4.5 0 0 0 11 6.5 4.5 4.5 0 0 0 6.5 2zM4.023 5.977h5v1h-5z"/></svg>