<svg xmlns="http://www.w3.org/2000/svg" viewBox="0 0 24 24"><g fill="none" stroke="#000"><path stroke-linejoin="round" stroke-width="2" d="M10.312 18.571l-6.767-6.767a1.878 1.878 0 0 1 0-2.662L8.66 4.025a1.878 1.878 0 0 1 2.662 0l8.652 8.652a1.878 1.878 0 0 1 0 2.662l-3.181 3.181"/><path d="M14.588 12.24l-1.768-1.767c-.562-.576-1.019-.396-1.414 0a.991.991 0 0 0 0 1.414L12.82 13.3a.991.991 0 0 1 0 1.414c-.395.396-.846.577-1.414 0L8.931 12.24M9.622 15.085l1.152-1.151M14.585 10.122l-1.058 1.058M2 18.5h20"/></g></svg>