<svg xmlns="http://www.w3.org/2000/svg" viewBox="0 0 24 24"><g fill="none" stroke="#000" stroke-width="2" mask="url(#a)"><path d="M16 8h-5.5C8.906 7.98 8 8.892 8 10s.892 2 2 2h4c1.108 0 2 .892 2 2s-.896 2.012-2.5 2L7 15.977M12 19v-2.5M12 5v3"/><circle cx="12" cy="12" r="9" stroke-linecap="square" stroke-linejoin="round"/></g><mask id="a"><path fill="#fff" d="M1 1v22h14.336A2.15 2.15 0 0 1 15 21.85 2.15 2.15 0 0 1 16.059 20H13a2 2 0 1 1 0-4h3l-.47-.47a2.15 2.15 0 0 1-.477-.477L15 15l.008-.01a2.15 2.15 0 0 1 1.78-3.356c.429 0 .849.13 1.204.371l.008-.01.05.051c.181.132.34.29.471.471L23 17V1z"/></mask><g fill="none" stroke="#000" stroke-linecap="round" stroke-width="2"><path d="M17 22l4-4-4-4M20 18l-6.958.054"/></g></svg>