<svg xmlns="http://www.w3.org/2000/svg" viewBox="0 0 24 24"><g fill="none" stroke="#000"><path stroke-linejoin="round" d="M10.363 2.5a.861.861 0 0 0-.863.863V4.94a7.5 7.5 0 0 0-.725.301L7.66 4.125a.86.86 0 0 0-1.22 0L4.124 6.439a.86.86 0 0 0 0 1.221l1.113 1.113a7.5 7.5 0 0 0-.3.727H3.362a.861.861 0 0 0-.863.863v3.274c0 .478.385.863.863.863h1.582a7.5 7.5 0 0 0 .293.727L4.125 16.34a.86.86 0 0 0 0 1.22l2.314 2.315a.86.86 0 0 0 1.221 0l1.115-1.115a7.5 7.5 0 0 0 .725.3v1.577c0 .478.385.863.863.863h3.274a.861.861 0 0 0 .863-.863V19.06a7.5 7.5 0 0 0 .725-.301l1.115 1.115a.86.86 0 0 0 1.22 0l2.315-2.314a.86.86 0 0 0 0-1.221l-1.113-1.113a7.5 7.5 0 0 0 .3-.727h1.575a.861.861 0 0 0 .863-.863v-3.274a.861.861 0 0 0-.863-.863h-1.582a7.5 7.5 0 0 0-.293-.727l1.113-1.113a.86.86 0 0 0 0-1.22l-2.314-2.315a.863.863 0 0 0-1.221 0L15.225 5.24a7.5 7.5 0 0 0-.725-.3V3.362a.861.861 0 0 0-.863-.863h-3.274z"/><path stroke-linejoin="round" d="M12 16.179a4.219 4.219 0 0 1-3.879-5.881M12 7.74a4.219 4.219 0 0 1 4.059 5.375"/><path d="M12.199 14.488l1.687 1.687-1.687 1.687M11.836 6.139l-1.687 1.686 1.687 1.687M13.687 16.177H12M12 7.743h-1.687"/></g></svg>