<svg xmlns="http://www.w3.org/2000/svg" viewBox="0 0 24 24"><g transform="translate(0 -1028.362)"><path fill="none" stroke="#000" stroke-linejoin="round" d="M10.5 1047.862h-3c-.554 0-.945-.448-1-1l-1-10c-.055-.551.446-1 1-1h11c.554 0 1.062.45 1 1l-.66 5.855"/><path fill="none" stroke="#000" stroke-linecap="square" stroke-linejoin="round" d="M8.5 1035.446v-1.084a3.5 3.5 0 1 1 7 0v.916"/><circle cx="8.5" cy="1037.862" r=".5"/><circle cx="15.5" cy="1037.862" r=".5"/><path fill="none" stroke="#000" stroke-linecap="square" stroke-linejoin="round" d="M11.5 1044.862v-1c0-.554.446-1 1-1h1c.554 0 1 .446 1 1v1M16.5 1044.862v-1c0-.554.446-1 1-1h1c.554 0 1 .446 1 1v1"/><rect width="10" height="5" x="10.5" y="1044.862" fill="none" stroke="#000" stroke-linecap="square" stroke-linejoin="round" rx="1"/></g></svg>