<svg xmlns="http://www.w3.org/2000/svg" xlink="http://www.w3.org/1999/xlink" width="0" height="0" style="display:none;"><symbol viewBox="0 0 24 24" id="checked"><circle cx="12" cy="12" r="10" fill="#94d46c"/><path fill="none" stroke="#fff" stroke-width="2" d="M16.516 8.934l-5.456 5.768-2.964-2.804"/></symbol><symbol viewBox="0 0 24 24" id="warning"><path fill="#faa61a" d="M11.934 3.002a1.271 1.296 0 0 0-1.035.647L2.17 19.057A1.271 1.296 0 0 0 3.271 21H20.73a1.271 1.296 0 0 0 1.101-1.943L13.101 3.65a1.271 1.296 0 0 0-1.167-.647z"/><circle cx="12" cy="17" r="1" fill="#444464"/><path fill="none" stroke="#444464" stroke-width="2" d="M12 15V8"/></symbol><symbol viewBox="0 0 24 24" id="denied"><circle cx="12" cy="12" r="10" fill="#ef5362"/><path fill="#fff" fill-rule="evenodd" stroke="#fff" stroke-width="2" d="M6 12h12"/></symbol><symbol viewBox="0 0 24 24" id="information"><circle cx="12" cy="12" r="10" fill="#157efb"/><circle cx="12" cy="-8" r="1" fill="#fff" transform="scale(1 -1)"/><path fill="#fff" fill-rule="evenodd" stroke="#fff" stroke-width="2" d="M12 17v-6"/></symbol><symbol viewBox="0 0 24 24" id="medicine-danger"><g transform="translate(0 -1028.362)"><path fill="none" stroke="#6b6ba5" stroke-linejoin="round" stroke-width=".996" d="M8.699 1035.556H15.3c.813 0 2.201 2.486 2.201 3.305v8.525a1.47 1.47 0 0 1-1.467 1.478h-8.07a1.47 1.47 0 0 1-1.467-1.478v-8.525c0-.819 1.388-3.305 2.2-3.305z"/><path fill="#bee0fb" stroke="#6b6ba5" stroke-linejoin="round" d="M6.5 1038.862h11v7h-11z"/><path fill="#999" stroke="gray" d="M9.065 1040.862h5.913M9.065 1043.862h5.913"/><path fill="#899ea8" stroke="#6b6ba5" stroke-linejoin="round" d="M7.957 1031.927h8.13c.82 0 1.478.66 1.478 1.478v.979c0 .819-.659 1.478-1.478 1.478h-8.13c-.82 0-1.479-.659-1.479-1.478v-.979c0-.819.66-1.478 1.479-1.478z"/><path fill="none" stroke="#536168" d="M8.5 1032.297v3.196M10.5 1032.297v3.196M12.5 1032.297v3.196M14.5 1032.297v3.196"/><circle cx="15.5" cy="1045.862" r="4" fill="#f8d7da" stroke="#721c24" stroke-linejoin="round"/><path fill="none" stroke="#721c24" d="M15.5 1043.362v3"/><path fill="#721c24" d="M15 1047.362h1v1h-1z"/></g></symbol><symbol viewBox="0 0 24 24" id="medicine-time"><g transform="translate(0 -1028.362)"><path fill="#fff" fill-opacity=".996" stroke="#6b6ba5" stroke-linejoin="round" stroke-width=".996" d="M8.699 1035.556H15.3c.813 0 2.201 2.486 2.201 3.305v8.525a1.47 1.47 0 0 1-1.467 1.478h-8.07a1.47 1.47 0 0 1-1.467-1.478v-8.525c0-.819 1.388-3.305 2.2-3.305z"/><path fill="#bee0fb" stroke="#6b6ba5" stroke-linejoin="round" d="M6.5 1038.862h11v7h-11z"/><path fill="#999" stroke="gray" d="M9.065 1040.862h5.913M9.065 1043.862h5.913"/><path fill="#899ea8" stroke="#6b6ba5" stroke-linejoin="round" d="M7.957 1031.927h8.13c.82 0 1.478.66 1.478 1.478v.979c0 .819-.659 1.478-1.478 1.478h-8.13c-.82 0-1.479-.659-1.479-1.478v-.979c0-.819.66-1.478 1.479-1.478z"/><path fill="none" stroke="#536168" d="M8.5 1032.297v3.196M10.5 1032.297v3.196M12.5 1032.297v3.196M14.5 1032.297v3.196"/><circle cx="15.5" cy="1045.862" r="4" fill="#fff" stroke="#666" stroke-linejoin="round"/><path fill="none" stroke="#666" d="M15.5 1043.362v2.5H17"/></g></symbol><symbol viewBox="0 0 24 24" id="shopping-discount"><g transform="translate(0 -1028.362)"><path fill="#fb7d3f" d="M18.983 1047.144c-.892.846-2.855-.146-4.013.313-1.158.46-1.847 2.503-3.094 2.505-1.247.002-1.883-2.039-3.03-2.494-1.145-.455-3.134.543-4.005-.3-.87-.843.193-2.738-.27-3.84-.463-1.104-2.586-1.735-2.57-2.93.015-1.194 2.155-1.833 2.646-2.937.491-1.105-.523-2.996.37-3.842.892-.846 2.855.146 4.013-.314 1.158-.459 1.847-2.502 3.094-2.504 1.247-.003 1.883 2.039 3.03 2.494 1.145.455 3.134-.543 4.005.3.87.843-.193 2.738.27 3.84.463 1.104 2.586 1.735 2.57 2.93-.015 1.194-2.155 1.832-2.646 2.937-.491 1.104.523 2.996-.37 3.842z"/><circle cx="10" cy="1038.362" r="1.5" fill="none" stroke="#fff" stroke-linecap="square" opacity=".93"/><circle cx="14" cy="1042.362" r="1.5" fill="none" stroke="#fff" stroke-linecap="square" opacity=".93"/><path fill="none" stroke="#fff" d="M15 1037.362l-6 6"/></g></symbol></svg>