<svg xmlns="http://www.w3.org/2000/svg" viewBox="0 0 24 24"><g fill="none" stroke="#000" transform="translate(0 -1028.362)"><path stroke-linecap="square" d="M17 1045.862h.5a4 4 0 1 0 0-7.998h-.021a5.502 5.502 0 0 0-10.96-.969 4.5 4.5 0 0 0-4.02 4.469A4.5 4.5 0 0 0 7 1045.862"/><path d="M13.49 1041.86l-2.245-.01c-.804-.01-1.258.447-1.258 1.006 0 .56.454 1.013 1.013 1.013.559 0 2-.025 2-.025.56 0 1.013.453 1.013 1.012 0 .56-.454 1.013-1.263 1.007H9.5M11.985 1047.362v-1.628M11.987 1040.36v1.496"/><circle cx="12" cy="1043.862" r="5" stroke-linecap="square" stroke-linejoin="round"/></g></svg>