<svg xmlns="http://www.w3.org/2000/svg" viewBox="0 0 24 24"><g transform="translate(0 -1028.362)"><path fill="#fff" fill-opacity=".996" stroke="#6b6ba5" stroke-linejoin="round" stroke-width=".996" d="M8.699 1035.556H15.3c.813 0 2.201 2.486 2.201 3.305v8.525a1.47 1.47 0 0 1-1.467 1.478h-8.07a1.47 1.47 0 0 1-1.467-1.478v-8.525c0-.819 1.388-3.305 2.2-3.305z"/><path fill="#bee0fb" stroke="#6b6ba5" stroke-linejoin="round" d="M6.5 1038.862h11v7h-11z"/><path fill="#999" stroke="gray" d="M9.065 1040.862h5.913M9.065 1043.862h5.913"/><path fill="#899ea8" stroke="#6b6ba5" stroke-linejoin="round" d="M7.957 1031.927h8.13c.82 0 1.478.66 1.478 1.478v.979c0 .819-.659 1.478-1.478 1.478h-8.13c-.82 0-1.479-.659-1.479-1.478v-.979c0-.819.66-1.478 1.479-1.478z"/><path fill="none" stroke="#536168" d="M8.5 1032.297v3.196M10.5 1032.297v3.196M12.5 1032.297v3.196M14.5 1032.297v3.196"/><circle cx="15.5" cy="1045.862" r="4" fill="#fff" stroke="#666" stroke-linejoin="round"/><path fill="none" stroke="#666" d="M15.5 1043.362v2.5H17"/></g></svg>