<svg xmlns="http://www.w3.org/2000/svg" viewBox="0 0 6.35 6.35"><g><path style="line-height:normal;font-variant-ligatures:normal;font-variant-position:normal;font-variant-caps:normal;font-variant-numeric:normal;font-variant-alternates:normal;font-feature-settings:normal;text-indent:0;text-align:start;text-decoration-line:none;text-decoration-style:solid;text-decoration-color:#000;text-transform:none;text-orientation:mixed;white-space:normal;shape-padding:0;isolation:auto;mix-blend-mode:normal;solid-color:#000;solid-opacity:1" d="M3.176 2.645c-.29 0-.53.239-.53.53 0 .29.24.529.53.529.29 0 .53-.24.53-.53 0-.29-.24-.53-.53-.53zM1.588 2.645c-.29 0-.53.239-.53.53 0 .29.24.529.53.529.29 0 .53-.24.53-.53 0-.29-.24-.53-.53-.53zM4.762 2.645c-.291 0-.53.239-.53.53 0 .29.239.529.53.529.29 0 .529-.24.529-.53 0-.29-.239-.53-.53-.53z"/></g></svg>