<svg xmlns="http://www.w3.org/2000/svg" viewBox="0 0 24 24"><g><path style="line-height:normal;font-variant-ligatures:normal;font-variant-position:normal;font-variant-caps:normal;font-variant-numeric:normal;font-variant-alternates:normal;font-feature-settings:normal;text-indent:0;text-align:start;text-decoration-line:none;text-decoration-style:solid;text-decoration-color:#000;text-transform:none;text-orientation:mixed;white-space:normal;shape-padding:0;isolation:auto;mix-blend-mode:normal;solid-color:#000;solid-opacity:1" d="M4.5 3C3.678 3 3 3.676 3 4.5v5c0 .821.678 1.5 1.5 1.5h5c.822 0 1.5-.679 1.5-1.5v-5c0-.823-.678-1.5-1.5-1.5zM14.5 3c-.822 0-1.5.677-1.5 1.5v5c0 .821.678 1.5 1.5 1.5h5c.822 0 1.5-.679 1.5-1.5v-5c0-.823-.678-1.5-1.5-1.5zM4.5 13c-.822 0-1.5.677-1.5 1.5v5c0 .821.678 1.5 1.5 1.5h5c.822 0 1.5-.679 1.5-1.5v-5c0-.823-.678-1.5-1.5-1.5zM14.5 13c-.822 0-1.5.677-1.5 1.5v5c0 .821.678 1.5 1.5 1.5h5c.822 0 1.5-.679 1.5-1.5v-5c0-.823-.678-1.5-1.5-1.5z" opacity=".93"/></g></svg>