<svg xmlns="http://www.w3.org/2000/svg" viewBox="0 0 24 24"><path style="line-height:normal;font-variant-ligatures:normal;font-variant-position:normal;font-variant-caps:normal;font-variant-numeric:normal;font-variant-alternates:normal;font-feature-settings:normal;text-indent:0;text-align:start;text-decoration-line:none;text-decoration-style:solid;text-decoration-color:#000;text-transform:none;text-orientation:mixed;white-space:normal;shape-padding:0;isolation:auto;mix-blend-mode:normal;solid-color:#000;solid-opacity:1" d="M7.5 3c-.418 0-.817.13-1.096.412-.28.282-.405.678-.405 1.088v15c0 .45.066.793.221 1.07.155.278.43.465.68.516.498.103.853-.154.853-.154a.5.5 0 0 0 .078-.059L12 17.168l4.168 3.705c.03.027.064.05.1.068 0 0 .363.234.848.12.242-.057.509-.24.664-.514.154-.273.22-.61.22-1.047v-15c0-.41-.125-.806-.404-1.088-.28-.281-.679-.412-1.096-.412z"/></svg>