<svg xmlns="http://www.w3.org/2000/svg" viewBox="0 0 24 24"><path style="line-height:normal;font-variant-ligatures:normal;font-variant-position:normal;font-variant-caps:normal;font-variant-numeric:normal;font-variant-alternates:normal;font-feature-settings:normal;text-indent:0;text-align:start;text-decoration-line:none;text-decoration-style:solid;text-decoration-color:#000;text-transform:none;text-orientation:mixed;white-space:normal;shape-padding:0;isolation:auto;mix-blend-mode:normal;solid-color:#000;solid-opacity:1" d="M5.5 6a.5.5 0 0 0-.5.5v1.002A.5.5 0 0 0 5.5 8h13a.5.5 0 0 0 .5-.498V6.5a.5.5 0 0 0-.5-.5zM6 9v11.5a.5.5 0 0 0 .5.5h11a.5.5 0 0 0 .5-.5V9zm3 2h1v8H9zm2.5 0h1v8h-1zm2.5 0h1v8h-1z"/><path fill="none" stroke="#000" stroke-linecap="square" stroke-linejoin="round" d="M9.5 4.5h5v2h-5z"/></svg>