<svg xmlns="http://www.w3.org/2000/svg" viewBox="0 0 24 24"><path d="M10.5 2.5l-.234 2.213a7.5 7.5 0 0 0-2.19.912L6.344 4.223l-2.121 2.12 1.402 1.733a7.5 7.5 0 0 0-.914 2.192L2.5 10.5v3l2.213.232a7.5 7.5 0 0 0 .906 2.2l-1.396 1.724 2.12 2.121 1.73-1.398a7.5 7.5 0 0 0 2.195.908L10.5 21.5h3l.234-2.213a7.5 7.5 0 0 0 2.19-.912l1.732 1.402 2.121-2.12-1.402-1.733a7.5 7.5 0 0 0 .914-2.192L21.5 13.5v-3l-2.213-.232a7.5 7.5 0 0 0-.906-2.2l1.396-1.724-2.12-2.121-1.73 1.398a7.5 7.5 0 0 0-2.195-.908L13.5 2.5zm1.5 7a2.5 2.5 0 0 1 2.5 2.5 2.5 2.5 0 0 1-2.5 2.5A2.5 2.5 0 0 1 9.5 12 2.5 2.5 0 0 1 12 9.5z"/></svg>