<svg xmlns="http://www.w3.org/2000/svg" viewBox="0 0 24 24"><path style="line-height:normal;font-variant-ligatures:normal;font-variant-position:normal;font-variant-caps:normal;font-variant-numeric:normal;font-variant-alternates:normal;font-feature-settings:normal;text-indent:0;text-align:start;text-decoration-line:none;text-decoration-style:solid;text-decoration-color:#000;text-transform:none;text-orientation:mixed;white-space:normal;shape-padding:0;isolation:auto;mix-blend-mode:normal;solid-color:#000;solid-opacity:1" d="M5.5 6C4.678 6 4 6.678 4 7.5v2c0 .647.421 1.291 1 1.5h7V6zM13 6v5h7c.579-.209 1-.853 1-1.5v-2c0-.822-.678-1.5-1.5-1.5zm-8 6v7.5c0 .823.678 1.5 1.5 1.5H12v-9zm8 0v9h5.5c.822 0 1.5-.677 1.5-1.5V12z"/><path fill="none" stroke="#000" stroke-linejoin="round" d="M12.5 6c0-.828.895-2.5 2-2.5s2 .672 2 1.5-.895 1.5-2 1.5M12.5 6c0-.828-.895-2.5-2-2.5s-2 .672-2 1.5.895 1.5 2 1.5"/></svg>