<svg xmlns="http://www.w3.org/2000/svg" viewBox="0 0 24 24"><path style="line-height:normal;font-variant-ligatures:normal;font-variant-position:normal;font-variant-caps:normal;font-variant-numeric:normal;font-variant-alternates:normal;font-feature-settings:normal;text-indent:0;text-align:start;text-decoration-line:none;text-decoration-style:solid;text-decoration-color:#000;text-transform:none;text-orientation:mixed;white-space:normal;shape-padding:0;isolation:auto;mix-blend-mode:normal;solid-color:#000;solid-opacity:1" d="M11.954 2c-.212 0-.35.1-.447.185a1.465 1.465 0 0 0-.239.278c-.14.202-.27.45-.406.738-.274.579-.566 1.323-.855 2.078-.288.754-.571 1.518-.81 2.107a11 11 0 0 1-.32.723c-.088.176-.21.291-.105.21.105-.082-.035.01-.223.043-.187.036-.451.07-.756.102-.61.064-1.392.12-2.168.182-.777.063-1.546.132-2.157.233-.305.05-.569.106-.795.185-.114.04-.218.086-.325.157a.695.695 0 0 0-.303.39.731.731 0 0 0 .032.502c.047.123.109.222.18.323.14.201.324.407.545.632.442.45 1.032.97 1.63 1.49.599.52 1.207 1.037 1.67 1.457.231.21.425.397.559.538.133.142.2.3.158.17-.041-.13-.004.04-.03.237-.025.197-.075.466-.14.78-.13.625-.322 1.419-.504 2.21-.183.79-.357 1.574-.454 2.211a5.397 5.397 0 0 0-.076.847c.001.125.009.243.04.371.033.129.09.291.263.42.172.13.34.134.467.125.127-.01.236-.039.35-.077.227-.077.47-.199.743-.349.547-.3 1.204-.723 1.863-1.157.658-.434 1.318-.879 1.843-1.208.263-.165.493-.3.663-.388.17-.088.334-.104.201-.104h.002c-.13 0 .034.016.205.102.172.087.404.22.669.382.53.323 1.194.758 1.857 1.183.664.426 1.324.84 1.875 1.133.275.146.52.264.748.339.115.038.224.066.35.073a.64.64 0 0 0 .466-.131.708.708 0 0 0 .258-.424 1.53 1.53 0 0 0 .037-.372c0-.25-.034-.529-.086-.847-.104-.636-.287-1.418-.48-2.206-.19-.787-.393-1.578-.53-2.201-.07-.312-.121-.583-.15-.78-.027-.197.007-.365-.033-.235s.025-.028.157-.17c.132-.144.324-.335.553-.548.458-.426 1.061-.95 1.654-1.477.592-.527 1.173-1.054 1.61-1.51a5.14 5.14 0 0 0 .54-.639c.07-.101.13-.203.176-.326a.732.732 0 0 0 .023-.502.691.691 0 0 0-.306-.386 1.383 1.383 0 0 0-.327-.151 4.863 4.863 0 0 0-.797-.176c-.612-.093-1.382-.155-2.159-.208-.776-.053-1.559-.097-2.17-.153a9.978 9.978 0 0 1-.756-.092c-.186-.032-.324-.117-.223-.04.106.078-.02-.034-.11-.209s-.203-.425-.326-.718c-.246-.586-.537-1.345-.834-2.096-.298-.75-.6-1.492-.88-2.067a5.258 5.258 0 0 0-.415-.733 1.463 1.463 0 0 0-.242-.275.66.66 0 0 0-.448-.182h-.002z"/></svg>