<svg xmlns="http://www.w3.org/2000/svg" viewBox="0 0 24 24"><path d="M12 2c-.629 0-1.257.24-1.734.717l-7.55 7.549a2.458 2.458 0 0 0 0 3.468l7.55 7.55a2.458 2.458 0 0 0 3.468 0l7.55-7.55a2.458 2.458 0 0 0 0-3.468l-7.55-7.55A2.446 2.446 0 0 0 12 2zm2 6.5l4 2-4 2V11h-2.54c-.804 0-1.46.682-1.46 1.5V15H9v-2.5c0-1.354 1.095-2.5 2.46-2.5H14z" style="line-height:normal;font-variant-ligatures:normal;font-variant-position:normal;font-variant-caps:normal;font-variant-numeric:normal;font-variant-alternates:normal;font-feature-settings:normal;text-indent:0;text-align:start;text-decoration-line:none;text-decoration-style:solid;text-decoration-color:#000;text-transform:none;text-orientation:mixed;white-space:normal;shape-padding:0;isolation:auto;mix-blend-mode:normal;solid-color:#000;solid-opacity:1"/></svg>