<svg xmlns="http://www.w3.org/2000/svg" viewBox="0 0 24 24"><g><path d="M6.809 5A.819.819 0 0 0 6 5.807v13.385c0 .438.37.806.809.806h3.382a.817.817 0 0 0 .809-.806V5.808a.819.819 0 0 0-.809-.809zM13.809 5a.819.819 0 0 0-.809.808v13.384c0 .44.37.807.809.807h3.382a.817.817 0 0 0 .809-.807V5.808a.819.819 0 0 0-.809-.809z" style="line-height:normal;font-variant-ligatures:normal;font-variant-position:normal;font-variant-caps:normal;font-variant-numeric:normal;font-variant-alternates:normal;font-feature-settings:normal;text-indent:0;text-align:start;text-decoration-line:none;text-decoration-style:solid;text-decoration-color:#000;text-transform:none;text-orientation:mixed;white-space:normal;shape-padding:0;isolation:auto;mix-blend-mode:normal;solid-color:#000;solid-opacity:1"/></g></svg>