<svg xmlns="http://www.w3.org/2000/svg" viewBox="0 0 24 24"><path fill-rule="evenodd" d="M4.496 5A.499.499 0 0 0 4 5.5v14a.5.5 0 0 0 .736.44L16 13.877V19.5a.5.5 0 0 0 .5.5h3a.5.5 0 0 0 .5-.5v-14a.5.5 0 0 0-.5-.5h-3a.5.5 0 0 0-.5.5v5.625L4.736 5.06a.504.504 0 0 0-.24-.061z" style="line-height:normal;font-variant-ligatures:normal;font-variant-position:normal;font-variant-caps:normal;font-variant-numeric:normal;font-variant-alternates:normal;font-feature-settings:normal;text-indent:0;text-align:start;text-decoration-line:none;text-decoration-style:solid;text-decoration-color:#000;text-transform:none;text-orientation:mixed;white-space:normal;shape-padding:0;isolation:auto;mix-blend-mode:normal;solid-color:#000;solid-opacity:1"/></svg>