<svg xmlns="http://www.w3.org/2000/svg" viewBox="0 0 24 24"><path d="M4.5 5C3.678 5 3 5.676 3 6.5v5c0 .821.678 1.5 1.5 1.5h5c.822 0 1.5-.679 1.5-1.5v-5c0-.823-.678-1.5-1.5-1.5zM15.5 5c-.822 0-1.5.677-1.5 1.5v5c0 .821.678 1.5 1.5 1.5h5c.822 0 1.5-.679 1.5-1.5v-5c0-.823-.678-1.5-1.5-1.5z" opacity=".93" style="line-height:normal;font-variant-ligatures:normal;font-variant-position:normal;font-variant-caps:normal;font-variant-numeric:normal;font-variant-alternates:normal;font-feature-settings:normal;text-indent:0;text-align:start;text-decoration-line:none;text-decoration-style:solid;text-decoration-color:#000;text-transform:none;text-orientation:mixed;white-space:normal;shape-padding:0;isolation:auto;mix-blend-mode:normal;solid-color:#000;solid-opacity:1"/><path fill="none" stroke="#000" d="M3 14.5h8M3 16.5h8M3 18.5h4M14 14.5h8M14 16.5h8M14 18.5h4"/></svg>