<svg xmlns="http://www.w3.org/2000/svg" viewBox="0 0 24 24"><g><path d="M4.5 3C3.678 3 3 3.676 3 4.5v2C3 7.32 3.678 8 4.5 8h2C7.322 8 8 7.32 8 6.5v-2C8 3.676 7.322 3 6.5 3zM4.5 10c-.822 0-1.5.677-1.5 1.5v2c0 .821.678 1.5 1.5 1.5h2c.822 0 1.5-.679 1.5-1.5v-2c0-.823-.678-1.5-1.5-1.5zM4.5 17c-.822 0-1.5.677-1.5 1.5v2c0 .821.678 1.5 1.5 1.5h2c.822 0 1.5-.679 1.5-1.5v-2c0-.823-.678-1.5-1.5-1.5zM11.5 3c-.822 0-1.5.677-1.5 1.5v2c0 .821.678 1.5 1.5 1.5h2c.822 0 1.5-.679 1.5-1.5v-2c0-.823-.678-1.5-1.5-1.5zM11.5 10c-.822 0-1.5.677-1.5 1.5v2c0 .821.678 1.5 1.5 1.5h2c.822 0 1.5-.679 1.5-1.5v-2c0-.823-.678-1.5-1.5-1.5zM11.5 17c-.822 0-1.5.677-1.5 1.5v2c0 .821.678 1.5 1.5 1.5h2c.822 0 1.5-.679 1.5-1.5v-2c0-.823-.678-1.5-1.5-1.5zM18.5 3c-.822 0-1.5.677-1.5 1.5v2c0 .821.678 1.5 1.5 1.5h2c.822 0 1.5-.679 1.5-1.5v-2c0-.823-.678-1.5-1.5-1.5zM18.5 10c-.822 0-1.5.677-1.5 1.5v2c0 .821.678 1.5 1.5 1.5h2c.822 0 1.5-.679 1.5-1.5v-2c0-.823-.678-1.5-1.5-1.5zM18.5 17c-.822 0-1.5.677-1.5 1.5v2c0 .821.678 1.5 1.5 1.5h2c.822 0 1.5-.679 1.5-1.5v-2c0-.823-.678-1.5-1.5-1.5z" opacity=".93" style="line-height:normal;font-variant-ligatures:normal;font-variant-position:normal;font-variant-caps:normal;font-variant-numeric:normal;font-variant-alternates:normal;font-feature-settings:normal;text-indent:0;text-align:start;text-decoration-line:none;text-decoration-style:solid;text-decoration-color:#000;text-transform:none;text-orientation:mixed;white-space:normal;shape-padding:0;isolation:auto;mix-blend-mode:normal;solid-color:#000;solid-opacity:1"/></g></svg>