<svg xmlns="http://www.w3.org/2000/svg" viewBox="0 0 24 24"><g transform="translate(0 -1028.362)"><ellipse cx="17.5" cy="1045.862" fill="none" stroke="#000" stroke-linejoin="round" rx="4" ry="4"/><path fill="none" stroke="#000" stroke-linejoin="round" d="M20 1046.363l-2.5-2.5-2.5 2.5"/><path fill="none" stroke="#000" d="M17.5 1044.362v4"/><g transform="translate(.028 -1.028)"><path fill="none" stroke="#000" stroke-linejoin="round" stroke-width=".997" d="M13.996 1048.892H5.441a.968.968 0 0 1-.97-.97v-14.064c0-.537.432-.97.97-.97h14.063c.537 0 .97.433.97.97v10.183"/><path fill="none" stroke="#000" d="M11 1036.862h7M11 1040.862h7M11 1044.862h3"/><rect width="3" height="3" x="7" y="1035.362" rx="6"/><rect width="3" height="3" x="7" y="1039.362" rx="6"/><rect width="3" height="3" x="7" y="1043.362" rx="6"/></g></g></svg>