<svg xmlns="http://www.w3.org/2000/svg" viewBox="0 0 24 24"><g fill="none" stroke="#000"><path stroke-width=".987" d="M13.114 6.512H9.167c-1.258-.016-1.973.704-1.973 1.578 0 .875.704 1.58 1.578 1.58h3.158c.875 0 1.578.703 1.578 1.578 0 .875-.707 1.588-1.973 1.578l-4.736-.018M10.351 14.8v-1.974M10.351 4.539v2.368"/><path stroke-linecap="round" stroke-linejoin="round" d="M13.524 16.622a7.5 7.5 0 1 1 3.11-3.12M16.291 5.727A7.592 7.592 0 0 1 19.6 12a7.61 7.61 0 0 1-.258 1.97m-5.408 5.381A7.611 7.611 0 0 1 12 19.6a7.592 7.592 0 0 1-6.277-3.315"/><path stroke-linecap="round" stroke-linejoin="round" d="M18.266 7.71A7.592 7.592 0 0 1 21.6 14a7.6 7.6 0 0 1-.323 2.197M16.125 21.3c-.675.196-1.388.3-2.125.3a7.592 7.592 0 0 1-6.29-3.332"/><g transform="translate(-23.5 -1026.862)"><ellipse cx="41" cy="1044.362" stroke-linejoin="round" rx="4" ry="4"/><path stroke-linejoin="round" d="M43.5 1044.863l-2.5-2.5-2.5 2.5"/><path d="M41 1042.862v4"/></g></g></svg>