<svg xmlns="http://www.w3.org/2000/svg" viewBox="0 0 24 24"><g fill="none" stroke="#000" transform="translate(0 -1028.362)"><rect width="17" height="10" x="4.5" y="1031.862" stroke-linejoin="round" rx="1.03"/><path d="M14.016 1035.871l-2.245-.01c-.804-.01-1.258.447-1.258 1.007 0 .559.454 1.012 1.013 1.012.559 0 1-.025 1-.025.559 0 1.012.453 1.012 1.013 0 .559-.453 1.012-1.262 1.006h-2.25M11.513 1041.371v-1.628M12.513 1034.371v1.496" transform="matrix(.9998 0 0 .99966 .965 -.632)"/><path d="M10.854 1043.909l-3 3 3 3M7.854 1046.909h9M7 1033.862H3M2 1035.862h4M1 1037.862h3"/></g></svg>