<svg xmlns="http://www.w3.org/2000/svg" viewBox="0 0 24 24"><g fill="none" stroke="#000" transform="translate(0 -1028.362)"><path stroke-linejoin="round" d="M14.834 1048.848H4.543c-.57 0-1.029-.459-1.029-1.029v-14.914c0-.57.459-1.028 1.029-1.028h14.914c.57 0 1.029.458 1.029 1.028v10.209"/><path d="M7 1041.862h10.5M7 1044.862h6.5"/><circle cx="11.967" cy="1035.28" r="1.424" stroke-linejoin="round" stroke-width=".988"/><path stroke-linejoin="round" stroke-width=".988" d="M14.34 1039.077c0 .396-1.062.791-2.373.791-1.31 0-2.373-.395-2.373-.79a2.373 2.373 0 1 1 4.746 0z"/><ellipse cx="17.5" cy="1045.862" stroke-linejoin="round" rx="4" ry="4"/><path stroke-linejoin="round" d="M20 1046.363l-2.5-2.5-2.5 2.5"/><path d="M17.5 1044.362v4"/></g></svg>