<svg xmlns="http://www.w3.org/2000/svg" viewBox="0 0 24 24"><path fill="none" stroke="#000" stroke-linejoin="round" d="M5.463 17.5H3.65A1.149 1.149 0 0 1 2.5 16.35V9.65c0-.637.514-1.151 1.151-1.151H20.35c.637 0 1.151.514 1.151 1.151v6.698c0 .637-.514 1.151-1.151 1.151h-1.812M5.5 8.418v-4.13c0-.437.351-.788.788-.788h11.424c.437 0 .788.351.788.788v4.04"/><path fill="none" stroke="#000" stroke-linejoin="round" d="M18.5 19.712a.786.786 0 0 1-.788.788H6.288c-.437 0-.811-.352-.788-.788V14.5h13z"/><path d="M17 10h2v2h-2z"/><path fill="none" stroke="#000" d="M7 16.5h10M7 18.5h10"/></svg>