<svg xmlns="http://www.w3.org/2000/svg" viewBox="0 0 24 24"><path style="line-height:normal;font-variant-ligatures:normal;font-variant-position:normal;font-variant-caps:normal;font-variant-numeric:normal;font-variant-alternates:normal;font-feature-settings:normal;text-indent:0;text-align:start;text-decoration-line:none;text-decoration-style:solid;text-decoration-color:#000;text-transform:none;text-orientation:mixed;white-space:normal;shape-padding:0;isolation:auto;mix-blend-mode:normal;solid-color:#000;solid-opacity:1" d="M3.803 3A.812.812 0 0 0 3 3.803v4.394c0 .436.367.803.803.803h4.394A.812.812 0 0 0 9 8.197V3.803A.812.812 0 0 0 8.197 3H3.803zM11 3v1h-1v1h1v3h-1v1h1v1H7v1h1v1H7v1h2v1h1v-1h3v-2h2v1h2v-1h-1v-1h-2V6h-1v3h-1V6h1V5h-1V3h-1zm2 2h1V4h-1v1zm4 6h1v1h1v-2h-2v1zm-2 1h-1v1h1v-1zm-5 2v1h1v-1h-1zm1 1v1h1v-1h-1zm1 0h3v-1h-3v1zm0 1v2h2v-2h-2zm3.803-13a.812.812 0 0 0-.803.803v4.394c0 .436.367.803.803.803h4.394A.812.812 0 0 0 21 8.197V3.803A.812.812 0 0 0 20.197 3h-4.394zM4 4h4v4.002H4V4zm12 0h4v4.002h-4V4zM5 5v2h2V5H5zm12 0v2h2V5h-2zM3 10v2h1v-1h2v-1H3zm1 2v1h1v-1H4zm1 1v1h1v-1H5zm-1 0H3v1h1v-1zm16-3v4h1v-4h-1zM9 11h1v1H9v-1zm2 0h1v1h-1v-1zm5 2v2h1v-1h2v-1h-3zM3.803 15a.812.812 0 0 0-.803.803v4.394c0 .436.367.803.803.803h4.394A.812.812 0 0 0 9 20.197v-4.394A.812.812 0 0 0 8.197 15H3.803zM4 16h4v4.002H4V16zm12 0v1h1v-1h-1zm1 1v1h2v-1h1v2h1v-3h-3v1h-1zm3 2h-1v2h2v-1h-1v-1zm-4-2h-1v4h1v-4zM5 17v2h2v-2H5zm5 1v3h1v-1h1v-1h-1v-1h-1zm3 1v1h1v-1h-1zm4 0v1h1v-1h-1z"/></svg>