<svg xmlns="http://www.w3.org/2000/svg" viewBox="0 0 24 24"><g fill="none" stroke="#000"><path stroke-linejoin="round" d="M5.458 10.885L4.5 19.501c-.122 1.097.895 2 2 2s2.122-.903 2-2l-.958-8.617"/><path stroke-linecap="round" stroke-linejoin="round" d="M3.5 3.507v4.57a3 3 0 0 0 1.935 2.803m2.079.02A3 3 0 0 0 9.5 8.075V3.507"/><path stroke-linecap="round" d="M6.5 3.507v4.498"/><path stroke-linejoin="round" d="M16.422 11.215l-.921 8.286c-.122 1.097.895 2 2 2 1.104 0 2.122-.903 2-2l-.922-8.288"/><path stroke-linecap="round" stroke-linejoin="round" d="M16.41 11.233c-1.118-.581-1.91-2.031-1.91-3.727 0-2.208 1.343-3.998 3-3.998s3 1.79 3 3.998c0 1.702-.797 3.155-1.92 3.732"/></g></svg>