<svg xmlns="http://www.w3.org/2000/svg" viewBox="0 0 24 24"><g transform="translate(0 -1028.362)"><path fill="none" stroke="#000" stroke-linecap="round" stroke-linejoin="round" d="M12.505 1035.904c-1.482.046-3.01.172-3.744.957-.77.823-1.091 2.397-1.209 3.378-.235 1.962.32 3.819.32 3.819.277 1.008 1.791.573 1.49-.429 0 0-.412-2.004-.27-3.205.072-.603.234-1.091.426-1.501 0 0 .532-.254.772-.176.24.077.221.29.221.29-.016 3.804-.017 6.897-.017 10.765-.02 1.468 2.04 1.468 2.02 0l-.001-5.945h.038v5.945a.997.997 0 0 0 1.983 0c.024-3.675-.017-7.1-.023-10.753 0 0-.018-.233.247-.302.265-.07.772.185.772.185.181.428.313.92.4 1.492.168 1.094-.27 3.206-.27 3.206-.3 1.002 1.214 1.437 1.491.429 0 0 .555-1.857.32-3.82-.118-.98-.44-2.592-1.209-3.415-.735-.786-2.263-.876-3.75-.92h-.007z"/><circle cx="-427.679" cy="-486.606" r="62.822" fill="red"/><path fill="red" d="M-428.454-398.067l74.456 18.378v200.164a2.373 2.373 0 0 1-2.378 2.378h-144.156a2.373 2.373 0 0 1-2.378-2.378V-379.69z"/><path fill="none" stroke="red" stroke-linecap="round" stroke-width="50" d="M-546.343-153.88s-65.15-226.471 119.44-226.471M-311.744-153.88s65.15-226.471-119.44-226.471"/><path fill="none" stroke="red" stroke-linecap="round" stroke-width="70" d="M-468.66-211.273v291.62M-388.249-211.273v291.62"/><circle cx="-927.679" cy="-486.606" r="62.822" fill="red"/><path fill="red" d="M-928.455-398.068l-64.455 26.625-30 294.495h188.912l-30-294.495z"/><path fill="none" stroke="red" stroke-linecap="round" stroke-width="50" d="M-1046.343-153.88s-65.15-226.471 119.44-226.471M-811.744-153.88s65.15-226.471-119.44-226.471"/><path fill="none" stroke="red" stroke-linecap="round" stroke-width="70" d="M-968.66-211.273v291.62M-888.249-211.273v291.62"/><circle cx="12.5" cy="-1032.862" r="2.082" fill="none" stroke="#000" stroke-linecap="round" stroke-linejoin="round" stroke-width=".836" transform="scale(1 -1)"/></g></svg>