<svg xmlns="http://www.w3.org/2000/svg" viewBox="0 0 24 24"><path fill="none" stroke="#000" stroke-linecap="round" stroke-linejoin="round" stroke-width=".978" d="M17.888 1049.73c-.533.391-5.215-3.049-5.876-3.045-.662 0-5.302 3.5-5.84 3.115-.537-.386 1.288-5.901 1.08-6.53-.209-.628-4.968-3.96-4.768-4.59.201-.63 6.01-.6 6.544-.992.533-.392 2.231-5.948 2.893-5.952.662 0 2.427 5.531 2.965 5.917.538.386 6.346.284 6.555.912.208.628-4.51 4.017-4.711 4.648-.2.63 1.691 6.124 1.158 6.516z" transform="matrix(1.00088 0 0 1.04478 .026 -1075.422)"/></svg>