<svg xmlns="http://www.w3.org/2000/svg" viewBox="0 0 24 24"><path d="M5.5 3A2.506 2.506 0 0 0 3 5.5v13.004l-.002.1.041.097.96-.197H4c.008-.56.18-.903.43-1.133.25-.232.614-.363 1.07-.363H6V3zM7 3v14.008h11.5c1.376 0 2.5-1.124 2.5-2.5v-9c0-1.376-1.124-2.5-2.5-2.5z" style="line-height:normal;font-variant-ligatures:normal;font-variant-position:normal;font-variant-caps:normal;font-variant-numeric:normal;font-variant-alternates:normal;font-feature-settings:normal;text-indent:0;text-align:start;text-decoration-line:none;text-decoration-style:solid;text-decoration-color:#000;text-transform:none;text-orientation:mixed;white-space:normal;shape-padding:0;isolation:auto;mix-blend-mode:normal;solid-color:#000;solid-opacity:1"/><path fill="none" stroke="#000" stroke-linejoin="round" d="M7.433 20.5H5.5c-1.108 0-2-.892-2-2h0m17-4v4h0c0 1.108-.892 2-2 2h-7.037"/><path fill="none" stroke="#000" stroke-linejoin="round" d="M20.5 16.5h0c0 1.108-.892 2-2 2h-13"/><path fill-rule="evenodd" d="M7 18.5v4a.5.5 0 0 0 .723.446L9.5 22.06l1.777.886A.5.5 0 0 0 12 22.5v-4H7z" style="line-height:normal;font-variant-ligatures:normal;font-variant-position:normal;font-variant-caps:normal;font-variant-numeric:normal;font-variant-alternates:normal;font-feature-settings:normal;text-indent:0;text-align:start;text-decoration-line:none;text-decoration-style:solid;text-decoration-color:#000;text-transform:none;text-orientation:mixed;white-space:normal;shape-padding:0;isolation:auto;mix-blend-mode:normal;solid-color:#000;solid-opacity:1"/></svg>