<svg xmlns="http://www.w3.org/2000/svg" viewBox="0 0 24 24"><path d="M4.5 6C3.678 6 3 6.678 3 7.5v.846l7.861 2.722c.124-.041.253-.068.389-.068h1.5c.135 0 .264.027.387.068L21 8.346V7.5c0-.822-.678-1.5-1.5-1.5zM21 9.402l-7.074 2.446c.044.127.074.26.074.402v.5c0 .684-.566 1.25-1.25 1.25h-1.5c-.684 0-1.25-.566-1.25-1.25v-.5c0-.14.03-.274.074-.4L3 9.404V18.5c0 .822.678 1.5 1.5 1.5h15c.822 0 1.5-.678 1.5-1.5zM11.25 12a.24.24 0 0 0-.25.25v.5a.24.24 0 0 0 .25.252h1.5a.24.24 0 0 0 .25-.252v-.5a.24.24 0 0 0-.25-.25z" style="line-height:normal;font-variant-ligatures:normal;font-variant-position:normal;font-variant-caps:normal;font-variant-numeric:normal;font-variant-alternates:normal;font-feature-settings:normal;text-indent:0;text-align:start;text-decoration-line:none;text-decoration-style:solid;text-decoration-color:#000;text-transform:none;text-orientation:mixed;white-space:normal;shape-padding:0;isolation:auto;mix-blend-mode:normal;solid-color:#000;solid-opacity:1"/><path fill="none" stroke="#000" stroke-linejoin="round" d="M9.5 6.5v-2c0-.554.446-1 1-1h3c.554 0 1 .446 1 1v2"/></svg>