<svg xmlns="http://www.w3.org/2000/svg" viewBox="0 0 24 24"><path d="M9.5 5.002a.499.499 0 0 0-.4.2L7.75 7H4.5C3.679 7 3 7.679 3 8.5v10c0 .821.679 1.5 1.5 1.5h15c.821 0 1.5-.679 1.5-1.5v-10c0-.821-.679-1.5-1.5-1.5h-3.25L14.9 5.201a.5.5 0 0 0-.4-.199zM12 9c2.203 0 4 1.797 4 4 0 2.203-1.797 4-4 4-2.203 0-4-1.797-4-4 0-2.203 1.797-4 4-4zm0 1.002c-1.663 0-3 1.335-3 2.998 0 1.663 1.337 3 3 3s3-1.337 3-3a2.991 2.991 0 0 0-3-2.998z" style="line-height:normal;font-variant-ligatures:normal;font-variant-position:normal;font-variant-caps:normal;font-variant-numeric:normal;font-variant-alternates:normal;font-feature-settings:normal;text-indent:0;text-align:start;text-decoration-line:none;text-decoration-style:solid;text-decoration-color:#000;text-transform:none;text-orientation:mixed;white-space:normal;shape-padding:0;isolation:auto;mix-blend-mode:normal;solid-color:#000;solid-opacity:1"/></svg>