<svg xmlns="http://www.w3.org/2000/svg" viewBox="0 0 24 24"><path d="M12 4.002a6 6 0 0 0-5.18 2.97l-.22.376L20.18 18.14l.314-.282A4.492 4.492 0 0 0 22 14.502c0-2.302-1.767-4.137-4.002-4.397 0-.033.006-.067.006-.101A6.01 6.01 0 0 0 12 4.002zM3.814 6.113l-.628.776L5.957 9.14C3.683 9.629 2.003 11.63 2 14.002A5.006 5.006 0 0 0 7 19H18.092l1.094.889.628-.776z" style="line-height:normal;font-variant-ligatures:normal;font-variant-position:normal;font-variant-caps:normal;font-variant-numeric:normal;font-variant-alternates:normal;font-feature-settings:normal;text-indent:0;text-align:start;text-decoration-line:none;text-decoration-style:solid;text-decoration-color:#000;text-transform:none;text-orientation:mixed;white-space:normal;shape-padding:0;isolation:auto;mix-blend-mode:normal;solid-color:#000;solid-opacity:1"/></svg>