<svg xmlns="http://www.w3.org/2000/svg" viewBox="0 0 24 24"><path d="M12 8a9.996 9.996 0 0 0-8.143 4.207.5.5 0 0 0 0 .58 9.981 9.981 0 0 0 4.309 3.428l2.232-1.815a2.487 2.487 0 0 1-.898-1.9c0-1.375 1.125-2.5 2.5-2.5.946 0 1.765.54 2.19 1.32l2.576-2.091A9.987 9.987 0 0 0 12 8zm5.67 1.78l-3.184 2.587c.003.045.014.088.014.133 0 1.375-1.125 2.5-2.5 2.5-.222 0-.433-.039-.639-.094l-2.088 1.696A9.97 9.97 0 0 0 12 17c3.234 0 6.27-1.57 8.143-4.207a.5.5 0 0 0 0-.58 9.985 9.985 0 0 0-2.473-2.434z" style="line-height:normal;font-variant-ligatures:normal;font-variant-position:normal;font-variant-caps:normal;font-variant-numeric:normal;font-variant-alternates:normal;font-feature-settings:normal;text-indent:0;text-align:start;text-decoration-line:none;text-decoration-style:solid;text-decoration-color:#000;text-transform:none;text-orientation:mixed;white-space:normal;shape-padding:0;isolation:auto;mix-blend-mode:normal;solid-color:#000;solid-opacity:1"/><path fill="none" stroke="#000" d="M4.015 19.012l16-13"/></svg>