<svg xmlns="http://www.w3.org/2000/svg" viewBox="0 0 24 24"><path style="line-height:normal;font-variant-ligatures:normal;font-variant-position:normal;font-variant-caps:normal;font-variant-numeric:normal;font-variant-alternates:normal;font-feature-settings:normal;text-indent:0;text-align:start;text-decoration-line:none;text-decoration-style:solid;text-decoration-color:#000;text-transform:none;text-orientation:mixed;white-space:normal;shape-padding:0;isolation:auto;mix-blend-mode:normal;solid-color:#000;solid-opacity:1" d="M12 8a9.996 9.996 0 0 0-8.143 4.207.5.5 0 0 0 0 .58A10.002 10.002 0 0 0 12 17c3.234 0 6.27-1.57 8.143-4.207a.5.5 0 0 0 0-.58A10.004 10.004 0 0 0 12 8zm0 2c1.375 0 2.5 1.125 2.5 2.5S13.375 15 12 15a2.508 2.508 0 0 1-2.5-2.5c0-1.375 1.125-2.5 2.5-2.5z"/></svg>