<svg xmlns="http://www.w3.org/2000/svg" viewBox="0 0 24 24"><path style="line-height:normal;font-variant-ligatures:normal;font-variant-position:normal;font-variant-caps:normal;font-variant-numeric:normal;font-variant-alternates:normal;font-feature-settings:normal;text-indent:0;text-align:start;text-decoration-line:none;text-decoration-style:solid;text-decoration-color:#000;text-transform:none;text-orientation:mixed;white-space:normal;shape-padding:0;isolation:auto;mix-blend-mode:normal;solid-color:#000;solid-opacity:1" d="M12 3c-4.965 0-9 4.034-9 9v6.5C3 19.873 4.125 21 5.5 21H6c.55 0 1.008-.113 1.354-.378.345-.265.529-.656.61-1.045C8.13 18.8 8 17.928 8 17c0-.929.129-1.798-.035-2.576-.082-.389-.266-.78-.611-1.045-.346-.265-.803-.379-1.354-.379H4v-1c0-4.424 3.576-8 8-8 4.424 0 8 3.576 8 8v1h-2c-.55 0-1.008.114-1.354.379-.345.265-.529.656-.61 1.045-.165.778-.036 1.647-.036 2.576 0 .93-.129 1.8.035 2.578.082.39.266.78.611 1.045.346.265.803.377 1.354.377h.5c1.375 0 2.5-1.125 2.5-2.5V12c0-4.964-4.035-9-9-9z"/></svg>