<svg xmlns="http://www.w3.org/2000/svg" viewBox="0 0 24 24"><path d="M7.852 11A1.86 1.86 0 0 0 6 12.854v6.294C6 20.166 6.834 21 7.852 21h8.296c.876 0 1.51-.666 1.7-1.486a.5.5 0 0 0 .152-.366v-6.294A1.86 1.86 0 0 0 16.148 11zM12 14a2 2 0 1 1 0 4 2 2 0 0 1 0-4z" style="line-height:normal;font-variant-ligatures:normal;font-variant-position:normal;font-variant-caps:normal;font-variant-numeric:normal;font-variant-alternates:normal;font-feature-settings:normal;text-indent:0;text-align:start;text-decoration-line:none;text-decoration-style:solid;text-decoration-color:#000;text-transform:none;text-orientation:mixed;white-space:normal;shape-padding:0;isolation:auto;mix-blend-mode:normal;solid-color:#000;solid-opacity:1"/><path fill="none" stroke="#000" stroke-linejoin="round" d="M15.5 9V8a3.5 3.5 0 0 0-7 0v3"/></svg>