<svg xmlns="http://www.w3.org/2000/svg" viewBox="0 0 24 24"><g transform="translate(0 -1028.362)"><path d="M12.005 1035.404c-1.482.046-2.61.172-3.343.957-.77.823-1.091 2.397-1.209 3.378-.235 1.963.32 3.819.32 3.819.277 1.009 1.79.573 1.49-.429 0 0-.413-2.004-.27-3.205.071-.602.234-1.091.425-1.501 0 0 .133-.253.372-.176.24.077.222.29.222.29-.017 3.804-.018 7.897-.018 11.766-.02 1.467 2.039 1.467 2.019 0v-6.946h1.037v6.946a.997.997 0 0 0 1.983 0c.024-3.675-.017-8.101-.022-11.754 0 0-.019-.232.247-.302.265-.07.374.185.374.185.182.428.313.92.401 1.493.168 1.093-.27 3.205-.27 3.205-.3 1.002 1.213 1.437 1.49.429 0 0 .555-1.857.32-3.819-.118-.981-.44-2.593-1.209-3.416-.735-.786-1.865-.876-3.352-.92h-1.007z"/><circle cx="-427.679" cy="-486.606" r="62.822" fill="red"/><path fill="red" d="M-428.454-398.067l74.456 18.378v200.164a2.373 2.373 0 0 1-2.378 2.378h-144.156a2.373 2.373 0 0 1-2.378-2.378V-379.69z"/><path fill="none" stroke="red" stroke-linecap="round" stroke-width="50" d="M-546.343-153.88s-65.15-226.471 119.44-226.471M-311.744-153.88s65.15-226.471-119.44-226.471"/><path fill="none" stroke="red" stroke-linecap="round" stroke-width="70" d="M-468.66-211.273v291.62M-388.249-211.273v291.62"/><circle cx="-927.679" cy="-486.606" r="62.822" fill="red"/><path fill="red" d="M-928.455-398.068l-64.455 26.625-30 294.495h188.912l-30-294.495z"/><path fill="none" stroke="red" stroke-linecap="round" stroke-width="50" d="M-1046.343-153.88s-65.15-226.471 119.44-226.471M-811.744-153.88s65.15-226.471-119.44-226.471"/><path fill="none" stroke="red" stroke-linecap="round" stroke-width="70" d="M-968.66-211.273v291.62M-888.249-211.273v291.62"/><circle cx="12.504" cy="-1031.873" r="2.489" transform="scale(1 -1)"/></g></svg>