<svg xmlns="http://www.w3.org/2000/svg" viewBox="0 0 24 24"><path style="line-height:normal;font-variant-ligatures:normal;font-variant-position:normal;font-variant-caps:normal;font-variant-numeric:normal;font-variant-alternates:normal;font-feature-settings:normal;text-indent:0;text-align:start;text-decoration-line:none;text-decoration-style:solid;text-decoration-color:#000;text-transform:none;text-orientation:mixed;white-space:normal;shape-padding:0;isolation:auto;mix-blend-mode:normal;solid-color:#000;solid-opacity:1" d="M12 3C9.793 3 8 4.793 8 7v7c0 .29.031.574.09.848l.168.79L16 9.446V7c0-2.207-1.793-4-4-4zm4 8.006l-.814.662-6.196 5.035.475.389A3.99 3.99 0 0 0 12 18c2.207 0 4-1.793 4-4z"/><path fill="none" stroke="#000" stroke-linejoin="round" d="M17.5 14c0 3.047-2.453 5.5-5.5 5.5a5.484 5.484 0 0 1-4.289-2.05m-.779-1.303A5.508 5.508 0 0 1 6.5 14"/><path fill="none" stroke="#000" d="M12 22v-3M4 18.5l16-13"/></svg>