<svg xmlns="http://www.w3.org/2000/svg" viewBox="0 0 24 24"><path d="M15.484 2.002a.5.5 0 0 0-.16.03l-8 3A.5.5 0 0 0 7 5.5v8.883a2.618 2.618 0 0 0-.82-.32c-.693-.139-1.473-.046-2.215.287-.742.333-1.32.85-1.658 1.459-.338.607-.426 1.336-.116 1.97.31.635.937 1.022 1.63 1.16.692.138 1.472.046 2.214-.287.742-.333 1.32-.85 1.658-1.459.205-.369.302-.783.29-1.193H8V8.848l7-2.625v5.16a2.618 2.618 0 0 0-.82-.32c-.693-.139-1.473-.046-2.215.287-.742.333-1.32.85-1.658 1.459-.338.607-.426 1.336-.116 1.97.31.635.937 1.022 1.63 1.16.692.138 1.472.046 2.214-.287.742-.333 1.32-.85 1.658-1.459.205-.369.302-.783.29-1.193H16V2.5a.5.5 0 0 0-.516-.498zm3.006 5A.5.5 0 0 0 18 7.5v9.883a2.618 2.618 0 0 0-.82-.32c-.693-.138-1.473-.046-2.215.287-.742.333-1.32.85-1.658 1.459-.338.607-.426 1.336-.116 1.97.31.635.937 1.022 1.63 1.16.692.138 1.472.046 2.214-.287.742-.333 1.32-.85 1.658-1.459.205-.369.302-.783.29-1.193H19V9.371c.322.494.602.991 1.164 1.5 1.238 1.12.846 3.533.846 3.533l.98.194s.639-2.845-1.154-4.467c-1.409-1.275-1.857-2.774-1.857-2.774a.5.5 0 0 0-.489-.355z" style="line-height:normal;font-variant-ligatures:normal;font-variant-position:normal;font-variant-caps:normal;font-variant-numeric:normal;font-variant-alternates:normal;font-feature-settings:normal;text-indent:0;text-align:start;text-decoration-line:none;text-decoration-style:solid;text-decoration-color:#000;text-transform:none;text-orientation:mixed;white-space:normal;shape-padding:0;isolation:auto;mix-blend-mode:normal;solid-color:#000;solid-opacity:1"/></svg>