<svg xmlns="http://www.w3.org/2000/svg" viewBox="0 0 24 24"><path d="M6.9 3A3.91 3.91 0 0 0 3 6.9c0 7.633 6.092 13.823 13.668 14.057l.008.043h.424a3.91 3.91 0 0 0 3.824-4.666 1.31 1.31 0 0 0-.84-.977h-.002l-4.168-1.494a1.049 1.049 0 0 0-1.225.41l-1.08 1.641c-2.49-.98-4.535-2.947-5.523-5.428-.012-.03-.005-.046.014-.058v-.002l1.644-1.12c.391-.266.555-.769.397-1.212h-.002L8.645 3.92a1.313 1.313 0 0 0-.98-.844v-.002h-.003l-.119-.02A3.81 3.81 0 0 0 6.9 3z" style="line-height:normal;font-variant-ligatures:normal;font-variant-position:normal;font-variant-caps:normal;font-variant-numeric:normal;font-variant-alternates:normal;font-feature-settings:normal;text-indent:0;text-align:start;text-decoration-line:none;text-decoration-style:solid;text-decoration-color:#000;text-transform:none;text-orientation:mixed;white-space:normal;shape-padding:0;isolation:auto;mix-blend-mode:normal;solid-color:#000;solid-opacity:1"/></svg>