<svg xmlns="http://www.w3.org/2000/svg" viewBox="0 0 24 24"><path fill="none" stroke="#000" d="M12 21v-5"/><path style="line-height:normal;font-variant-ligatures:normal;font-variant-position:normal;font-variant-caps:normal;font-variant-numeric:normal;font-variant-alternates:normal;font-feature-settings:normal;text-indent:0;text-align:start;text-decoration-line:none;text-decoration-style:solid;text-decoration-color:#000;text-transform:none;text-orientation:mixed;white-space:normal;shape-padding:0;isolation:auto;mix-blend-mode:normal;solid-color:#000;solid-opacity:1" d="M10.5 3c-.425 0-.764.21-1.027.474-.263.263-.473.6-.473 1.025v5.846c-1.253.99-1.999 2.597-2 4.154.002.426.204.787.473 1.05.268.265.622.455 1.037.448h6.978c.414.01.756-.183 1.026-.443.27-.261.484-.62.486-1.055 0-1.555-.752-3.163-2-4.154V4.499c0-.425-.21-.762-.473-1.025-.263-.263-.602-.475-1.027-.475z"/></svg>