<svg xmlns="http://www.w3.org/2000/svg" viewBox="0 0 24 24"><g><path d="M2 5v1h2.139l.886 2.658 1.83 5.494A1.505 1.505 0 0 0 6 15.5c0 .823.678 1.5 1.5 1.5H18v-1H7.5a.493.493 0 0 1-.5-.5c0-.282.218-.5.5-.5h10.002c.427 0 .735-.23.98-.484.246-.255.436-.557.508-.916l1-5c.092-.459-.109-.895-.4-1.168A1.587 1.587 0 0 0 18.5 7H5.527l-.666-2zM8.5 18c-.823 0-1.5.677-1.5 1.5 0 .822.678 1.5 1.5 1.5s1.5-.678 1.5-1.5c0-.823-.677-1.5-1.5-1.5zM16.5 18c-.823 0-1.5.677-1.5 1.5 0 .822.678 1.5 1.5 1.5s1.5-.678 1.5-1.5c0-.823-.677-1.5-1.5-1.5z" style="line-height:normal;font-variant-ligatures:normal;font-variant-position:normal;font-variant-caps:normal;font-variant-numeric:normal;font-variant-alternates:normal;font-feature-settings:normal;text-indent:0;text-align:start;text-decoration-line:none;text-decoration-style:solid;text-decoration-color:#000;text-transform:none;text-orientation:mixed;white-space:normal;shape-padding:0;isolation:auto;mix-blend-mode:normal;solid-color:#000;solid-opacity:1"/></g></svg>