<svg xmlns="http://www.w3.org/2000/svg" viewBox="0 0 24 24"><path d="M3.5 7a.5.5 0 0 0-.5.5v3a.5.5 0 0 0 .496.5c.686.01 1.033.127 1.207.299.174.172.297.51.297 1.203 0 .69-.123 1.03-.297 1.201-.174.172-.521.292-1.207.297a.499.499 0 0 0-.496.5v3a.5.5 0 0 0 .5.5H15v-2h1v2h4.5a.5.5 0 0 0 .5-.5v-3a.5.5 0 0 0-.496-.5c-.62 0-.975-.12-1.17-.305-.195-.184-.334-.516-.334-1.195s.137-1.01.332-1.193c.195-.184.551-.303 1.172-.307a.499.499 0 0 0 .496-.5v-3a.5.5 0 0 0-.5-.5zM15 8h1v2h-1zm0 4h1v2h-1z" style="line-height:normal;font-variant-ligatures:normal;font-variant-position:normal;font-variant-caps:normal;font-variant-numeric:normal;font-variant-alternates:normal;font-feature-settings:normal;text-indent:0;text-align:start;text-decoration-line:none;text-decoration-style:solid;text-decoration-color:#000;text-transform:none;text-orientation:mixed;white-space:normal;shape-padding:0;isolation:auto;mix-blend-mode:normal;solid-color:#000;solid-opacity:1"/></svg>