<svg xmlns="http://www.w3.org/2000/svg" viewBox="0 0 24 24"><path d="M2.1 14.621a.5.5 0 0 0 0 .707l2.122 2.122a.498.498 0 0 0 .704 0c.492-.478.82-.641 1.065-.642.245 0 .57.151 1.06.64.488.489.642.815.64 1.06-.001.245-.162.575-.644 1.063a.499.499 0 0 0 .003.704l2.122 2.122a.5.5 0 0 0 .707 0l8.131-8.132-1.414-1.414.707-.707 1.415 1.414 3.181-3.182a.5.5 0 0 0 0-.707l-2.12-2.121a.498.498 0 0 0-.705 0c-.44.439-.775.604-1.043.611-.268.01-.6-.129-1.081-.609-.48-.48-.617-.81-.61-1.078.008-.268.177-.604.613-1.046a.499.499 0 0 0-.003-.704L14.828 2.6a.5.5 0 0 0-.707 0zm8.84-7.424l.706-.707 1.415 1.414-.707.707zm2.828 2.828l.707-.707 1.414 1.414-.707.707z" style="line-height:normal;font-variant-ligatures:normal;font-variant-position:normal;font-variant-caps:normal;font-variant-numeric:normal;font-variant-alternates:normal;font-feature-settings:normal;text-indent:0;text-align:start;text-decoration-line:none;text-decoration-style:solid;text-decoration-color:#000;text-transform:none;text-orientation:mixed;white-space:normal;shape-padding:0;isolation:auto;mix-blend-mode:normal;solid-color:#000;solid-opacity:1"/></svg>