<svg xmlns="http://www.w3.org/2000/svg" viewBox="0 0 24 24"><path d="M4.682 4.875c-.588 0-1.141.102-1.614.334-.472.232-.87.617-1.043 1.135-.648 1.946-.532 5.67-.015 8.256.255 1.274.619 2.63 1.15 3.681.266.526.573.98.97 1.307.399.327.928.512 1.468.404.765-.153 1.34-.621 1.793-1.158.453-.537.816-1.154 1.21-1.729.79-1.148 1.597-2.094 3.42-2.105 1.822-.011 2.613.93 3.393 2.084.39.577.75 1.2 1.2 1.74.45.541 1.02 1.013 1.788 1.166.54.108 1.07-.075 1.467-.402.398-.327.705-.781.97-1.307.532-1.05.896-2.407 1.151-3.681.517-2.584.64-6.292-.015-8.258-.173-.518-.571-.903-1.045-1.135-.474-.232-1.03-.332-1.621-.332-1.12 0-2.372.391-3.446 1.125H8.066c-1.042-.734-2.275-1.125-3.384-1.125zM6 8h1v2h2v1H7v2H6v-2H4v-1h2zm11.5 0c1.375 0 2.5 1.125 2.5 2.5S18.875 13 17.5 13a2.508 2.508 0 0 1-2.5-2.5C15 9.125 16.125 8 17.5 8zm0 1c-.834 0-1.5.666-1.5 1.5s.666 1.5 1.5 1.5 1.5-.666 1.5-1.5S18.334 9 17.5 9z" style="line-height:normal;font-variant-ligatures:normal;font-variant-position:normal;font-variant-caps:normal;font-variant-numeric:normal;font-variant-alternates:normal;font-feature-settings:normal;text-indent:0;text-align:start;text-decoration-line:none;text-decoration-style:solid;text-decoration-color:#000;text-transform:none;text-orientation:mixed;white-space:normal;shape-padding:0;isolation:auto;mix-blend-mode:normal;solid-color:#000;solid-opacity:1"/></svg>