<svg xmlns="http://www.w3.org/2000/svg" viewBox="0 0 24 24"><path d="M12 2C6.483 2 2 6.483 2 12s4.483 10 10 10 10-4.483 10-10S17.517 2 12 2zm.5 4.5c1.667 0 2.792.89 3.105 1.988.314 1.099-.189 2.362-1.382 2.96-.91.455-1.32.99-1.526 1.4-.205.41-.197.652-.197.652v.5h-1v-.5s.008-.508.303-1.098c.294-.59.885-1.305 1.974-1.85.807-.402 1.054-1.139.868-1.79C14.458 8.11 13.833 7.5 12.5 7.5c-1.361 0-1.896.509-2.195 1.008-.3.499-.305.992-.305.992v.5H9v-.5s-.005-.757.445-1.508C9.896 7.242 10.861 6.5 12.5 6.5zM12 15a1 1 0 0 1 1 1 1 1 0 0 1-1 1 1 1 0 0 1-1-1 1 1 0 0 1 1-1z" style="line-height:normal;font-variant-ligatures:normal;font-variant-position:normal;font-variant-caps:normal;font-variant-numeric:normal;font-variant-alternates:normal;font-feature-settings:normal;text-indent:0;text-align:start;text-decoration-line:none;text-decoration-style:solid;text-decoration-color:#000;text-transform:none;text-orientation:mixed;white-space:normal;shape-padding:0;isolation:auto;mix-blend-mode:normal;solid-color:#000;solid-opacity:1"/></svg>