<svg xmlns="http://www.w3.org/2000/svg" viewBox="0 0 24 24"><path d="M12 2.85l-.32.265C8.843 5.48 4.445 6.004 4.445 6.004l-.484.053.041.484c.244 2.932-.147 5.828.578 8.525s2.65 5.114 7.248 6.9l.182.071.181-.07c4.59-1.787 6.509-4.204 7.23-6.9.723-2.697.333-5.594.577-8.526l.041-.484-.484-.053s-4.398-.525-7.235-2.889L12 2.85zm4.338 6.242l.726.685-5.8 6.131-3.328-3.146.687-.727 2.602 2.461 5.113-5.404z" style="line-height:normal;font-variant-ligatures:normal;font-variant-position:normal;font-variant-caps:normal;font-variant-numeric:normal;font-variant-alternates:normal;font-feature-settings:normal;text-indent:0;text-align:start;text-decoration-line:none;text-decoration-style:solid;text-decoration-color:#000;text-transform:none;text-orientation:mixed;white-space:normal;shape-padding:0;isolation:auto;mix-blend-mode:normal;solid-color:#000;solid-opacity:1"/></svg>