<svg xmlns="http://www.w3.org/2000/svg" viewBox="0 0 24 24"><path d="M11.99 1.992c-.455.001-.852.194-1.166.436-.313.241-.567.536-.808.826-.483.58-.937 1.124-1.295 1.266-.358.141-1.075.063-1.838-.024-.382-.043-.776-.08-1.174-.039-.398.04-.82.171-1.146.48-.327.31-.468.714-.514 1.094-.046.381-.012.757.03 1.123.081.733.155 1.42.003 1.762-.152.341-.723.772-1.334 1.229-.306.228-.616.468-.871.765-.256.298-.461.677-.467 1.113-.005.437.19.813.438 1.11.248.297.553.536.853.763.6.455 1.158.884 1.301 1.225.143.34.052 1.027-.049 1.76-.05.366-.095.744-.058 1.125.036.38.166.784.484 1.092.318.308.736.437 1.133.476.396.04.795.002 1.177-.043.766-.089 1.482-.17 1.836-.029.355.14.796.68 1.264 1.26.234.29.482.583.79.824.306.24.696.432 1.151.432.456-.001.853-.194 1.166-.436.314-.242.568-.538.81-.828.482-.581.94-1.122 1.298-1.264.358-.142 1.073-.065 1.836.022.381.043.776.08 1.174.04.397-.04.818-.173 1.144-.482.326-.309.47-.709.516-1.09.046-.38.01-.76-.031-1.126-.083-.733-.156-1.419-.004-1.76.152-.342.722-.772 1.334-1.229.305-.228.615-.47.87-.767.256-.298.462-.673.468-1.11.005-.436-.19-.814-.438-1.111-.248-.297-.552-.536-.852-.764-.599-.454-1.16-.883-1.302-1.224-.143-.341-.05-1.03.05-1.762.051-.366.094-.743.057-1.123-.036-.38-.166-.784-.484-1.092-.318-.308-.738-.438-1.135-.476-.397-.04-.791 0-1.174.044-.765.09-1.482.17-1.836.03-.354-.141-.797-.68-1.265-1.26-.234-.29-.48-.586-.787-.826-.308-.24-.7-.433-1.155-.432zm4.162 6.6l.727.685-5.799 6.131-3.328-3.146.687-.727 2.602 2.461 5.111-5.404z" style="line-height:normal;font-variant-ligatures:normal;font-variant-position:normal;font-variant-caps:normal;font-variant-numeric:normal;font-variant-alternates:normal;font-feature-settings:normal;text-indent:0;text-align:start;text-decoration-line:none;text-decoration-style:solid;text-decoration-color:#000;text-transform:none;text-orientation:mixed;white-space:normal;shape-padding:0;isolation:auto;mix-blend-mode:normal;solid-color:#000;solid-opacity:1"/></svg>