<svg xmlns="http://www.w3.org/2000/svg" viewBox="0 0 24 24"><path d="M11.912 3.002c-.576.03-1.1.356-1.389.861l-8.3 14.547C1.579 19.54 2.413 21 3.7 21h16.6c1.289 0 2.12-1.46 1.476-2.59l-8.3-14.547a1.702 1.702 0 0 0-1.565-.861zM11.5 8h1v7h-1V8zm.5 8a1 1 0 0 1 1 1 1 1 0 0 1-1 1 1 1 0 0 1-1-1 1 1 0 0 1 1-1z" style="line-height:normal;font-variant-ligatures:normal;font-variant-position:normal;font-variant-caps:normal;font-variant-numeric:normal;font-variant-alternates:normal;font-feature-settings:normal;text-indent:0;text-align:start;text-decoration-line:none;text-decoration-style:solid;text-decoration-color:#000;text-transform:none;text-orientation:mixed;white-space:normal;shape-padding:0;isolation:auto;mix-blend-mode:normal;solid-color:#000;solid-opacity:1"/></svg>