<?xml version="1.0" encoding="UTF-8" standalone="no"?>
<!-- Created with Inkscape (http://www.inkscape.org/) -->

<svg
   xmlns:dc="http://purl.org/dc/elements/1.1/"
   xmlns:cc="http://creativecommons.org/ns#"
   xmlns:rdf="http://www.w3.org/1999/02/22-rdf-syntax-ns#"
   xmlns:svg="http://www.w3.org/2000/svg"
   xmlns="http://www.w3.org/2000/svg"
   xmlns:sodipodi="http://sodipodi.sourceforge.net/DTD/sodipodi-0.dtd"
   xmlns:inkscape="http://www.inkscape.org/namespaces/inkscape"
   width="24"
   height="28.000063"
   viewBox="0 0 6.3499999 7.4083502"
   version="1.1"
   id="svg8"
   inkscape:version="0.92.2 5c3e80d, 2017-08-06"
   sodipodi:docname="factor.svg"
   inkscape:export-filename="/Users/cinnovafe3/Documents/others/factor-ui/src/assets/icons/icon-72x72.png"
   inkscape:export-xdpi="248"
   inkscape:export-ydpi="248">
  <defs
     id="defs2" />
  <sodipodi:namedview
     id="base"
     pagecolor="#ffffff"
     bordercolor="#666666"
     borderopacity="1.0"
     inkscape:pageopacity="0.0"
     inkscape:pageshadow="2"
     inkscape:zoom="9.2857143"
     inkscape:cx="11"
     inkscape:cy="16.500013"
     inkscape:document-units="mm"
     inkscape:current-layer="layer1"
     showgrid="true"
     units="px"
     inkscape:window-width="1440"
     inkscape:window-height="798"
     inkscape:window-x="0"
     inkscape:window-y="1"
     inkscape:window-maximized="1"
     fit-margin-top="0"
     fit-margin-left="0"
     fit-margin-right="0"
     fit-margin-bottom="0">
    <inkscape:grid
       type="xygrid"
       id="grid815"
       originx="0"
       originy="0.52917002" />
  </sodipodi:namedview>
  <metadata
     id="metadata5">
    <rdf:RDF>
      <cc:Work
         rdf:about="">
        <dc:format>image/svg+xml</dc:format>
        <dc:type
           rdf:resource="http://purl.org/dc/dcmitype/StillImage" />
        <dc:title></dc:title>
      </cc:Work>
    </rdf:RDF>
  </metadata>
  <g
     inkscape:label="Capa 1"
     inkscape:groupmode="layer"
     id="layer1"
     transform="translate(0,-290.1208)">
    <path
       style="opacity:1;fill:#ffffff;fill-opacity:1;stroke:none;stroke-width:0.26458332;stroke-linecap:round;stroke-linejoin:round;stroke-miterlimit:4;stroke-dasharray:none;stroke-opacity:1"
       d="M 1.5875,297.52915 C 0.71074796,297.52915 0,296.8184 0,295.94165 v -3.17502 c 1.822538e-6,-1.46125 1.1845812,-2.64583 2.6458333,-2.64583 0,0 1.2399145,1e-5 2.1166665,1e-5 0.876752,0 1.5875,0.71075 1.5875,1.5875 v 4.23334 c 0,0.87675 -0.710748,1.5875 -1.5875,1.5875 z"
       id="path824"
       inkscape:connector-curvature="0"
       sodipodi:nodetypes="ccccscscc" />
    <path
       style="opacity:0.9;fill:#007bff;fill-opacity:1;stroke:none;stroke-width:0.5291667;stroke-linecap:round;stroke-linejoin:round;stroke-miterlimit:4;stroke-dasharray:none;stroke-opacity:1"
       d="m 5.2916665,295.94163 a 0.52916668,0.52916668 0 0 1 -0.5291666,0.52918 0.52916668,0.52916668 0 0 1 -0.5291667,-0.52918 0.52916668,0.52916668 0 0 1 0.5291667,-0.52916 0.52916668,0.52916668 0 0 1 0.5291666,0.52916 z"
       id="path827"
       inkscape:connector-curvature="0" />
    <path
       style="opacity:0.9;fill:#666666;fill-opacity:1;stroke:none;stroke-width:0.5291667;stroke-linecap:round;stroke-linejoin:round;stroke-miterlimit:4;stroke-dasharray:none;stroke-opacity:1"
       d="m 3.7041666,294.35413 c 0.2922556,-2e-5 0.5291738,-0.23694 0.5291664,-0.5292 -3.6e-6,-0.29224 -0.2369186,-0.52916 -0.5291664,-0.52912 l -1.0583331,2e-5 c -0.2922482,-2e-5 -0.5291632,-0.23694 -0.5291668,-0.52918 -7.4e-6,-0.29226 0.2369108,-0.52918 0.5291668,-0.5292 h 2.1166664 c 0.2922558,2e-5 0.529174,-0.2369 0.5291666,-0.52916 -3.6e-6,-0.29224 -0.2369186,-0.52916 -0.5291666,-0.52916 H 2.6458335 c -0.876752,2e-5 -1.5875,0.71076 -1.5875,1.58752 l -2e-7,3.175 c -7.4e-6,0.29224 0.2369107,0.52916 0.5291667,0.52916 0.2922559,0 0.5291741,-0.23692 0.5291665,-0.52916 l 10e-8,-1.32291 c 1.8e-6,-0.14612 0.1184593,-0.26458 0.2645834,-0.26458 z"
       id="path829"
       inkscape:connector-curvature="0"
       sodipodi:nodetypes="ccccccccscscscccc" />
  </g>
</svg>
