<?xml version="1.0" encoding="UTF-8" standalone="no"?>
<!-- Created with Inkscape (http://www.inkscape.org/) -->

<svg
   xmlns:dc="http://purl.org/dc/elements/1.1/"
   xmlns:cc="http://creativecommons.org/ns#"
   xmlns:rdf="http://www.w3.org/1999/02/22-rdf-syntax-ns#"
   xmlns:svg="http://www.w3.org/2000/svg"
   xmlns="http://www.w3.org/2000/svg"
   xmlns:sodipodi="http://sodipodi.sourceforge.net/DTD/sodipodi-0.dtd"
   xmlns:inkscape="http://www.inkscape.org/namespaces/inkscape"
   width="112"
   height="20.000088"
   viewBox="0 0 29.633333 5.29169"
   version="1.1"
   id="svg8"
   inkscape:version="0.92.2 5c3e80d, 2017-08-06"
   sodipodi:docname="logo-factor.svg"
   inkscape:export-filename="/Users/cinnovafe3/Documents/others/factor-ui/src/assets/favicon.png"
   inkscape:export-xdpi="64"
   inkscape:export-ydpi="64">
  <defs
     id="defs2" />
  <sodipodi:namedview
     id="base"
     pagecolor="#ffffff"
     bordercolor="#666666"
     borderopacity="1.0"
     inkscape:pageopacity="0.0"
     inkscape:pageshadow="2"
     inkscape:zoom="15.363302"
     inkscape:cx="15.9833"
     inkscape:cy="12.300837"
     inkscape:document-units="mm"
     inkscape:current-layer="layer1"
     showgrid="true"
     units="px"
     inkscape:window-width="1440"
     inkscape:window-height="798"
     inkscape:window-x="0"
     inkscape:window-y="1"
     inkscape:window-maximized="1"
     fit-margin-top="0"
     fit-margin-left="0"
     fit-margin-right="0"
     fit-margin-bottom="0">
    <inkscape:grid
       type="xygrid"
       id="grid815"
       originx="-1.0583333"
       originy="-0.52916016" />
  </sodipodi:namedview>
  <metadata
     id="metadata5">
    <rdf:RDF>
      <cc:Work
         rdf:about="">
        <dc:format>image/svg+xml</dc:format>
        <dc:type
           rdf:resource="http://purl.org/dc/dcmitype/StillImage" />
        <dc:title></dc:title>
      </cc:Work>
    </rdf:RDF>
  </metadata>
  <g
     inkscape:label="Capa 1"
     inkscape:groupmode="layer"
     id="layer1"
     transform="translate(-1.0583333,-291.17913)">
    <path
       style="opacity:0.9;fill:#85c83b;fill-opacity:1;stroke:none;stroke-width:0.5291667;stroke-linecap:round;stroke-linejoin:round;stroke-miterlimit:4;stroke-dasharray:none;stroke-opacity:1"
       d="m 30.691667,295.94163 a 0.52916668,0.52916668 0 0 1 -0.529166,0.52918 0.52916668,0.52916668 0 0 1 -0.529167,-0.52918 0.52916668,0.52916668 0 0 1 0.529167,-0.52916 0.52916668,0.52916668 0 0 1 0.529166,0.52916 z"
       id="path827"
       inkscape:connector-curvature="0" />
    <path
       style="opacity:1;fill:#767676;fill-opacity:1;stroke:none;stroke-width:1.99999988;stroke-linecap:round;stroke-linejoin:miter;stroke-miterlimit:4;stroke-dasharray:none;stroke-opacity:1"
       d="m 26,18 c -1.10457,0 -2,-0.89543 -2,-2 0,-1.10457 0.89543,-2 2,-2 1.10457,0 2,-0.89543 2,-2 0,-1.10457 -0.89543,-2.0000001 -2,-2 -0.05347,4.58e-4 -0.106896,0.0031 -0.160156,0.0078 C 22.600898,10.093522 20,12.74037 20,16 c 0,3.313709 2.686291,6 6,6 l 7.999997,2.5e-5 c 1.104574,0 2.000007,-0.895445 2,-2.000012 L 36,8.0000127 C 36,4.6862741 33.313709,2.0000126 30,2.0000126 23.333334,1.9999481 16.666667,1.999937 10.000001,1.999937 6.6862924,2.0000126 4.0000007,4.6862741 4.0000007,8.0000127 l -8e-7,12.0000003 c -2.79e-5,1.104529 0.8954106,1.999975 2.0000002,1.999975 1.1045892,0 2.0000281,-0.895446 1.9999994,-1.999975 l 3e-7,-4.999975 c 6.9e-6,-0.552265 0.4477202,-0.999987 1.0000003,-0.999987 L 14,13.999937 c 1.104588,-7.5e-5 2.000027,-0.895521 1.999999,-2.000126 C 15.999985,10.895282 15.104559,9.9998363 14,9.9999875 l -3.999999,7.55e-5 C 8.8954406,9.9999875 8.0000138,9.1045418 8.0000002,8.0000127 7.9999723,6.895408 8.8954111,5.9999623 10.000001,5.9998867 16.666667,5.9998528 23.333334,5.9999371 30,6 c 1.10457,-1e-7 2,0.8954305 2,2 l 10e-7,8.999975 c -7e-6,0.552265 -0.44772,0.999987 -1,0.999987 z"
       transform="matrix(0.26458333,0,0,0.26458333,0,290.64998)"
       id="path817"
       inkscape:connector-curvature="0"
       sodipodi:nodetypes="csssccsccccccscscccccccccccccc" />
    <path
       style="opacity:1;fill:#767676;fill-opacity:1;stroke:none;stroke-width:0.52916664;stroke-linecap:round;stroke-linejoin:miter;stroke-miterlimit:4;stroke-dasharray:none;stroke-opacity:1"
       d="m 16.404166,292.23748 h 1.5875 c 0.292256,0 0.529174,-0.23691 0.529167,-0.52917 -4e-6,-0.29225 -0.236919,-0.52916 -0.529167,-0.52916 H 12.7 c -1.461254,0 -2.645833,1.18458 -2.645833,2.64583 0,1.46125 1.184579,2.64583 2.645833,2.64583 h 1.058333 c 0.292256,0 0.529174,-0.23691 0.529167,-0.52916 -4e-6,-0.29225 -0.236919,-0.52917 -0.529167,-0.52917 H 12.7 c -0.876752,0 -1.5875,-0.71075 -1.5875,-1.5875 0,-0.87675 0.710748,-1.5875 1.5875,-1.5875 h 2.645833 c -1e-6,1.23472 3e-6,2.46943 -2e-6,3.70415 -7e-6,0.29226 0.236911,0.52918 0.529167,0.52918 0.292256,0 0.529174,-0.23692 0.529166,-0.52918 5e-6,-1.23472 2e-6,-2.46943 2e-6,-3.70415 z"
       id="path838"
       inkscape:connector-curvature="0"
       sodipodi:nodetypes="cscsssscccsssccscc" />
    <path
       style="opacity:1;fill:#767676;fill-opacity:1;stroke:none;stroke-width:0.52916664;stroke-linecap:round;stroke-linejoin:miter;stroke-miterlimit:4;stroke-dasharray:none;stroke-opacity:1"
       d="m 21.166666,291.17915 a 2.6458332,2.6458332 0 0 0 -2.645833,2.64583 2.6458332,2.6458332 0 0 0 2.645833,2.64583 2.6458332,2.6458332 0 0 0 2.645833,-2.64583 2.6458332,2.6458332 0 0 0 -2.645833,-2.64583 z m 0,1.05833 a 1.5875,1.5875 0 0 1 1.5875,1.5875 1.5875,1.5875 0 0 1 -1.5875,1.5875 1.5875,1.5875 0 0 1 -1.5875,-1.5875 1.5875,1.5875 0 0 1 1.5875,-1.5875 z"
       id="path854"
       inkscape:connector-curvature="0" />
    <path
       style="opacity:1;fill:#767676;fill-opacity:1;stroke:none;stroke-width:1.99999988;stroke-linecap:round;stroke-linejoin:miter;stroke-miterlimit:4;stroke-dasharray:none;stroke-opacity:1"
       d="m 94,2 c -1.104559,0 -1.999985,0.895433 -2,2 v 16 c -2.6e-5,1.104605 0.895411,2 2,2 1.10459,0 2.000026,-0.895395 2,-2 0,0 7e-6,-12.4477207 0,-13 -1.4e-5,-0.5522941 0.447706,-0.9999994 1,-1 0.552296,-1.4e-6 5,0 5,0 1.10457,-1e-7 2,0.8954305 2,2 0,1.1045695 -0.89543,2 -2,2 h -1.002 c -1.104558,0 -1.999984,0.895433 -1.999999,2 -2.6e-5,1.104605 0.89541,2 1.999999,2 H 102 c 1.10457,0 2,0.895433 2,2 v 4 c -3e-5,1.104605 0.89541,2 2,2 1.10459,0 2.00002,-0.895395 2,-2 v -4 c 0,-1.539138 -0.58435,-2.937885 -1.53711,-4 C 107.41565,10.937886 108,9.5391417 108,8 108,4.6862915 105.31371,1.9999999 102,2 Z"
       transform="matrix(0.26458333,0,0,0.26458333,0,290.64998)"
       id="path859"
       inkscape:connector-curvature="0"
       sodipodi:nodetypes="sccsccccssscssscscscsss" />
  </g>
</svg>
