<?xml version="1.0" encoding="UTF-8" standalone="no"?>
<svg xmlns="http://www.w3.org/2000/svg" width="112" height="20" viewBox="0 0 29.633 5.292">
  <path fill="#6572ee" d="M29.633 4.762a.53.53 0 0 1-.529.53.53.53 0 0 1-.529-.53.53.53 0 0 1 .53-.529.53.53 0 0 1 .528.53z" opacity=".9"/>
  <path fill="#767676" d="M5.82 4.233a.53.53 0 1 1 0-1.058.53.53 0 1 0-.042-1.056 1.587 1.587 0 0 0 .043 3.173h2.116a.53.53 0 0 0 .53-.53V1.589C8.467.71 7.756 0 6.879 0H1.588C.71 0 0 .71 0 1.588v3.175a.53.53 0 1 0 1.058 0V3.44c0-.147.119-.265.265-.265h1.323a.53.53 0 0 0 0-1.058H1.588a.53.53 0 0 1 0-1.059h5.291a.53.53 0 0 1 .53.53v2.38a.265.265 0 0 1-.265.265zM15.346 1.058h1.587a.53.53 0 1 0 0-1.058h-5.291a2.646 2.646 0 1 0 0 5.292H12.7a.53.53 0 1 0 0-1.059h-1.058a1.588 1.588 0 0 1 0-3.175h2.645v3.705a.53.53 0 1 0 1.059 0V1.058zM20.108 0a2.646 2.646 0 0 0-2.646 2.646 2.646 2.646 0 0 0 2.646 2.646 2.646 2.646 0 0 0 2.646-2.646A2.646 2.646 0 0 0 20.108 0zm0 1.058a1.587 1.587 0 0 1 1.588 1.588 1.587 1.587 0 0 1-1.588 1.587 1.587 1.587 0 0 1-1.587-1.587 1.587 1.587 0 0 1 1.587-1.588zM23.812 0a.53.53 0 0 0-.529.53v4.233a.53.53 0 1 0 1.059 0v-3.44c0-.146.118-.265.264-.265h1.323a.53.53 0 1 1 0 1.059h-.265a.53.53 0 0 0 0 1.058h.265a.53.53 0 0 1 .53.53v1.058a.53.53 0 1 0 1.058 0V3.704a1.58 1.58 0 0 0-.407-1.058A1.587 1.587 0 0 0 25.93 0z"/>
</svg>
