<svg xmlns="http://www.w3.org/2000/svg" viewBox="0 0 134 24">
<path fill="#6572ee" d="M134.39 21.596c0 0 0 0 0 0 0 1.326-1.074 2.401-2.399 2.404h-0c-1.326-0.003-2.399-1.078-2.399-2.404 0 0 0 0 0 0v0c0.003-1.326 1.078-2.399 2.404-2.399 0 0 0 0 0 0v0c1.324 0.005 2.395 1.079 2.395 2.404 0 0 0 0 0 0v0z"></path>
<path fill="#767676" d="M26.395 19.197c-0.044 0.003-0.096 0.005-0.148 0.005-1.327 0-2.404-1.076-2.404-2.404s1.076-2.404 2.404-2.404c0.052 0 0.103 0.002 0.155 0.005l-0.007-0c0.027 0.001 0.059 0.002 0.090 0.002 1.327 0 2.404-1.076 2.404-2.404s-1.076-2.404-2.404-2.404c-0.099 0-0.196 0.006-0.292 0.018l0.012-0.001c-3.866 0.138-6.948 3.306-6.948 7.193 0 3.956 3.191 7.166 7.14 7.197l0.003 0h9.596c1.327 0 2.404-1.076 2.404-2.404v0-14.39c0-3.986-3.224-7.206-7.202-7.206h-23.995c-3.982 0-7.202 3.22-7.202 7.202v14.399c-0.003 0.044-0.005 0.096-0.005 0.148 0 1.327 1.076 2.404 2.404 2.404s2.404-1.076 2.404-2.404c0-0.052-0.002-0.103-0.005-0.155l0 0.007v-6c0-0.667 0.54-1.202 1.202-1.202h6c1.262-0.080 2.256-1.124 2.256-2.399s-0.994-2.319-2.249-2.399l-0.007-0h-4.798c-1.282-0.057-2.299-1.111-2.299-2.401s1.017-2.344 2.294-2.401l0.005-0h23.995c1.327 0 2.404 1.076 2.404 2.404v0 10.794c0 0.664-0.538 1.202-1.202 1.202v0zM69.596 4.798h7.197c0.044 0.003 0.096 0.005 0.148 0.005 1.327 0 2.404-1.076 2.404-2.404s-1.076-2.404-2.404-2.404c-0.052 0-0.103 0.002-0.155 0.005l0.007-0h-23.995c-6.627 0-12 5.373-12 12s5.373 12 12 12v0h4.798c0.031 0.001 0.068 0.002 0.104 0.002 1.327 0 2.404-1.076 2.404-2.404s-1.076-2.404-2.404-2.404c-0.037 0-0.073 0.001-0.11 0.002l0.005-0h-4.798c-3.899-0.101-7.021-3.286-7.021-7.2s3.122-7.099 7.012-7.199l0.009-0h11.995v16.803c-0.001 0.031-0.002 0.068-0.002 0.104 0 1.327 1.076 2.404 2.404 2.404s2.404-1.076 2.404-2.404c0-0.037-0.001-0.073-0.002-0.11l0 0.005v-16.803zM91.193 0c-6.627 0-12 5.373-12 12v0c0 6.627 5.373 12 12 12v0c6.627 0 12-5.373 12-12v0c0-6.627-5.373-12-12-12v0zM91.193 4.798c0.001 0 0.003 0 0.005 0 3.975 0 7.197 3.222 7.197 7.197 0 0.002 0 0.003 0 0.005v-0c0 3.975-3.222 7.197-7.197 7.197-0.002 0-0.003 0-0.005 0h0c-3.975 0-7.197-3.222-7.197-7.197v0c0-0.001 0-0.003 0-0.005 0-3.975 3.222-7.197 7.197-7.197v0zM107.991 0c-1.326 0.003-2.399 1.078-2.399 2.404 0 0 0 0 0 0v0 19.197c-0.001 0.031-0.002 0.068-0.002 0.104 0 1.327 1.076 2.404 2.404 2.404s2.404-1.076 2.404-2.404c0-0.037-0.001-0.073-0.002-0.11l0 0.005v-15.601c0-0.662 0.535-1.202 1.197-1.202h6c0.031-0.001 0.068-0.002 0.104-0.002 1.327 0 2.404 1.076 2.404 2.404s-1.076 2.404-2.404 2.404c-0.037 0-0.073-0.001-0.11-0.002l0.005 0h-1.202c-1.262 0.080-2.256 1.124-2.256 2.399s0.994 2.319 2.249 2.399l0.007 0h1.202c1.327 0 2.404 1.076 2.404 2.404v0 4.798c-0.003 0.044-0.005 0.096-0.005 0.148 0 1.327 1.076 2.404 2.404 2.404s2.404-1.076 2.404-2.404c0-0.052-0.002-0.103-0.005-0.155l0 0.007v-4.803c-0.001-1.849-0.701-3.534-1.851-4.804l0.005 0.006c1.14-1.268 1.837-2.954 1.837-4.803 0-3.972-3.217-7.192-7.188-7.197h-0z"></path>
</svg>
