<svg xmlns="http://www.w3.org/2000/svg" viewBox="0 0 24 24"><g fill="none" stroke="#000" stroke-width="2"><path stroke-linejoin="round" d="M5.958 10.38L5 19c-.122 1.098.895 2 2 2s2.122-.902 2-2l-.958-8.62"/><path stroke-linecap="round" stroke-linejoin="round" d="M4 3v4.57a3 3 0 0 0 1.935 2.806m2.079.019A3.001 3.001 0 0 0 10 7.57V3"/><path stroke-linecap="round" d="M7 3v4.5"/><path stroke-linejoin="round" d="M15.921 10.711L15 19c-.122 1.098.895 2 2 2s2.122-.902 2-2l-.921-8.292"/><path stroke-linecap="round" stroke-linejoin="round" d="M15.91 10.728C14.792 10.147 14 8.697 14 7c0-2.209 1.343-4 3-4 1.656 0 3 1.791 3 4 0 1.702-.798 3.156-1.922 3.734"/></g></svg>