<svg xmlns="http://www.w3.org/2000/svg" viewBox="0 0 24 24"><g stroke="#000"><path stroke-linejoin="round" d="M7.36 15.44c.458.937-.227 2.17-1.53 2.755-1.304.585-2.732.3-3.19-.636-.458-.936.227-2.169 1.53-2.754 1.304-.585 2.732-.3 3.19.636z"/><path fill="none" stroke-linejoin="round" stroke-width="2" d="M7 16V5.5l8-3V13"/><path fill="none" d="M7.5 8.5l8-3"/><path fill="none" stroke-linecap="round" stroke-linejoin="round" stroke-width="2" d="M21 14.5s.515-2.629-1-4c-1.515-1.371-2-3-2-3V19"/><path stroke-linejoin="round" d="M15.36 12.44c.458.937-.227 2.17-1.53 2.755-1.304.585-2.732.3-3.19-.636-.458-.936.227-2.169 1.53-2.754 1.304-.585 2.732-.3 3.19.636zM18.36 18.44c.458.937-.227 2.17-1.53 2.755-1.304.585-2.732.3-3.19-.636-.458-.936.227-2.169 1.53-2.754 1.304-.585 2.732-.3 3.19.636z"/></g></svg>