<svg xmlns="http://www.w3.org/2000/svg" viewBox="0 0 24 24"><g fill="none" stroke="#000" transform="translate(0 -1028.362)"><path d="M13 1037.862h6M13 1040.862h6"/><circle cx="8" cy="1038.362" r="1.5" stroke-linejoin="round"/><path stroke-linejoin="round" d="M10.5 1042.112c0 .375-1.12.75-2.5.75s-2.5-.375-2.5-.75c0-1.243 1.12-2.25 2.5-2.25s2.5 1.007 2.5 2.25z"/><path stroke-linejoin="round" d="M3.53 1033.862h16.94c.57 0 1.03.46 1.03 1.03v10.94c0 .57-.46 1.03-1.03 1.03H3.53c-.57 0-1.03-.46-1.03-1.03v-10.94c0-.57.46-1.03 1.03-1.03z"/></g></svg>