<svg xmlns="http://www.w3.org/2000/svg" viewBox="0 0 24 24"><g fill="none" stroke="#000" stroke-linejoin="round"><path d="M5.5 13.5h5c.554 0 1-.446 1-1v-8c0-.554-.446-1-1-1h-5c-.554 0-1 .446-1 1v8c0 .554.446 1 1 1zM14.5 8.5h5c.554 0 1-.446 1-1v-3c0-.554-.446-1-1-1h-5c-.554 0-1 .446-1 1v3c0 .554.446 1 1 1zM14.5 20.5h5c.554 0 1-.446 1-1v-8c0-.554-.446-1-1-1h-5c-.554 0-1 .446-1 1v8c0 .554.446 1 1 1zM5.5 20.5h5c.554 0 1-.446 1-1v-3c0-.554-.446-1-1-1h-5c-.554 0-1 .446-1 1v3c0 .554.446 1 1 1z"/></g></svg>