<svg xmlns="http://www.w3.org/2000/svg" viewBox="0 0 24 24"><path fill="none" stroke="#000" d="M8.59 4.41h10.82c1.208 0 2.18.972 2.18 2.18v5.82c0 1.208-.967 2.18-2.175 2.18v3.189l-4.991-3.189H8.59a2.176 2.176 0 0 1-2.18-2.18V6.59c0-1.208.972-2.18 2.18-2.18z"/><path fill="none" stroke="#000" d="M6.5 8.41H4.68c-1.207 0-2.18.972-2.18 2.18v4.82c0 1.208.968 2.18 2.176 2.18V21l4.276-3.41h4.225c1.208 0 2.18-.972 2.18-2.18V15"/><path d="M16.211 12.961c-.197.152-1.933-1.18-2.178-1.178-.245 0-1.965 1.355-2.164 1.206-.2-.15.477-2.284.4-2.527-.077-.243-1.841-1.532-1.767-1.776.075-.244 2.228-.231 2.425-.383C13.125 8.15 13.754 6.002 14 6c.245 0 .9 2.14 1.098 2.29.2.148 2.353.109 2.43.352.077.243-1.672 1.554-1.746 1.798-.075.244.627 2.37.43 2.521z"/></svg>