<svg xmlns="http://www.w3.org/2000/svg" viewBox="0 0 24 24"><path fill="none" stroke="#000" stroke-linejoin="round" d="M19.497 7.501l.003 13.09c0 .504-.405.91-.909.91H5.41a.907.907 0 0 1-.91-.91V3.409c0-.504.406-.91.91-.91h9.09"/><path fill="none" stroke="#000" stroke-linejoin="round" stroke-width=".994" d="M19.5 7.5h-4c-.504 0-1-.496-1-1v-4z"/><path d="M8 3h1v1H8zM9 4h1v1H9zM8 5h1v1H8zM9 6h1v1H9zM8 7h1v1H8zM9 8h1v1H9zM8 9h1v1H8zM9 10h1v1H9zM8 11h1v1H8zM9 12h1v1H9z"/><path fill="none" stroke="#000" stroke-linecap="square" stroke-linejoin="round" d="M8 13.5h2l.5 4h-3z"/></svg>