<svg xmlns="http://www.w3.org/2000/svg" viewBox="0 0 24 24"><g transform="translate(0 -1028.362)"><rect width="17" height="17" x="3.5" y="1031.862" fill="none" stroke="#000" stroke-linejoin="round" rx="1.03"/><path fill="none" stroke="#000" stroke-linecap="round" stroke-linejoin="round" d="M14.5 1040.362l-5 3.5v-7z"/><path d="M5 1033.362h2v2H5zM5 1036.362h2v2H5zM5 1039.362h2v2H5zM5 1042.362h2v2H5zM5 1045.362h2v2H5zM17 1033.362h2v2h-2zM17 1036.362h2v2h-2zM17 1039.362h2v2h-2zM17 1042.362h2v2h-2zM17 1045.362h2v2h-2z"/></g></svg>