<svg xmlns="http://www.w3.org/2000/svg" viewBox="0 0 24 24"><g transform="translate(0 -1028.362)"><path fill="none" stroke="#000" stroke-linejoin="round" d="M12 1047.862H5.47a.968.968 0 0 1-.97-.97v-14.06c0-.537.432-.97.97-.97h14.06c.538 0 .97.433.97.97v7.53"/><path fill="none" stroke="#000" d="M11 1035.862h7M11 1039.862h4M11 1043.862h2"/><rect width="3" height="3" x="7" y="1034.362" rx="6"/><rect width="3" height="3" x="7" y="1038.362" rx="6"/><rect width="3" height="3" x="7" y="1042.362" rx="6"/><path fill="none" stroke="#000" stroke-linecap="square" d="M18.833 1048.106a1.333 1.333 0 1 1-2.667 0"/><path fill="none" stroke="#000" d="M18.301 1041.02a2.933 2.933 0 0 1 2.13 2.82l.002 1.866 1.067 1.067v1.067h-8v-1.067l1.066-1.067.002-1.866c0-1.341.9-2.472 2.13-2.82l.002-.38a.8.8 0 0 1 1.6 0z"/></g></svg>