<svg xmlns="http://www.w3.org/2000/svg" viewBox="0 0 24 24"><g fill="none" stroke="#000"><path stroke-linejoin="round" stroke-width=".972" d="M15.5 4.486h2.225c.437 0 .79.352.79.79v14.448c0 .438-.353.79-.79.79H6.275a.788.788 0 0 1-.79-.79V5.275c0-.437.353-.79.79-.79H8.5"/><path stroke-linecap="square" d="M11.492 2.5h1.016c.545 0 .589.61.984.985l2 .956v1.074c0 .545-.439.984-.984.984H9.492c-.545 0-.984-.499-.984-.984V4.52l2-1.035c.484-.25.439-.985.984-.985z"/><path d="M8 14.5h8M8 17.5h8M14.097 8.827l-2.73 2.887-1.484-1.403"/></g></svg>