<svg xmlns="http://www.w3.org/2000/svg" viewBox="0 0 24 24"><g fill="none" stroke="#000"><path stroke-linecap="square" d="M16.29 12.5l-.112 1.048a3.553 3.553 0 0 0-1.037.432l-.82-.664-1.005 1.005.664.82a3.553 3.553 0 0 0-.433 1.038l-1.047.11v1.422l1.048.11a3.553 3.553 0 0 0 .43 1.041l-.662.817 1.005 1.005.818-.662a3.553 3.553 0 0 0 1.04.43l.11 1.048h1.422l.11-1.048a3.553 3.553 0 0 0 1.038-.432l.82.664 1.005-1.005-.664-.82a3.553 3.553 0 0 0 .433-1.038l1.047-.11v-1.422l-1.048-.11a3.553 3.553 0 0 0-.43-1.041l.662-.817-1.005-1.005-.818.662a3.553 3.553 0 0 0-1.04-.43l-.11-1.048zm.71 3.316A1.184 1.184 0 0 1 18.184 17 1.184 1.184 0 0 1 17 18.184 1.184 1.184 0 0 1 15.816 17 1.184 1.184 0 0 1 17 15.816z"/><g stroke-linejoin="round" transform="translate(0 -1028.362)"><circle cx="12" cy="1035.362" r="4.5"/><path d="M16.247 1049.388c-1.208.293-2.67.474-4.247.474-4.142 0-7.5-1.25-7.5-2.5a7.5 7.5 0 0 1 11.666-6.237"/></g></g></svg>