<svg xmlns="http://www.w3.org/2000/svg" viewBox="0 0 24 24"><g fill="none" stroke="#000" transform="translate(0 -1028.362)"><path stroke-linejoin="round" d="M14.834 1048.848H4.543c-.57 0-1.029-.459-1.029-1.029v-14.914c0-.57.459-1.028 1.029-1.028h14.914c.57 0 1.029.458 1.029 1.028v10.209"/><path d="M7 1041.862h10.5M7 1044.862h6.5"/><circle cx="11.902" cy="1035.261" r="1.441" stroke-linejoin="round"/><path stroke-linejoin="round" d="M14.304 1039.104c0 .4-1.076.8-2.402.8-1.327 0-2.402-.4-2.402-.8a2.402 2.402 0 1 1 4.804 0z"/><ellipse cx="17.5" cy="1045.862" stroke-linejoin="round" rx="4" ry="4"/><path d="M19.532 1044.483l-2.455 2.596-1.334-1.262"/></g></svg>