<svg xmlns="http://www.w3.org/2000/svg" viewBox="0 0 24 24"><g fill="none" stroke="#000" transform="translate(0 -1028.362)"><path d="M7 1041.862h6M7 1044.862h4"/><circle cx="8.5" cy="1035.362" r="1.5" stroke-linejoin="round"/><path stroke-linejoin="round" d="M11 1039.112c0 .375-1.12.75-2.5.75s-2.5-.375-2.5-.75c0-1.243 1.12-2.25 2.5-2.25s2.5 1.007 2.5 2.25z"/><path stroke-linejoin="round" d="M11 1048.862H4.53c-.57 0-1.03-.46-1.03-1.03v-14.94c0-.57.46-1.03 1.03-1.03h14.94c.57 0 1.03.46 1.03 1.03v9.47"/><circle cx="15.5" cy="1035.362" r="1.5" stroke-linejoin="round"/><path stroke-linejoin="round" d="M13.726 1039.626c-.45-.14-.726-.327-.726-.514 0-1.243 1.12-2.25 2.5-2.25s2.5 1.007 2.5 2.25"/><path stroke-linecap="round" stroke-linejoin="round" d="M20.499 1048.879a.981.981 0 0 1-.983.983h-6.033a.981.981 0 0 1-.983-.983v-4.025c0-.545.439-.983.983-.983h6.033c.544 0 .983.438.983.983v4.025"/><path stroke-linejoin="round" d="M18.455 1042.362v-.5a2 2 0 1 0-4 0v1.5"/></g></svg>