<svg xmlns="http://www.w3.org/2000/svg" viewBox="0 0 24 24"><path style="line-height:1.25;-inkscape-font-specification:'.SF NS Text Condensed, '" d="M11.972 19h1.843L9.323 5H7.43L2.939 19h1.843l1.165-4h4.84zM8.275 7.222h.155l1.912 6.278h-3.95zM16.935 17.766C15.87 17.766 15 17.2 15 16.135c0-1.056.774-1.555 2.185-1.718l2.291-.211v1.19c0 1.391-1.14 2.37-2.541 2.37zm-.413 1.458c1.21 0 2.44-.566 2.978-1.564h.024L19.401 19H21v-7.107c0-2.1-1.263-2.93-3.547-2.93-2.092 0-3.3 1.271-3.453 3.037h1.5c.182-.93.773-1.55 1.905-1.55 1.267 0 2.071.254 2.071 1.482v.93l-2.541.24c-2.312.27-3.435 1.267-3.435 3.09 0 1.9 1.238 3.032 3.022 3.032z" letter-spacing="-1.927" word-spacing="0"/></svg>