<svg xmlns="http://www.w3.org/2000/svg" viewBox="0 0 24 24"><g fill="none" stroke="#000"><path stroke-linejoin="round" d="M4.543 3.514h14.914c.57 0 1.029.459 1.029 1.029v14.914c0 .57-.459 1.029-1.029 1.029H4.543c-.57 0-1.029-.459-1.029-1.029V4.543c0-.57.459-1.029 1.029-1.029z"/><path d="M7 13.5h10M7 16.5h10M14.003 6.5l-2.245-.01c-.805-.01-1.258.447-1.258 1.006 0 .56.453 1.013 1.013 1.013.559 0 2-.025 2-.025.559 0 1.012.453 1.012 1.012 0 .56-.453 1.013-1.262 1.007h-3.25M12.5 12v-1.628M12.5 5v1.496"/></g></svg>