<svg xmlns="http://www.w3.org/2000/svg" viewBox="0 0 24 24"><g fill="none" stroke="#000" transform="translate(0 -1028.362)"><path stroke-linejoin="round" stroke-width=".963" d="M5.635 1033.844h14.73c.639 0 1.154.514 1.154 1.153v9.73c0 .64-.515 1.154-1.154 1.154H5.635c-.64 0-1.154-.515-1.154-1.154v-9.73c0-.639.515-1.153 1.154-1.153z"/><rect width="6.009" height="2.009" x="13.496" y="1036.858" stroke-linejoin="round" rx="0"/><path d="M6 1042.862h5M6 1040.862h14M6 1038.862h6"/><path stroke-width=".969" d="M12.343 1043.192c.532-.563 1.578-.94 1.875-.814.297.127-.018.669-.006.979.011.31.167.64.455.48.467-.323.82-.763 1.217-1.111.197-.173.654-.426.777-.106.1.26-.08.553-.088.832-.005.187.487.735.947-.082.46-.817 1.415-.67 1.415-.67"/><path d="M1 1040.862h3M2 1038.862h3M3 1036.862h5"/></g></svg>