<svg xmlns="http://www.w3.org/2000/svg" viewBox="0 0 24 24"><g fill="none" stroke="#000" transform="translate(0 -1028.362)"><path stroke-linejoin="round" stroke-width=".939" d="M13.534 1045.893h-9.97a1.092 1.092 0 0 1-1.095-1.095v-9.872c0-.606.489-1.094 1.095-1.094h15.872c.606 0 1.095.488 1.095 1.094v8.196"/><rect width="6.009" height="2.009" x="11.496" y="1036.858" stroke-linejoin="round" rx="0"/><path d="M4 1042.862h6M4 1040.862h14M4 1038.862h6"/><path stroke-width=".969" d="M12.343 1043.192c.532-.563 1.578-.94 1.875-.814.297.127-.018.669-.006.979"/><circle cx="17.5" cy="1045.862" r="4" stroke-linejoin="round"/><path d="M15 1045.862h5"/></g></svg>