<svg xmlns="http://www.w3.org/2000/svg" viewBox="0 0 24 24"><g fill="none" stroke="#000" transform="translate(0 -1028.362)"><path stroke-linejoin="round" d="M13.5 1048.862H4.53c-.57 0-1.03-.46-1.03-1.03v-14.94c0-.57.46-1.03 1.03-1.03h14.94c.57 0 1.03.46 1.03 1.03v8.97"/><path d="M4 1036.862h16"/><rect width="5" height="4" x="6.5" y="1039.862" stroke-linejoin="round" rx="0"/><path d="M7.5 1034.362v-4M16.5 1034.362v-4M17.98 1042.885l-2.245-.01c-.804-.01-1.258.447-1.258 1.006 0 .56.454 1.013 1.013 1.013.559 0 2-.025 2-.025.559 0 1.012.453 1.012 1.012 0 .56-.453 1.013-1.262 1.006h-3.25M16.5 1048.385v-1.628M16.477 1041.385v1.496"/><circle cx="16.5" cy="1044.862" r="4.95" stroke-linecap="square" stroke-width="1.1"/></g></svg>