<svg xmlns="http://www.w3.org/2000/svg" viewBox="0 0 24 24"><g fill="none" stroke="#000" transform="translate(0 -1028.362)"><path d="M13 1033.862h-2.265c-.804-.01-1.235.441-1.235 1 0 .56.43 1.032.99 1.032.559 0 2-.032 2-.032a1 1 0 0 1 1.01 1c0 .559-.451 1.006-1.26 1H9M11.5 1039.362v-1.5M11.5 1032.362v1.5"/><circle cx="11.5" cy="1035.862" r="5" stroke-linecap="square"/><path stroke-linecap="round" d="M4.5 1048.862v-3c0-1.108.892-2 2-2h10c1.108 0 2 .892 2 2v3"/><path d="M13.5 1047.362l-2 2-2-2M6.5 1047.362l-2 2-2-2M20.5 1047.362l-2 2-2-2M11.5 1049.362v-9"/></g></svg>