<svg xmlns="http://www.w3.org/2000/svg" viewBox="0 0 24 24"><g fill="none" stroke="#000" transform="translate(0 -1028.362)"><circle cx="6" cy="1044.362" r="1.5" stroke-linecap="round" stroke-linejoin="round"/><path d="M8 1046.862h2"/><path stroke-linecap="round" stroke-linejoin="round" d="M7.508 1037.067a5.502 5.502 0 0 0-4.008 5.295c.002.167.01.334.027.5H1.5v4h2l1 3h9l1-3h2v-4h-2.025a5.476 5.476 0 0 0-.592-3.033m-1.509-1.81a5.483 5.483 0 0 0-1.77-.919"/><circle cx="12" cy="1044.362" r="1.5" stroke-linecap="round" stroke-linejoin="round"/><path stroke-linecap="round" stroke-linejoin="round" d="M7.5 1034.862h3v5h-3z"/><path d="M18.98 1032.885l-2.245-.01c-.804-.01-1.258.447-1.258 1.006 0 .56.454 1.013 1.013 1.013.559 0 2-.025 2-.025.559 0 1.012.453 1.012 1.012 0 .56-.453 1.013-1.262 1.007h-3.25M17.5 1038.385v-1.628M17.477 1031.385v1.496"/><path stroke-linecap="square" stroke-width="1.1" d="M22.45 1034.862a4.95 4.95 0 0 1-6.926 4.54l-3.524.96.946-3.556a4.95 4.95 0 1 1 9.504-1.944z"/></g></svg>