<svg xmlns="http://www.w3.org/2000/svg" viewBox="0 0 24 24"><g fill="none" stroke="#000" transform="translate(0 -1028.362)"><path stroke-linejoin="round" d="M4.5 1045.862v-12c0-.554.446-1 1-1h7.917m6.083 7.96v5.04M2.5 1045.862v1c0 .554.446 1 1 1h17c.554 0 1-.446 1-1v-1z"/><path d="M17.98 1034.885l-2.245-.01c-.804-.01-1.258.447-1.258 1.006 0 .56.454 1.013 1.013 1.013.559 0 2-.025 2-.025.559 0 1.012.453 1.012 1.012 0 .56-.453 1.013-1.262 1.006h-3.25M16.5 1040.385v-1.628M16.477 1033.385v1.496"/><circle cx="16.5" cy="1036.862" r="4.95" stroke-linecap="square" stroke-width="1.1"/></g></svg>