<svg xmlns="http://www.w3.org/2000/svg" viewBox="0 0 24 24"><g fill="none" stroke="#000"><path stroke-linejoin="round" d="M13.5 17c0-1.105.895-3 2-3v-3.5A1.5 1.5 0 0 1 17 9h.45v5.5c0 2.184-1.414 5.843-3.377 6.5m-3.955 0c-1.286-.707-2.224-3.494-2.49-5.476"/><path stroke-linejoin="round" d="M13.461 15.5h-8.93c-.571 0-1.031-.46-1.031-1.03V6.53c0-.57.46-1.03 1.03-1.03h14.94c.57 0 1.03.46 1.03 1.03v7.94c0 .57-.46 1.03-1.03 1.03h-1.81"/><path d="M13.98 8.523l-2.245-.01c-.804-.01-1.258.447-1.258 1.006 0 .56.454 1.012 1.013 1.012.559 0 1-.025 1-.025.559 0 1.012.454 1.012 1.013 0 .56-.453 1.012-1.262 1.006H9.99M11.477 14.023v-1.629M12.477 7.023v1.496M13.5 5a1 1 0 1 1 2 0M9.5 5a1 1 0 1 1 2 0M11.5 5V3.506a1 1 0 1 1 2 0v2.033"/></g></svg>