<svg xmlns="http://www.w3.org/2000/svg" viewBox="0 0 24 24"><g fill="none" stroke="#000" transform="translate(0 -1028.362)"><path d="M5 1045.862h7.5M5 1033.862h10M16.98 1039.885l-2.245-.01c-.804-.01-1.258.447-1.258 1.006 0 .56.454 1.013 1.013 1.013.559 0 2-.025 2-.025.559 0 1.012.453 1.012 1.012 0 .56-.453 1.013-1.262 1.007h-3.25M15.5 1045.385v-1.628M15.477 1038.385v1.496"/><circle cx="15.5" cy="1041.862" r="4.95" stroke-linecap="square" stroke-width="1.1"/><path stroke-linejoin="round" d="M15.5 1046.862c0 1.108-.892 2-2 2h-7c-1.108 0-2-.892-2-2v-13c0-1.108.892-2 2-2h7c1.108 0 2 .892 2 2v2.996"/></g></svg>