<svg xmlns="http://www.w3.org/2000/svg" viewBox="0 0 24 24"><g fill="none" stroke="#000" transform="translate(0 -1028.362)"><rect width="7.004" height="10.004" x="2.5" y="1030.858" stroke-linejoin="round" rx=".424"/><path d="M8.005 1033.86l-2.245-.01c-.805-.01-1.258.447-1.258 1.007 0 .559.453 1.012 1.012 1.012.56 0 1-.025 1-.025.56 0 1.013.453 1.013 1.013 0 .559-.453 1.012-1.263 1.006h-2.25M5.502 1039.36v-1.628M6.502 1032.36v1.496M7.707 1044.862l-3 3 3 3M5 1047.862h9M16.308 1042.862l3 3-3 3M19 1045.862h-9M19 1036.86h-4M19 1034.862h-4"/><rect width="7.994" height="9.994" x="13.503" y="1030.865" stroke-linejoin="round" stroke-width="1.006" rx=".484"/><path d="M20 1032.862h-1.5a2 2 0 0 0-2 2v2a2 2 0 0 0 2 2H20"/></g></svg>